<?xml version="1.0" standalone="no"?>
<!DOCTYPE svg PUBLIC "-//W3C//DTD SVG 1.1//EN" "http://www.w3.org/Graphics/SVG/1.1/DTD/svg11.dtd" >
<svg>
<metadata>
Created by FontForge 20090914 at Fri Apr  7 14:13:34 2017
 By www-data
</metadata>
<defs>
<font id="M.Video-Regular" horiz-adv-x="500" >
  <font-face 
    font-family="M.Video"
    font-weight="400"
    font-stretch="normal"
    units-per-em="1000"
    panose-1="2 0 0 0 0 0 0 0 0 0"
    ascent="800"
    descent="-200"
    x-height="483.999"
    cap-height="657"
    bbox="-43.9413 -263.001 1048.01 828.238"
    underline-thickness="50"
    underline-position="-50"
    unicode-range="U+0020-U+2265"
  />
<missing-glyph horiz-adv-x="236" 
d="M20 512h196v-512h-196v512zM208 8v496h-180v-496h180z" />
    <glyph glyph-name=".notdef" horiz-adv-x="236" 
d="M20 512h196v-512h-196v512zM208 8v496h-180v-496h180z" />
    <glyph glyph-name="space" unicode=" " horiz-adv-x="236" 
 />
    <glyph glyph-name="exclam" unicode="!" horiz-adv-x="267" 
d="M159 229c-0.666992 -7.33301 -2.66895 -12 -6.00195 -14s-7.66602 -3.33301 -12.999 -4h-14c-5.33301 0.666992 -9.66602 2 -12.999 4s-5.33301 6.66699 -6 14l-22 424c-0.666992 13.333 2.66602 24.833 9.99902 34.5s20 14.834 38 15.501
c18 -0.666992 30.833 -5.83398 38.5 -15.501s10.834 -21.167 9.50098 -34.5zM132.998 -17c-14 0 -26.667 4.33301 -38 13s-17 21.667 -17 39c0 18 5.66699 31.833 17 41.5s24 14.5 38 14.5c13.333 0 26 -4.33301 38 -13s18 -21.667 18 -39c0 -18.667 -6 -32.5 -18 -41.5
s-24.667 -13.833 -38 -14.5z" />
    <glyph glyph-name="quotedbl" unicode="&#x22;" horiz-adv-x="353" 
d="M70 631c0 7.33301 1.83203 13.668 5.49902 19.001s11.5 7.66602 23.5 6.99902h38c18 0 25 -10 21 -30l-41 -179c-2 -8 -4.66699 -13.167 -8 -15.5s-8.66602 -3.5 -15.999 -3.5h-12c-13.333 0 -20 6.33301 -20 19zM212.999 631.002
c0 7.33301 1.83203 13.668 5.49902 19.001s11.5 7.66602 23.5 6.99902h38c18 0 25 -10 21 -30l-41 -179c-2 -8 -4.66699 -13.167 -8 -15.5s-8.66602 -3.5 -15.999 -3.5h-12c-13.333 0 -20 6.33301 -20 19z" />
    <glyph glyph-name="numbersign" unicode="#" horiz-adv-x="694" 
d="M217 410l36 144c1.33301 4.66699 3.83301 8.5 7.5 11.5s9.16699 4.5 16.5 4.5h27c14.667 0 20 -7.33301 16 -22l-34 -138h185l36 144c1.33301 4.66699 3.83301 8.5 7.5 11.5s9.16699 4.5 16.5 4.5h27c14.667 0 20 -7.33301 16 -22l-34 -138h74
c9.33301 0 15.333 -1.83301 18 -5.5s4 -9.5 4 -17.5v-12c0 -7.33301 -1.33301 -13 -4 -17s-8.66699 -6 -18 -6h-89l-33 -132h103c9.33301 0 15.333 -1.83301 18 -5.5s4 -9.5 4 -17.5v-12c0 -7.33301 -1.33301 -13 -4 -17s-8.66699 -6 -18 -6h-117l-36 -145
c-1.33301 -5.33301 -3.83301 -9.5 -7.5 -12.5s-9.16699 -4.5 -16.5 -4.5h-28c-14 -0 -19 7.33301 -15 22l34 140h-185l-36 -145c-1.33301 -5.33301 -3.83301 -9.5 -7.5 -12.5s-9.16699 -4.5 -16.5 -4.5h-28c-14 -0 -19 7.33301 -15 22l34 140h-78
c-9.33301 0 -15.333 1.83301 -18 5.5s-4 9.5 -4 17.5v12c0 7.33301 1.33301 13 4 17s8.66699 6 18 6h93l33 132h-107c-9.33301 0 -15.333 1.83301 -18 5.5s-4 9.5 -4 17.5v12c0 7.33301 1.33301 13 4 17s8.66699 6 18 6h121zM238 220h186l33 132h-186z" />
    <glyph glyph-name="dollar" unicode="$" horiz-adv-x="585" 
d="M373 -84c0 -9.33301 -2.50391 -15.332 -7.50391 -17.999s-12.833 -4 -23.5 -4h-8c-10 0 -17.667 1.33301 -23 4s-8 8.66699 -8 18v70c-16 2 -33 5.16699 -51 9.5s-34.5 10.166 -49.5 17.499s-27.5 16.333 -37.5 27s-15 23.334 -15 38.001c0 6 1.5 12 4.5 18
s7.16699 10.667 12.5 14c4 2 7.66699 2 11 0c26 -16.667 53.333 -30 82 -40s57.667 -15 87 -15c13.333 0 26.833 1.5 40.5 4.5s26 8 37 15s20 16.5 27 28.5s10.5 26.667 10.5 44c0 25.333 -7.83301 45.666 -23.5 60.999s-35.167 28.666 -58.5 39.999
s-48.833 21.833 -76.5 31.5s-53.167 21.334 -76.5 35.001s-42.833 30.667 -58.5 51s-23.5 46.833 -23.5 79.5c0.666992 26 5.33398 49 14.001 69s20.167 37 34.5 51s30.833 25.167 49.5 33.5s38.667 14.166 60 17.499v64c0 9.33301 2.5 15.333 7.5 18s12.833 4 23.5 4h8
c10 0 17.667 -1.33301 23 -4s8 -8.66699 8 -18v-63c16 -1.33301 32 -4 48 -8s30.5 -9.33301 43.5 -16s23.5 -14.5 31.5 -23.5s12 -19.167 12 -30.5c0 -12 -3.66699 -22.333 -11 -31c-4.66699 -4.66699 -9.33398 -5.66699 -14.001 -3c-22.667 14.667 -45.667 26 -69 34
s-47.333 12 -72 12c-14.667 0 -29.167 -2 -43.5 -6s-27.333 -10 -39 -18s-21 -18.167 -28 -30.5s-10.5 -26.833 -10.5 -43.5c0 -21.333 7.83301 -39 23.5 -53s35.334 -26.5 59.001 -37.5s49.334 -22 77.001 -33s53.334 -24.167 77.001 -39.5s43.334 -34.166 59.001 -56.499
s23.5 -50.5 23.5 -84.5c0 -23.333 -4.16699 -44.333 -12.5 -63s-20 -35 -35 -49s-32.667 -25.5 -53 -34.5s-42.5 -14.833 -66.5 -17.5v-69z" />
    <glyph glyph-name="percent" unicode="%" horiz-adv-x="754" 
d="M639 129c0 32.667 -7.33203 56.6689 -21.999 72.002s-31.667 23 -51 23c-18.667 0 -35.5 -7.5 -50.5 -22.5s-22.5 -39.167 -22.5 -72.5c0 -16 2.16699 -29.5 6.5 -40.5s10.166 -20 17.499 -27s15.333 -12 24 -15s17.667 -4.5 27 -4.5c12 0 22.333 2.66699 31 8
s16 12.166 22 20.499s10.5 17.666 13.5 27.999s4.5 20.5 4.5 30.5zM566.001 -12.998c-25.333 0 -46.998 4 -64.998 12s-32.667 18.833 -44 32.5s-19.833 29.167 -25.5 46.5s-8.5 35.333 -8.5 54c0 18 2.66699 35.833 8 53.5s13.666 33.334 24.999 47.001
s26.166 24.667 44.499 33s40.166 12.5 65.499 12.5s47 -4.16699 65 -12.5s32.833 -19.333 44.5 -33s20.167 -29.334 25.5 -47.001s8 -35.5 8 -53.5c0 -18.667 -2.83301 -36.667 -8.5 -54s-14.167 -32.833 -25.5 -46.5s-26.166 -24.5 -44.499 -32.5s-39.833 -12 -64.5 -12z
M266.003 482.002c0 32.667 -7.33203 56.6689 -21.999 72.002s-31.667 23 -51 23c-18.667 0 -35.5 -7.5 -50.5 -22.5s-22.5 -39.167 -22.5 -72.5c0 -16 2.16699 -29.5 6.5 -40.5s10.166 -20 17.499 -27s15.333 -12 24 -15s17.667 -4.5 27 -4.5c12 0 22.333 2.66699 31 8
s16 12.166 22 20.499s10.5 17.666 13.5 27.999s4.5 20.5 4.5 30.5zM193.004 340.004c-25.333 0 -46.998 4 -64.998 12s-32.667 18.833 -44 32.5s-19.833 29.167 -25.5 46.5s-8.5 35.333 -8.5 54c0 18 2.66699 35.833 8 53.5s13.666 33.334 24.999 47.001
s26.166 24.667 44.499 33s40.166 12.5 65.499 12.5s47 -4.16699 65 -12.5s32.833 -19.333 44.5 -33s20.167 -29.334 25.5 -47.001s8 -35.5 8 -53.5c0 -18.667 -2.83301 -36.667 -8.5 -54s-14.167 -32.833 -25.5 -46.5s-26.166 -24.5 -44.499 -32.5s-39.833 -12 -64.5 -12z
M541.006 606.004c6 8.66699 11.833 14.334 17.5 17.001s13.5 4 23.5 4h29c7.33301 0 12 -2.16699 14 -6.5s1.33301 -9.16602 -2 -14.499l-398 -585c-5.33301 -8.66699 -11 -14.334 -17 -17.001s-14 -4 -24 -4h-31c-7.33301 0 -12 2.16699 -14 6.5s-1.33301 9.16602 2 14.499
z" />
    <glyph glyph-name="ampersand" unicode="&#x26;" horiz-adv-x="615" 
d="M451 393c12 4.66699 24.1689 10.001 36.502 16.001s23.333 12.667 33 20s17.5 15.833 23.5 25.5s9 20.167 9 31.5c0 4 -0.666992 7.83301 -2 11.5s-2 7.5 -2 11.5c0 6 5.33301 9 16 9c15.333 -1.33301 26.666 -7 33.999 -17s11 -21.667 11 -35
c0 -15.333 -3.16699 -29.166 -9.5 -41.499s-14.5 -23.5 -24.5 -33.5s-21.167 -18.5 -33.5 -25.5s-24.5 -12.5 -36.5 -16.5c22 -20 37.5 -42.833 46.5 -68.5s13.5 -52.167 13.5 -79.5c0 -31.333 -6.16699 -60 -18.5 -86s-30 -48.5 -53 -67.5s-50.667 -33.833 -83 -44.5
s-68.5 -16 -108.5 -16c-34 0 -67 4.5 -99 13.5s-60.5 23 -85.5 42s-45.167 43.5 -60.5 73.5s-23 66 -23 108c0 48.667 13.333 90.667 40 126s67 60.333 121 75c-26.667 11.333 -47.334 28.166 -62.001 50.499s-22 46.5 -22 72.5c0 22.667 4.5 42.5 13.5 59.5
s21.333 31.167 37 42.5s34 20 55 26s43.167 9 66.5 9c16.667 0 34 -1.83301 52 -5.5s34.333 -8.66699 49 -15s26.834 -13.833 36.501 -22.5s14.5 -18 14.5 -28c0 -4.66699 -2 -11.5 -6 -20.5s-9.66699 -13.5 -17 -13.5c-2.66699 0 -5.33398 1 -8.00098 3
c-16.667 10.667 -36.667 19.334 -60 26.001s-45.333 10 -66 10c-30 0 -52.5 -7.66699 -67.5 -23s-22.5 -34 -22.5 -56c0 -13.333 2.66699 -25.833 8 -37.5s12.666 -21.834 21.999 -30.501s20.333 -15.5 33 -20.5s26.667 -7.5 42 -7.5h19c9.33301 0 15 -1.33301 17 -4
s3 -8 3 -16v-18c0 -7.33301 -0.666992 -12.166 -2 -14.499s-6.66602 -3.5 -15.999 -3.5h-37c-28.667 -1.33301 -53.167 -6.83301 -73.5 -16.5s-37 -22 -50 -37s-22.5 -31.833 -28.5 -50.5s-9 -37.667 -9 -57c0 -31.333 5.66699 -58 17 -80s26 -40 44 -54
s38.5 -24.167 61.5 -30.5s46.167 -9.5 69.5 -9.5c25.333 0 49.5 3.5 72.5 10.5s43 17.667 60 32s30.5 32.333 40.5 54s15 46.834 15 75.501c0 19.333 -3.16699 38 -9.5 56s-15.833 33.667 -28.5 47l-38.5 -17c-12.333 -5.33301 -23.166 -11.5 -32.499 -18.5
s-17 -14.833 -23 -23.5s-9 -19.334 -9 -32.001c0 -4.66699 0.5 -8.83398 1.5 -12.501s1.5 -7.5 1.5 -11.5c0 -5.33301 -5.33301 -8 -16 -8c-15.333 0 -26.5 5.16699 -33.5 15.5s-10.5 22.166 -10.5 35.499c0 20 4.66699 37.167 14 51.5s21.166 26.5 35.499 36.5
s30.5 18.833 48.5 26.5z" />
    <glyph glyph-name="quotesingle" unicode="'" horiz-adv-x="217" 
d="M65 631c0 7.33301 1.83203 13.668 5.49902 19.001s11.5 7.66602 23.5 6.99902h38c18 0 25 -10 21 -30l-36 -179c-2 -8 -4.66699 -13.167 -8 -15.5s-8.66602 -3.5 -15.999 -3.5h-12c-13.333 0 -20 6.33301 -20 19z" />
    <glyph glyph-name="parenleft" unicode="(" horiz-adv-x="317" 
d="M321 -188c-2.66699 -4.66699 -5.83008 -7.16211 -9.49707 -7.49512s-7.16699 0.166992 -10.5 1.5c-40.667 21.333 -76.834 48.666 -108.501 81.999s-58.334 70.5 -80.001 111.5s-38.167 84.667 -49.5 131s-17 93.166 -17 140.499c0 46.667 5.5 93.5 16.5 140.5
s27.167 91.5 48.5 133.5s48.166 80.333 80.499 115s70.166 63 113.499 85c8.66699 3.33301 14.667 1 18 -7l13 -30c4 -8.66699 1.66699 -15.334 -7 -20.001c-32 -18.667 -60.667 -42.334 -86 -71.001s-46.833 -61 -64.5 -97s-31.167 -74.667 -40.5 -116
s-14 -83.333 -14 -126c0 -46 4.83301 -90.333 14.5 -133s23.5 -82.167 41.5 -118.5s39.5 -69 64.5 -98s53.167 -52.5 84.5 -70.5c6.66699 -4.66699 8.33398 -11.334 5.00098 -20.001z" />
    <glyph glyph-name="parenright" unicode=")" horiz-adv-x="321" 
d="M-13 -162c-3.33301 8.66699 -1.66504 15.3291 5.00195 19.9961c30.667 18 58.667 41.5 84 70.5s47 61.667 65 98s31.833 75.833 41.5 118.5s14.5 87 14.5 133c0 42.667 -4.66699 84.667 -14 126s-22.833 80 -40.5 116s-39.167 68.333 -64.5 97s-54 52.334 -86 71.001
c-8.66699 4.66699 -11 11.334 -7 20.001l13 30c3.33301 8 9.33301 10.333 18 7c42.667 -22 80.334 -50.333 113.001 -85s59.667 -73 81 -115s37.5 -86.5 48.5 -133.5s16.5 -93.833 16.5 -140.5c0 -47.333 -5.66699 -94.166 -17 -140.499s-27.833 -90 -49.5 -131
s-48.334 -78.167 -80.001 -111.5s-67.834 -60.666 -108.501 -81.999c-3.33301 -1.33301 -6.83301 -1.83301 -10.5 -1.5s-6.83398 2.83301 -9.50098 7.5z" />
    <glyph glyph-name="asterisk" unicode="*" horiz-adv-x="464" 
d="M174 459c-5.33301 -11.333 -13.668 -17.666 -25.001 -18.999s-21.666 1.33398 -30.999 8.00098s-15.333 15.5 -18 26.5s0.666016 21.167 9.99902 30.5l92 92l-130 21c-12 2 -20.5 8.5 -25.5 19.5s-5.16699 22.167 -0.5 33.5c3.33301 10 10.333 17.333 21 22
s21 4.33398 31 -0.999023l117 -60l-21 130c-1.33301 11.333 1.33398 21 8.00098 29s16.667 12 30 12s23.166 -4 29.499 -12s8.83301 -17.667 7.5 -29l-20 -130l117 60c10 5.33301 20.333 5.66602 31 0.999023s17.667 -12 21 -22c4.66699 -11.333 4.5 -22.5 -0.5 -33.5
s-13.5 -17.5 -25.5 -19.5l-130 -21l92 -92c9.33301 -9.33301 12.666 -19.5 9.99902 -30.5s-8.66699 -19.833 -18 -26.5s-19.666 -9.33398 -30.999 -8.00098s-19.666 7.66602 -24.999 18.999l-58 116z" />
    <glyph glyph-name="plus" unicode="+" horiz-adv-x="511" 
d="M222 333v158c0 9.33301 2.16699 15.333 6.5 18s11.166 4 20.499 4h13c8.66699 0 15.334 -1.33301 20.001 -4s7 -8.66699 7 -18v-158h146c9.33301 0 15.333 -2.16699 18 -6.5s4 -11.166 4 -20.499v-13c0 -8.66699 -1.33301 -15.334 -4 -20.001s-8.66699 -7 -18 -7h-146
v-158c0 -9.33301 -2.16699 -15.333 -6.5 -18s-11.166 -4 -20.499 -4h-13c-8.66699 0 -15.334 1.33301 -20.001 4s-7 8.66699 -7 18v158h-146c-9.33301 0 -15.333 2.16699 -18 6.5s-4 11.166 -4 20.499v13c0 8.66699 1.33301 15.334 4 20.001s8.66699 7 18 7h146z" />
    <glyph glyph-name="comma" unicode="," horiz-adv-x="235" 
d="M70 49c7.33301 15.333 16.5 26.168 27.5 32.501s21.833 9.5 32.5 9.5c20.667 0 35 -7.16699 43 -21.5s12 -28.833 12 -43.5c0 -19.333 -3.83301 -37.833 -11.5 -55.5s-17 -34 -28 -49s-22.167 -28.333 -33.5 -40s-20.666 -20.834 -27.999 -27.501
c-4 -4 -8.33301 -4.33301 -13 -1l-19 14c-4.66699 3.33301 -5 7 -1 11c14 14 26.333 29.5 37 46.5s16 34.167 16 51.5c0 10 -2.33301 20.333 -7 31s-12.334 20.334 -23.001 29.001c-4.66699 3.33301 -6 7.66602 -4 12.999z" />
    <glyph glyph-name="hyphen" unicode="-" horiz-adv-x="461" 
d="M363 283c9.33301 0 15.333 -2.16699 18 -6.5s4 -10.833 4 -19.5v-18c0 -8.66699 -1.33301 -15.167 -4 -19.5s-8.66699 -6.5 -18 -6.5h-265c-9.33301 0 -15.333 2.16699 -18 6.5s-4 10.833 -4 19.5v18c0 8.66699 1.33301 15.167 4 19.5s8.66699 6.5 18 6.5h265z" />
    <glyph glyph-name="period" unicode="." horiz-adv-x="216" 
d="M110 -17c-14 0 -26.667 4.33301 -38 13s-17 21.667 -17 39c0 18 5.66699 31.833 17 41.5s24 14.5 38 14.5c13.333 0 26 -4.33301 38 -13s18 -21.667 18 -39c0 -18.667 -6 -32.5 -18 -41.5s-24.667 -13.833 -38 -14.5z" />
    <glyph glyph-name="slash" unicode="/" horiz-adv-x="412" 
d="M311 637c3.33301 7.33301 6.83301 12.5 10.5 15.5s9.16699 4.5 16.5 4.5h37c16 0 20.667 -7.66699 14 -23l-352 -716c-3.33301 -7.33301 -6.83301 -12.333 -10.5 -15s-9.5 -4 -17.5 -4h-36c-16 0 -20.667 7.33301 -14 22z" />
    <glyph glyph-name="zero" unicode="0" horiz-adv-x="574" 
d="M284 -13c-48 0 -87.167 9.66699 -117.5 29s-54.166 44.5 -71.499 75.5s-29.166 66.167 -35.499 105.5s-9.5 79 -9.5 119c0 40.667 3.66699 80.167 11 118.5s20 72.333 38 102s42.333 53.334 73 71.001s69.334 26.5 116.001 26.5c48 0 87.167 -9.66699 117.5 -29
s54.166 -44.5 71.499 -75.5s29.166 -66.167 35.499 -105.5s9.5 -79 9.5 -119c0 -41.333 -3.66699 -81 -11 -119s-20 -71.833 -38 -101.5s-42.333 -53.334 -73 -71.001s-69.334 -26.5 -116.001 -26.5zM286 58c34 0 61.333 7.5 82 22.5s36.834 34.833 48.501 59.5
s19.334 52.667 23.001 84s5.5 63.333 5.5 96c0 31.333 -2.33301 61.666 -7 90.999s-13 55.333 -25 78s-28.167 40.834 -48.5 54.501s-46.5 20.5 -78.5 20.5c-34 0 -61.333 -7.5 -82 -22.5s-36.834 -34.833 -48.501 -59.5s-19.334 -52.667 -23.001 -84s-5.5 -63.333 -5.5 -96
c0 -31.333 2.33301 -61.666 7 -90.999s13 -55.333 25 -78s28.167 -40.834 48.5 -54.501s46.5 -20.5 78.5 -20.5z" />
    <glyph glyph-name="one" unicode="1" horiz-adv-x="342" 
d="M217 626c10 0 17.5 -1.33301 22.5 -4s7.5 -8.66699 7.5 -18v-582c0 -9.33301 -2.5 -15.333 -7.5 -18s-12.167 -4 -21.5 -4h-17c-10 -0 -17.5 1.33301 -22.5 4s-7.5 8.66699 -7.5 18v507l-101 -73c-12 -8 -21.667 -7 -29 3l-13 19c-4.66699 7.33301 -7.16699 13 -7.5 17
s3.16699 8.66699 10.5 14l139 107c8.66699 6.66699 18.667 10 30 10h17z" />
    <glyph glyph-name="two" unicode="2" horiz-adv-x="473" 
d="M42 550c0 12.667 5.66797 24.3369 17.001 35.0039s25.5 19.5 42.5 26.5s35.333 12.5 55 16.5s37.834 6 54.501 6c28.667 0 55 -3.5 79 -10.5s45 -18 63 -33s32.167 -34.333 42.5 -58s16.166 -52.167 17.499 -85.5c0.666992 -36 -8 -68.333 -26 -97
s-40 -54.834 -66 -78.501s-53.833 -45.334 -83.5 -65.001s-55.5 -38.167 -77.5 -55.5c-11.333 -9.33301 -21.333 -20.5 -30 -33.5s-14.334 -27.5 -17.001 -43.5h286c9.33301 0 15.333 -2.33301 18 -7s4 -11.667 4 -21v-17c0 -10 -1.33301 -17.333 -4 -22s-8.66699 -7 -18 -7
h-342c-6 0 -10.667 1.33301 -14 4s-5.83301 6.16699 -7.5 10.5s-2.66699 9 -3 14s-0.5 9.83301 -0.5 14.5c0 36 7.5 66.833 22.5 92.5s33.5 48.167 55.5 67.5s46.167 37.166 72.5 53.499s50.5 33.5 72.5 51.5s40.5 38.167 55.5 60.5s22.5 49.166 22.5 80.499
c0 15.333 -2 29.833 -6 43.5s-10.5 25.5 -19.5 35.5s-21.167 18 -36.5 24s-34 9 -56 9c-26.667 0 -53.167 -4.66699 -79.5 -14s-49.166 -19.666 -68.499 -30.999c-2.66699 -1.33301 -4.83398 -1.66602 -6.50098 -0.999023s-3.16699 1.66699 -4.5 3
c-3.33301 3.33301 -6.5 8.16602 -9.5 14.499s-4.5 12.166 -4.5 17.499z" />
    <glyph glyph-name="three" unicode="3" horiz-adv-x="456" 
d="M379 627c9.33301 0 15.334 -2.33203 18.001 -6.99902s4 -11.667 4 -21v-9c0 -5.33301 -1.33301 -10.166 -4 -14.499s-7 -10.166 -13 -17.499l-164 -198c34 0 63.333 -4.66699 88 -14s45 -22 61 -38s27.833 -34.833 35.5 -56.5s11.5 -44.834 11.5 -69.501
c0 -28 -4.5 -53.833 -13.5 -77.5s-22.5 -44.334 -40.5 -62.001s-40.833 -31.334 -68.5 -41.001s-60.167 -14.5 -97.5 -14.5c-12.667 0 -28.667 1.33301 -48 4s-38.166 7.16699 -56.499 13.5s-34 15 -47 26s-19.5 24.5 -19.5 40.5c0 7.33301 1.5 14.5 4.5 21.5
s7.16699 10.5 12.5 10.5c2 0 4 -0.333008 6 -1s4.33301 -1.66699 7 -3c20.667 -11.333 44.167 -20.666 70.5 -27.999s52.166 -11 77.499 -11s46.666 3.33301 63.999 10s31.333 15.5 42 26.5s18.334 23.833 23.001 38.5s7 30 7 46c0 26 -5 47 -15 63s-23.333 28.667 -40 38
s-35.834 15.666 -57.501 18.999s-44.5 5 -68.5 5h-8c-12 0 -18 6 -18 18v11c0 10 3.66699 19.667 11 29l148 188h-230c-9.33301 0 -15.333 2.33301 -18 7s-4 12 -4 22v18c0 9.33301 1.33301 16.333 4 21s8.66699 7 18 7h318z" />
    <glyph glyph-name="four" unicode="4" horiz-adv-x="514" 
d="M340 562l-240 -350h240v350zM416 212l56.001 -0.000976562c9.33301 0 15.333 -2 18 -6s4 -10.667 4 -20v-16c0 -9.33301 -1.33301 -16.166 -4 -20.499s-8.66699 -6.5 -18 -6.5h-56v-121c0 -9.33301 -2.5 -15.333 -7.5 -18s-12.167 -4 -21.5 -4h-17
c-10 -0 -17.5 1.33301 -22.5 4s-7.5 8.66699 -7.5 18v121h-284c-21.333 0 -32 9.66699 -32 29v20c0 19.333 7.33301 39.333 22 60l239 349c7.33301 10 15.5 16.667 24.5 20s19.167 5 30.5 5h43c11.333 0 19.666 -1.83301 24.999 -5.5s8 -11.167 8 -22.5v-386z" />
    <glyph glyph-name="five" unicode="5" horiz-adv-x="487" 
d="M228 -13c-11.333 0 -26.666 0.999023 -45.999 2.99902s-38.5 6.33301 -57.5 13s-35.333 16 -49 28s-20.5 27.667 -20.5 47c0 12 3.33301 21.667 10 29c3.33301 3.33301 7 4 11 2c23.333 -14 47.5 -25.833 72.5 -35.5s50.5 -14.5 76.5 -14.5c18.667 0 36.5 2.5 53.5 7.5
s32 13.333 45 25s23.333 26.667 31 45s11.5 40.5 11.5 66.5c0 37.333 -11.5 67.5 -34.5 90.5s-55.167 34.5 -96.5 34.5c-20 0 -40 -3 -60 -9s-38 -12.667 -54 -20c-8.66699 -4.66699 -16 -5.66699 -22 -3l-16 7c-5.33301 2.66699 -9.33301 5.5 -12 8.5
s-3.33398 9.83301 -2.00098 20.5l30 267c1.33301 12 3.5 19.667 6.5 23s8.16699 5 15.5 5h290c9.33301 0 15.333 -2.33301 18 -7s4 -11.667 4 -21v-18c0 -10 -1.33301 -17.333 -4 -22s-8.66699 -7 -18 -7h-247l-21 -184c35.333 17.333 71 26 107 26
c32.667 0 61.167 -5.5 85.5 -16.5s44.5 -25.5 60.5 -43.5s27.833 -38.667 35.5 -62s11.5 -47.666 11.5 -72.999c0 -39.333 -6.33301 -72.5 -19 -99.5s-29.167 -48.833 -49.5 -65.5s-43.333 -28.667 -69 -36s-51.5 -11 -77.5 -11z" />
    <glyph glyph-name="six" unicode="6" horiz-adv-x="529" 
d="M419 634c5.33301 0 9.50195 -1.66602 12.502 -4.99902s4.5 -7 4.5 -11v-38c0 -4 -1.33301 -7.5 -4 -10.5s-6 -4.5 -10 -4.5c-31.333 0 -62.333 -4.5 -93 -13.5s-58.834 -23.167 -84.501 -42.5s-47.834 -44 -66.501 -74s-31.334 -66 -38.001 -108h2
c17.333 25.333 40.833 44.166 70.5 56.499s59.5 18.5 89.5 18.5c29.333 0 55.333 -5.5 78 -16.5s41.834 -25.833 57.501 -44.5s27.5 -40.167 35.5 -64.5s12 -49.5 12 -75.5c0 -30 -4.83301 -58 -14.5 -84s-23.834 -48.667 -42.501 -68s-41.167 -34.5 -67.5 -45.5
s-55.833 -16.5 -88.5 -16.5c-33.333 0 -63.166 6.16699 -89.499 18.5s-48.5 29.833 -66.5 52.5s-31.833 50.334 -41.5 83.001s-14.5 69 -14.5 109c0 70.667 10.667 130.5 32 179.5s49.166 88.667 83.499 119s72.833 52.166 115.5 65.499s85.334 20 128.001 20z
M139.002 230.001c0 -54 11.666 -97.167 34.999 -129.5s58 -48.5 104 -48.5c42.667 0 75.334 13.5 98.001 40.5s34 62.5 34 106.5c-1.33301 45.333 -13 79.5 -35 102.5s-51 34.5 -87 34.5c-30 0 -58.667 -9.33301 -86 -28s-48.333 -44.667 -63 -78z" />
    <glyph glyph-name="seven" unicode="7" horiz-adv-x="418" 
d="M381 626c9.33301 0 15.333 -2.33301 18 -7s4 -11.667 4 -21v-35c0 -9.33301 -2 -18.333 -6 -27l-248 -523c-4.66699 -8.66699 -11.334 -13 -20.001 -13h-55c-11.333 -0 -14.666 5.33301 -9.99902 16l261 536h-283c-9.33301 0 -15.333 2.33301 -18 7s-4 12 -4 22v17
c0 9.33301 1.33301 16.333 4 21s8.66699 7 18 7h339z" />
    <glyph glyph-name="eight" unicode="8" horiz-adv-x="533" 
d="M332 325c20 -11.333 38.667 -23.501 56 -36.501s32.5 -27 45.5 -42s23.167 -31.167 30.5 -48.5s11 -36.333 11 -57c0 -26 -5.66699 -48.5 -17 -67.5s-26.333 -35 -45 -48s-40 -22.667 -64 -29s-48.333 -9.5 -73 -9.5c-27.333 0 -54 3 -80 9s-49.333 15.5 -70 28.5
s-37.167 29.833 -49.5 50.5s-18.5 45.334 -18.5 74.001c0 38.667 11.333 73 34 103s55 55 97 75c-33.333 19.333 -60.333 41.333 -81 66s-31 54.667 -31 90c0 20 4.33301 39.167 13 57.5s21.334 34.333 38.001 48s37.167 24.5 61.5 32.5s52.166 12 83.499 12
c27.333 -0.666992 52.5 -4.83398 75.5 -12.501s42.833 -18.167 59.5 -31.5s29.667 -29.166 39 -47.499s14 -37.833 14 -58.5c0 -68 -43 -120.667 -129 -158zM399 142.999c0 16.667 -3.83301 31.832 -11.5 45.499s-18.167 26.5 -31.5 38.5s-29 23.333 -47 34l-57 33
c-36 -16.667 -64 -37.5 -84 -62.5s-30 -52.167 -30 -81.5c0 -16.667 3.83301 -31.167 11.5 -43.5s17.5 -22.666 29.5 -30.999s25.667 -14.5 41 -18.5s31 -6 47 -6s32 2 48 6s30.167 10 42.5 18s22.333 17.667 30 29s11.5 24.333 11.5 39zM270 569.997
c-13.333 0 -26.666 -1.49902 -39.999 -4.49902s-25.666 -8 -36.999 -15s-20.5 -16 -27.5 -27s-10.5 -24.5 -10.5 -40.5c0 -15.333 3.5 -29.333 10.5 -42s16.167 -24.334 27.5 -35.001s24.166 -20.167 38.499 -28.5s28.833 -16.166 43.5 -23.499
c37.333 18.667 65.166 38.167 83.499 58.5s27.5 43.166 27.5 68.499c0 26.667 -10.333 48.167 -31 64.5s-49 24.5 -85 24.5z" />
    <glyph glyph-name="nine" unicode="9" horiz-adv-x="519" 
d="M108 -13c-5.33301 0 -9.33496 1.66602 -12.002 4.99902s-4 7 -4 11v38c0 4 1.33301 7.5 4 10.5s5.66699 4.5 9 4.5c30.667 0 60.834 4.5 90.501 13.5s57 23.167 82 42.5s46.5 44 64.5 74s30.333 66 37 108h-2c-16.667 -25.333 -39.5 -44.166 -68.5 -56.499
s-57.833 -18.5 -86.5 -18.5s-54.167 5.5 -76.5 16.5s-41 25.833 -56 44.5s-26.333 40.167 -34 64.5s-11.5 49.5 -11.5 75.5c0 30 4.83301 58 14.5 84s23.334 48.667 41.001 68s39.334 34.5 65.001 45.5s54.5 16.5 86.5 16.5s60.833 -6.16699 86.5 -18.5
s47.5 -29.833 65.5 -52.5s31.833 -50.334 41.5 -83.001s14.5 -69 14.5 -109c0 -71.333 -10.5 -131.333 -31.5 -180s-48.333 -88.167 -82 -118.5s-71.334 -52.166 -113.001 -65.499s-83.167 -20 -124.5 -20zM379.998 390.999c0 54 -11.334 97.167 -34.001 129.5
s-56.334 48.5 -101.001 48.5c-41.333 0 -72.666 -13.5 -93.999 -40.5s-32 -62.5 -32 -106.5c1.33301 -45.333 12.5 -79.5 33.5 -102.5s48.833 -34.5 83.5 -34.5c28.667 0 56.334 9.33301 83.001 28s47 44.667 61 78z" />
    <glyph glyph-name="colon" unicode=":" horiz-adv-x="216" 
d="M110 -17c-14 0 -26.667 4.33301 -38 13s-17 21.667 -17 39c0 18 5.66699 31.833 17 41.5s24 14.5 38 14.5c13.333 0 26 -4.33301 38 -13s18 -21.667 18 -39c0 -18.667 -6 -32.5 -18 -41.5s-24.667 -13.833 -38 -14.5zM110 374c-14 0 -26.667 4.33301 -38 13
s-17 21.667 -17 39c0 18 5.66699 31.833 17 41.5s24 14.5 38 14.5c13.333 0 26 -4.33301 38 -13s18 -21.667 18 -39c0 -18.667 -6 -32.5 -18 -41.5s-24.667 -13.833 -38 -14.5z" />
    <glyph glyph-name="semicolon" unicode=";" horiz-adv-x="235" 
d="M121 374c-14 0 -26.667 4.33301 -38 13s-17 21.667 -17 39c0 18 5.66699 31.833 17 41.5s24 14.5 38 14.5c13.333 0 26 -4.33301 38 -13s18 -21.667 18 -39c0 -18.667 -6 -32.5 -18 -41.5s-24.667 -13.833 -38 -14.5zM70 49c7.33301 15.333 16.5 26.168 27.5 32.501
s21.833 9.5 32.5 9.5c20.667 0 35 -7.16699 43 -21.5s12 -28.833 12 -43.5c0 -19.333 -3.83301 -37.833 -11.5 -55.5s-17 -34 -28 -49s-22.167 -28.333 -33.5 -40s-20.666 -20.834 -27.999 -27.501c-4 -4 -8.33301 -4.33301 -13 -1l-19 14c-4.66699 3.33301 -5 7 -1 11
c14 14 26.333 29.5 37 46.5s16 34.167 16 51.5c0 10 -2.33301 20.333 -7 31s-12.334 20.334 -23.001 29.001c-4.66699 3.33301 -6 7.66602 -4 12.999z" />
    <glyph glyph-name="less" unicode="&#x3c;" horiz-adv-x="464" 
d="M42 285c0 12 8.33301 22.6709 25 32.0039l289 160c9.33301 4.66699 16.166 4.66699 20.499 0s6.5 -11 6.5 -19v-24c0 -10.667 -1.83301 -18.834 -5.5 -24.501s-9.83398 -10.834 -18.501 -15.501l-188 -102l-62 -24l62 -24l188 -102
c8.66699 -4.66699 14.834 -9.83398 18.501 -15.501s5.5 -13.834 5.5 -24.501v-24c0 -8 -2.16699 -14.333 -6.5 -19s-11.166 -4.66699 -20.499 0l-289 160c-16.667 9.33301 -25 20 -25 32v34z" />
    <glyph glyph-name="equal" unicode="=" horiz-adv-x="564" 
d="M472 414c9.33301 0 15.333 -2.16699 18 -6.5s4 -11.166 4 -20.499v-13c0 -8.66699 -1.33301 -15.334 -4 -20.001s-8.66699 -7 -18 -7h-381c-9.33301 0 -15.333 2.16699 -18 6.5s-4 11.166 -4 20.499v13c0 8.66699 1.33301 15.334 4 20.001s8.66699 7 18 7h381zM472 258
c9.33301 0 15.333 -2.16699 18 -6.5s4 -11.166 4 -20.499v-13c0 -8.66699 -1.33301 -15.334 -4 -20.001s-8.66699 -7 -18 -7h-381c-9.33301 0 -15.333 2.16699 -18 6.5s-4 11.166 -4 20.499v13c0 8.66699 1.33301 15.334 4 20.001s8.66699 7 18 7h381z" />
    <glyph glyph-name="greater" unicode="&#x3e;" horiz-adv-x="464" 
d="M422 251c0 -12 -8.33301 -22.6709 -25 -32.0039l-289 -160c-9.33301 -4.66699 -16.166 -4.66699 -20.499 0s-6.5 11 -6.5 19v24c0 10.667 1.83301 18.834 5.5 24.501s9.83398 10.834 18.501 15.501l188 102l62 24l-62 24l-188 102
c-8.66699 4.66699 -14.834 9.83398 -18.501 15.501s-5.5 13.834 -5.5 24.501v24c0 8 2.16699 14.333 6.5 19s11.166 4.66699 20.499 0l289 -160c16.667 -9.33301 25 -20 25 -32v-34z" />
    <glyph glyph-name="question" unicode="?" horiz-adv-x="422" 
d="M211 704c28.667 0 53.3311 -3.83594 73.998 -11.5029s37.834 -17.667 51.501 -30s23.834 -26.833 30.501 -43.5s10 -34 10 -52c0 -21.333 -4.33301 -40.666 -13 -57.999s-19.667 -33.5 -33 -48.5s-27.666 -29.333 -42.999 -43l-43 -40
c-13.333 -13 -24.333 -26.167 -33 -39.5s-13 -27.666 -13 -42.999c0 -14 4 -25.5 12 -34.5s18.667 -15.833 32 -20.5c9.33301 -2.66699 12 -9.33398 8 -20.001c-5.33301 -8.66699 -11.833 -14.667 -19.5 -18s-16.167 -5 -25.5 -5c-26.667 0 -46.167 9.33301 -58.5 28
s-18.5 40.334 -18.5 65.001c0.666992 24 5.5 45 14.5 63s19.833 34.167 32.5 48.5s26.167 27.5 40.5 39.5s27.666 23.833 39.999 35.5s22.666 24 30.999 37s12.5 27.833 12.5 44.5c0 14.667 -2.83301 27 -8.5 37s-13 17.667 -22 23s-19.5 9.16602 -31.5 11.499
s-24.333 3.5 -37 3.5c-23.333 0 -46.5 -3.16699 -69.5 -9.5s-41.5 -13.5 -55.5 -21.5c-6 -3.33301 -11 -3.33301 -15 0c-8 6.66699 -12 15.667 -12 27c0 14 5.5 25.833 16.5 35.5s24.833 17.334 41.5 23.001s34.334 9.83398 53.001 12.501s35.667 4 51 4zM205.997 -17.0029
c-14 0 -26.667 4.33301 -38 13s-17 21.667 -17 39c0 18 5.66699 31.833 17 41.5s24 14.5 38 14.5c13.333 0 26 -4.33301 38 -13s18 -21.667 18 -39c0 -18.667 -6 -32.5 -18 -41.5s-24.667 -13.833 -38 -14.5z" />
    <glyph glyph-name="at" unicode="@" horiz-adv-x="977" 
d="M596 175c-12.667 3.33301 -27.333 5.66895 -44 7.00195s-32 2 -46 2c-20.667 0 -38.334 -2 -53.001 -6s-26.667 -9.5 -36 -16.5s-16.166 -15 -20.499 -24s-6.5 -18.167 -6.5 -27.5c0 -20 6.66699 -35.167 20 -45.5s31.666 -15.5 54.999 -15.5
c14.667 0 28.834 1.66699 42.501 5s26.167 7.66602 37.5 12.999s21.333 11.166 30 17.499s15.667 12.5 21 18.5v72zM615.001 48.0029c-21.333 -19.333 -45.334 -34.333 -72.001 -45s-56 -16 -88 -16c-42 0 -73.833 11 -95.5 33s-32.5 49 -32.5 81
c0 44.667 16.167 79.167 48.5 103.5s77.5 36.5 135.5 36.5c14 0 28.5 -0.833008 43.5 -2.5s28.833 -3.83398 41.5 -6.50098v57c0 25.333 -9.16699 43 -27.5 53s-39.833 15 -64.5 15c-23.333 0 -46 -2.66699 -68 -8s-42.667 -12 -62 -20c-2 -0.666992 -4.33301 -1 -7 -1
c-5.33301 0 -10 3.66699 -14 11s-6 14.333 -6 21c0 12.667 5.66699 23 17 31s25.166 14.5 41.499 19.5s33.666 8.5 51.999 10.5s34.5 3 48.5 3c30.667 0 56.334 -3.5 77.001 -10.5s37.167 -16.667 49.5 -29s21 -27 26 -44s7.5 -35.833 7.5 -56.5v-174
c1.33301 -24 8.5 -40.167 21.5 -48.5s27.167 -12.5 42.5 -12.5c22 0 40.333 6.5 55 19.5s26.167 29.333 34.5 49s14.166 41.334 17.499 65.001s5 46.167 5 67.5c0 49.333 -7.83301 93.333 -23.5 132s-37.667 71.5 -66 98.5s-62.166 47.667 -101.499 62
s-82.666 21.5 -129.999 21.5c-55.333 0 -104.833 -8.83301 -148.5 -26.5s-80.834 -42.334 -111.501 -74.001s-54.167 -69.167 -70.5 -112.5s-24.5 -91 -24.5 -143c0 -60 9.5 -112.167 28.5 -156.5s44.833 -81 77.5 -110s71 -50.5 115 -64.5s91 -20.333 141 -19
c19.333 0.666992 38.5 2.16699 57.5 4.5s37.833 5.16602 56.5 8.49902c7.33301 1.33301 13.833 0.666016 19.5 -2.00098s8.83398 -9 9.50098 -19v-18c0 -14.667 -7.33301 -24 -22 -28c-21.333 -5.33301 -42.666 -9.33301 -63.999 -12s-42.333 -4 -63 -4
c-68 -1.33301 -128.5 8 -181.5 28s-97.667 48.667 -134 86s-64 82 -83 134s-28.5 109.667 -28.5 173c0 66 11.167 125 33.5 177s52.833 95.833 91.5 131.5s84 62.834 136 81.501s107.333 28 166 28s112 -9.16699 160 -27.5s89.167 -44.166 123.5 -77.499
s60.833 -73.166 79.5 -119.499s28 -97.5 28 -153.5c0 -33.333 -3.83301 -65.666 -11.5 -96.999s-19.334 -59.333 -35.001 -84s-35.667 -44.334 -60 -59.001s-53.166 -22 -86.499 -22c-21.333 0 -42 4.83301 -62 14.5s-34.333 25.167 -43 46.5z" />
    <glyph glyph-name="A" unicode="A" horiz-adv-x="594" 
d="M305 671c9.33301 0 16.666 -6 21.999 -18l269 -631c3.33301 -7.33301 3 -12.833 -1 -16.5s-9.66699 -5.5 -17 -5.5h-30c-8 -0 -15.167 1.33301 -21.5 4s-12.166 9.66699 -17.499 21l-55 132h-315l-54 -132c-5.33301 -11.333 -11.166 -18.333 -17.499 -21
s-13.5 -4 -21.5 -4h-30c-7.33301 -0 -13 1.83301 -17 5.5s-4.33301 9.16699 -1 16.5l269 631c5.33301 12 12.666 18 21.999 18h16zM169 229h256l-85 206l-43 117l-43 -117z" />
    <glyph glyph-name="B" unicode="B" horiz-adv-x="607" 
d="M130 0c-15.333 0 -24.666 2.83105 -27.999 8.49805s-5 11.167 -5 16.5v607c0 4.66699 1.66699 10 5 16s12.666 9 27.999 9h171c42.667 0 78.5 -4.33301 107.5 -13s52.333 -20.167 70 -34.5s30.334 -31.166 38.001 -50.499s11.5 -39.666 11.5 -60.999
c0 -34 -8.66699 -64.833 -26 -92.5s-42 -49.167 -74 -64.5v-3c46 -12 79 -32 99 -60s30 -60 30 -96c0 -26.667 -5 -51.167 -15 -73.5s-25.333 -41.5 -46 -57.5s-46.834 -28.5 -78.501 -37.5s-69.5 -13.5 -113.5 -13.5h-174zM326 71.998c50.667 0 87.834 11.333 111.501 34
s35.5 50.667 35.5 84c0 34 -11.333 60.167 -34 78.5s-57.334 27.5 -104.001 27.5h-160v-224h151zM311 367.998c40 0 72.333 10.5 97 31.5s37 47.5 37 79.5c0 71.333 -48.333 107 -145 107h-125v-218h136z" />
    <glyph glyph-name="C" unicode="C" horiz-adv-x="596" 
d="M125 328c0 -48 6.33398 -88.8311 19.001 -122.498s29.834 -61.167 51.501 -82.5s46.834 -37 75.501 -47s58.667 -15 90 -15s62.833 4.66699 94.5 14s61.834 22.333 90.501 39c5.33301 3.33301 9.66602 4.16602 12.999 2.49902s5.66602 -3.83398 6.99902 -6.50098l17 -31
c1.33301 -3.33301 2 -6.66602 2 -9.99902s-2.33301 -6.66602 -7 -9.99902c-32 -24 -67.833 -42 -107.5 -54s-79.5 -18 -119.5 -18c-40.667 0 -79.5 6.5 -116.5 19.5s-69.667 33.167 -98 60.5s-50.833 62.166 -67.5 104.499s-25 93.166 -25 152.499
c0 54.667 7.5 103.5 22.5 146.5s36.5 79.333 64.5 109s62.167 52.334 102.5 68.001s86.166 23.5 137.499 23.5c20 0.666992 41.667 -0.833008 65 -4.5s45 -9.33398 65 -17.001s36.667 -17.167 50 -28.5s20 -24.333 20 -39c0 -12 -4.66699 -22.667 -14 -32
c-5.33301 -5.33301 -11.333 -6 -18 -2c-27.333 18 -53.833 31 -79.5 39s-53.5 12 -83.5 12c-33.333 0 -65 -5 -95 -15s-56.5 -26 -79.5 -48s-41.333 -50.167 -55 -84.5s-20.834 -75.5 -21.501 -123.5z" />
    <glyph glyph-name="D" unicode="D" horiz-adv-x="655" 
d="M545 327c0 40 -5 74.1689 -15 102.502s-23.5 52.166 -40.5 71.499s-37.167 34.666 -60.5 45.999s-48.666 20 -75.999 26s-56 9.83301 -86 11.5s-60 2.5 -90 2.5v-516c12.667 -2 25.167 -3.33301 37.5 -4s24.5 -1 36.5 -1c44.667 0 85.167 5 121.5 15
s67.166 25.667 92.499 47s45 48.333 59 81s21 72 21 118zM204 657.002c57.333 0 111.503 -4.66797 162.503 -14.001s95.667 -26.166 134 -50.499s68.666 -57.5 90.999 -99.5s33.5 -95.333 33.5 -160c0 -61.333 -9.5 -113.5 -28.5 -156.5s-45.5 -78 -79.5 -105
s-74 -46.833 -120 -59.5s-96 -19 -150 -19c-16.667 0 -33.834 0.166992 -51.501 0.5s-33.834 1.33301 -48.501 3s-26.667 4.66699 -36 9s-14 10.5 -14 18.5v611c0 8 2 13.5 6 16.5s9.66699 4.83301 17 5.5h84z" />
    <glyph glyph-name="E" unicode="E" horiz-adv-x="534" 
d="M177 299v-225.003h301c8 0 13.167 -2.33301 15.5 -7s3.5 -11.667 3.5 -21v-19c0 -9.33301 -1.16699 -16.166 -3.5 -20.499s-7.5 -6.5 -15.5 -6.5h-352c-9.33301 0 -16.5 1.33301 -21.5 4s-7.5 8.66699 -7.5 18v613c0 9.33301 2.5 15.333 7.5 18s12.167 4 21.5 4h352
c8 0 13.167 -2.33301 15.5 -7s3.5 -11.667 3.5 -21v-19c0 -9.33301 -1.16699 -16.166 -3.5 -20.499s-7.5 -6.5 -15.5 -6.5h-301v-210h244c8 0 13.167 -2.33301 15.5 -7s3.5 -11.667 3.5 -21v-19c0 -9.33301 -1.16699 -16.166 -3.5 -20.499s-7.5 -6.5 -15.5 -6.5h-244z" />
    <glyph glyph-name="F" unicode="F" horiz-adv-x="505" 
d="M97 635c0 9.33301 2.5 15.3311 7.5 17.998s12.167 4 21.5 4h357c8 0 13.167 -2.33301 15.5 -7s3.5 -11.667 3.5 -21v-19c0 -9.33301 -1.16699 -16.166 -3.5 -20.499s-7.5 -6.5 -15.5 -6.5h-306v-224h241c8 0 13.167 -2.33301 15.5 -7s3.5 -11.667 3.5 -21v-19
c0 -9.33301 -1.16699 -16.166 -3.5 -20.499s-7.5 -6.5 -15.5 -6.5h-241v-263c0 -9.33301 -2.5 -15.333 -7.5 -18s-12.5 -4 -22.5 -4h-21c-9.33301 -0 -16.5 1.33301 -21.5 4s-7.5 8.66699 -7.5 18v613z" />
    <glyph glyph-name="G" unicode="G" horiz-adv-x="661" 
d="M376 671c22 0 45.334 -1.66797 70.001 -5.00098s47.667 -8.66602 69 -15.999s39 -16.833 53 -28.5s21 -25.5 21 -41.5c0 -12.667 -4 -23 -12 -31c-3.33301 -2.66699 -6.66602 -3.5 -9.99902 -2.5s-6.66602 2.16699 -9.99902 3.5c-31.333 17.333 -61.333 29.833 -90 37.5
s-59.334 11.5 -92.001 11.5c-34 0 -66.167 -5 -96.5 -15s-56.666 -25.833 -78.999 -47.5s-40.166 -49.5 -53.499 -83.5s-20.333 -75 -21 -123c-0.666992 -46.667 5.66602 -87 18.999 -121s31.5 -62 54.5 -84s49.333 -38.167 79 -48.5s60.167 -15.5 91.5 -15.5
c25.333 0 52.666 4 81.999 12s58 23.333 86 46v147h-160c-7.33301 0 -12.166 2.16699 -14.499 6.5s-3.5 10.833 -3.5 19.5v18c0 9.33301 1.16699 16.166 3.5 20.499s7.16602 6.5 14.499 6.5h208c9.33301 0 16 -1.33301 20 -4s6 -8.66699 6 -18v-203
c-0.666992 -14 -6.33398 -26.667 -17.001 -38c-16.667 -18 -35.167 -32.5 -55.5 -43.5s-41.166 -19.833 -62.499 -26.5s-42.333 -11.167 -63 -13.5s-39.667 -3.5 -57 -3.5c-40 0 -78.833 6.66699 -116.5 20s-71 34 -100 62s-52.167 63.333 -69.5 106s-26 93.334 -26 152.001
c3.33301 114 34.166 199.833 92.499 257.5s138.166 86.5 239.499 86.5z" />
    <glyph glyph-name="H" unicode="H" horiz-adv-x="717" 
d="M97 635c0 9.33301 2.5 15.333 7.5 18s12.167 4 21.5 4h22c9.33301 0 16.333 -1.33301 21 -4s7 -8.66699 7 -18v-262h364v262c0 9.33301 2.5 15.333 7.5 18s12.167 4 21.5 4h22c9.33301 0 16.333 -1.33301 21 -4s7 -8.66699 7 -18v-613
c0 -9.33301 -2.33301 -15.333 -7 -18s-11.667 -4 -21 -4h-22c-9.33301 -0 -16.5 1.33301 -21.5 4s-7.5 8.66699 -7.5 18v277h-364v-277c0 -9.33301 -2.33301 -15.333 -7 -18s-11.667 -4 -21 -4h-22c-9.33301 -0 -16.5 1.33301 -21.5 4s-7.5 8.66699 -7.5 18v613z" />
    <glyph glyph-name="I" unicode="I" horiz-adv-x="270" 
d="M95 635c0 9.33301 2.5 15.333 7.5 18s12.167 4 21.5 4h22c9.33301 0 16.333 -1.33301 21 -4s7 -8.66699 7 -18v-613c0 -9.33301 -2.33301 -15.333 -7 -18s-11.667 -4 -21 -4h-22c-9.33301 -0 -16.5 1.33301 -21.5 4s-7.5 8.66699 -7.5 18v613z" />
    <glyph glyph-name="J" unicode="J" horiz-adv-x="278" 
d="M182 172c0 -35.333 -1.33105 -68.501 -3.99805 -99.501s-8.83398 -59.5 -18.501 -85.5s-23.834 -50 -42.501 -72s-44.334 -41.667 -77.001 -59c-7.33301 -3.33301 -13 -2 -17 4l-27 34c-2.66699 3.33301 -3.5 7 -2.5 11s3.16699 7 6.5 9
c26 16.667 45.833 33.834 59.5 51.501s23.834 36 30.501 55s10.5 38.667 11.5 59s1.5 41.833 1.5 64.5v491c0 9.33301 2.5 15.333 7.5 18s12.167 4 21.5 4h22c9.33301 0 16.333 -1.33301 21 -4s7 -8.66699 7 -18v-463z" />
    <glyph glyph-name="K" unicode="K" horiz-adv-x="594" 
d="M97 635c0 9.33301 2.50195 15.332 7.50195 17.999s12.167 4 21.5 4h22c9.33301 0 16.333 -1.33301 21 -4s7 -8.66699 7 -18v-265h117l174 263c5.33301 7.33301 10.666 13.166 15.999 17.499s13.666 6.5 24.999 6.5h36c6.66699 0 11.167 -2.5 13.5 -7.5
s1.83301 -10.5 -1.5 -16.5l-194 -291l224 -318c3.33301 -5.33301 3.66602 -10.666 0.999023 -15.999s-7 -8 -13 -8h-43c-8.66699 0 -16.5 1.33301 -23.5 4s-13.5 8.33398 -19.5 17.001l-170 247c-6.66699 9.33301 -14.167 17.333 -22.5 24s-18.166 10 -29.499 10h-90v-280
c0 -9.33301 -2.33301 -15.333 -7 -18s-11.667 -4 -21 -4h-22c-9.33301 -0 -16.5 1.33301 -21.5 4s-7.5 8.66699 -7.5 18v613z" />
    <glyph glyph-name="L" unicode="L" horiz-adv-x="504" 
d="M126 0c-9.33301 0 -16.5 1.33301 -21.5 4s-7.5 8.66699 -7.5 18v613c0 9.33301 2.5 15.333 7.5 18s12.167 4 21.5 4h22c9.33301 0 16.333 -1.33301 21 -4s7 -8.66699 7 -18v-555h313c9.33301 0 15.333 -2.33301 18 -7s4 -11.667 4 -21v-23
c0 -9.33301 -1.33301 -16.5 -4 -21.5s-8.66699 -7.5 -18 -7.5h-363z" />
    <glyph glyph-name="M" unicode="M" horiz-adv-x="858" 
d="M415 6c-12.667 0 -21.334 6 -26.001 18l-158 417l-40 121l1 -122l-16 -418c0 -9.33301 -2.5 -15.333 -7.5 -18s-12.5 -4 -22.5 -4h-19c-9.33301 -0 -16.666 1.33301 -21.999 4s-8 8.66699 -8 18l24 613c0 9.33301 2.66699 15.333 8 18s13 4 23 4h50
c16.667 0 27.667 -7.66699 33 -23l200 -534l193 534c5.33301 15.333 16.333 23 33 23h52c10 0 17.667 -1.33301 23 -4s8 -8.66699 8 -18l24 -613c0 -9.33301 -2.66699 -15.333 -8 -18s-12.666 -4 -21.999 -4h-19c-10 -0 -17.5 1.33301 -22.5 4s-7.5 8.66699 -7.5 18l-16 418
l1 122l-40 -121l-157 -417c-4.66699 -12 -13.334 -18 -26.001 -18h-36z" />
    <glyph glyph-name="N" unicode="N" horiz-adv-x="709" 
d="M469 234l77.998 -124l-10 126v399c0 9.33301 2.5 15.333 7.5 18s12.5 4 22.5 4h14c9.33301 0 16.666 -1.33301 21.999 -4s8 -8.66699 8 -18v-613c0 -9.33301 -2.66699 -15.333 -8 -18s-12.666 -4 -21.999 -4h-25c-7.33301 0 -13.666 2.5 -18.999 7.5s-10 10.167 -14 15.5
l-290 409l-71 113l9 -111v-412c0 -9.33301 -2.5 -15.333 -7.5 -18s-12.5 -4 -22.5 -4h-14c-9.33301 -0 -16.666 1.33301 -21.999 4s-8 8.66699 -8 18v613c0 9.33301 2.66699 15.333 8 18s12.666 4 21.999 4h24c6.66699 0 12.834 -2.33301 18.501 -7s10.5 -10 14.5 -16z" />
    <glyph glyph-name="O" unicode="O" horiz-adv-x="750" 
d="M375 60c40 0 75.5 7 106.5 21s57.167 33 78.5 57s37.5 52 48.5 84s16.5 66 16.5 102c0 37.333 -5.33301 72.666 -16 105.999s-26.5 62.5 -47.5 87.5s-47.167 44.833 -78.5 59.5s-67.333 22 -108 22c-40 0 -75.5 -7 -106.5 -21s-57.167 -33 -78.5 -57s-37.5 -52 -48.5 -84
s-16.5 -66 -16.5 -102c0 -37.333 5.33301 -72.666 16 -105.999s26.5 -62.5 47.5 -87.5s47 -44.833 78 -59.5s67.167 -22 108.5 -22zM375 -13c-50 0 -95.334 8.66699 -136.001 26s-75.5 41.166 -104.5 71.499s-51.333 66.333 -67 108s-23.5 87.167 -23.5 136.5
c0 46 7.66699 89.833 23 131.5s37.333 78 66 109s63.334 55.667 104.001 74s86.667 27.5 138 27.5c50 0 95.333 -8.66699 136 -26s75.5 -41.166 104.5 -71.499s51.333 -66.5 67 -108.5s23.5 -87.333 23.5 -136c0 -46 -7.66699 -89.833 -23 -131.5s-37.333 -78 -66 -109
s-63.5 -55.667 -104.5 -74s-86.833 -27.5 -137.5 -27.5z" />
    <glyph glyph-name="P" unicode="P" horiz-adv-x="568" 
d="M97 635c0 9.33301 2.50098 15.334 7.50098 18.001s12.167 4 21.5 4h160c48.667 0 89.667 -5.33301 123 -16s60.166 -25.334 80.499 -44.001s34.833 -40.5 43.5 -65.5s13 -51.833 13 -80.5c0 -32 -5.16699 -61.333 -15.5 -88s-26.5 -49.667 -48.5 -69
s-50.5 -34.5 -85.5 -45.5s-77.167 -16.833 -126.5 -17.5c-15.333 0 -31 0.333008 -47 1s-31.667 1.66699 -47 3v-213c0 -9.33301 -2.33301 -15.333 -7 -18s-11.667 -4 -21 -4h-22c-9.33301 -0 -16.5 1.33301 -21.5 4s-7.5 8.66699 -7.5 18v613zM259.001 302.001
c38 0 70.3301 3.83301 96.9971 11.5s48.334 18 65.001 31s28.834 28.5 36.501 46.5s11.5 37 11.5 57c0 40.667 -14.5 73.667 -43.5 99s-75.167 38 -138.5 38h-111v-277c12.667 -2 26.334 -3.5 41.001 -4.5s28.667 -1.5 42 -1.5z" />
    <glyph glyph-name="Q" unicode="Q" horiz-adv-x="744" 
d="M323 -9c-42 5.33301 -80.168 17.502 -114.501 36.502s-63.666 43.167 -87.999 72.5s-43.166 63.166 -56.499 101.499s-20 79.833 -20 124.5c0 45.333 7.66699 88.833 23 130.5s37.166 78.334 65.499 110.001s62.833 57 103.5 76s86.667 28.5 138 28.5
c50 0 95.333 -8.5 136 -25.5s75.167 -40.5 103.5 -70.5s50.333 -65.833 66 -107.5s23.5 -86.834 23.5 -135.501c0 -42 -6.33301 -82 -19 -120s-30.5 -72 -53.5 -102s-50.333 -55 -82 -75s-66.5 -33.333 -104.5 -40c10 -11.333 23.667 -22.833 41 -34.5
s36.5 -22.334 57.5 -32.001s42.667 -17.5 65 -23.5s43.166 -9 62.499 -9c12.667 0 25 1.66699 37 5s24.333 9.33301 37 18c6 3.33301 11 2 15 -4c5.33301 -12 8 -22.667 8 -32c0 -12 -3.16699 -22.167 -9.5 -30.5s-14.5 -15 -24.5 -20s-21.333 -8.5 -34 -10.5s-25 -3 -37 -3
c-28 0 -55 4 -81 12s-50.667 18.667 -74 32s-45.333 28.833 -66 46.5s-39.667 36.167 -57 55.5c-13.333 13.333 -33.666 22 -60.999 26zM373.999 60.002c40 0 75.333 6.83398 106 20.501s56.5 32.5 77.5 56.5s37 52 48 84s16.5 66 16.5 102
c0 37.333 -5.16699 72.666 -15.5 105.999s-26 62.666 -47 87.999s-47 45.333 -78 60s-66.833 22 -107.5 22c-40 0 -75.5 -7 -106.5 -21s-57 -33 -78 -57s-37 -52 -48 -84s-16.5 -66 -16.5 -102c0 -37.333 5.16699 -72.666 15.5 -105.999s26 -62.5 47 -87.5
s47 -44.833 78 -59.5s67.167 -22 108.5 -22z" />
    <glyph glyph-name="R" unicode="R" horiz-adv-x="593" 
d="M565 24c3.33301 -5.33301 3.66797 -10.667 1.00098 -16s-7 -8 -13 -8h-37c-13.333 -0 -22.833 1.33301 -28.5 4s-10.5 7.66699 -14.5 15l-124 208c-13.333 22.667 -30.333 34 -51 34h-122v-239c0 -9.33301 -2.33301 -15.333 -7 -18s-11.667 -4 -21 -4h-22
c-9.33301 -0 -16.5 1.33301 -21.5 4s-7.5 8.66699 -7.5 18v613c0 9.33301 2.5 15.333 7.5 18s12.167 4 21.5 4h157c45.333 0 84.333 -5 117 -15s59.667 -24 81 -42s37 -39.167 47 -63.5s15 -50.833 15 -79.5c0 -46.667 -12.833 -84.667 -38.5 -114s-58.834 -51 -99.501 -65z
M293.002 330.999c60.667 0 104.667 11.5 132 34.5s41 53.5 41 91.5c0 42.667 -15.5 74.667 -46.5 96s-81.167 32 -150.5 32h-93v-254h117z" />
    <glyph glyph-name="S" unicode="S" horiz-adv-x="534" 
d="M473 581c0 -5.33301 -2.00684 -11.666 -6.00684 -18.999s-10 -13.333 -18 -18c-4 -2 -9 -1 -15 3c-19.333 12 -43.333 23.5 -72 34.5s-58.334 16.5 -89.001 16.5c-17.333 0 -34.333 -1.66699 -51 -5s-31.5 -8.83301 -44.5 -16.5s-23.5 -17.334 -31.5 -29.001
s-12 -25.834 -12 -42.501c0 -23.333 8.83301 -42.666 26.5 -57.999s39.834 -29.333 66.501 -42s55.667 -25.334 87 -38.001s60.333 -27.834 87 -45.501s48.834 -39.167 66.501 -64.5s26.5 -57 26.5 -95c0 -24.667 -4.66699 -47.667 -14 -69s-23.833 -39.833 -43.5 -55.5
s-44.5 -28 -74.5 -37s-65.667 -13.5 -107 -13.5c-23.333 0 -46.833 2 -70.5 6s-45 9.83301 -64 17.5s-34.667 17.167 -47 28.5s-18.5 24 -18.5 38c0 7.33301 1.5 14.5 4.5 21.5s8.16699 12.167 15.5 15.5c4.66699 2 9.33398 1.66699 14.001 -1
c22 -13.333 48.833 -24.833 80.5 -34.5s64.834 -14.5 99.501 -14.5c16 0 32.333 1.83301 49 5.5s31.834 9.33398 45.501 17.001s25 17.667 34 30s13.5 27.5 13.5 45.5c0 27.333 -8.83301 49.666 -26.5 66.999s-39.834 32.666 -66.501 45.999s-55.5 25.833 -86.5 37.5
s-59.667 25.334 -86 41.001s-48.166 34.834 -65.499 57.501s-25.666 51.334 -24.999 86.001c0.666992 32 7.33398 59.167 20.001 81.5s29 40.333 49 54s42.833 23.5 68.5 29.5s51.834 9 78.501 9c26 0 51.167 -2.5 75.5 -7.5s45.833 -11.5 64.5 -19.5s33.667 -17.5 45 -28.5
s17 -22.5 17 -34.5z" />
    <glyph glyph-name="T" unicode="T" horiz-adv-x="506" 
d="M214 584h-200c-8 0 -13.167 2.16699 -15.5 6.5s-3.5 11.166 -3.5 20.499v18c0 9.33301 1.16699 16.333 3.5 21s7.5 7 15.5 7h478c8 0 13.167 -2.33301 15.5 -7s3.5 -11.667 3.5 -21v-18c0 -9.33301 -1.16699 -16.166 -3.5 -20.499s-7.5 -6.5 -15.5 -6.5h-199v-562
c0 -9.33301 -2.33301 -15.333 -7 -18s-11.667 -4 -21 -4h-22c-9.33301 -0 -16.5 1.33301 -21.5 4s-7.5 8.66699 -7.5 18v562z" />
    <glyph glyph-name="U" unicode="U" horiz-adv-x="699" 
d="M605 327c0 -115.333 -21.332 -200.837 -63.999 -256.504s-108 -83.5 -196 -83.5c-84.667 0 -147.834 27.833 -189.501 83.5s-62.5 141.167 -62.5 256.5v308c0 9.33301 2.5 15.333 7.5 18s12.167 4 21.5 4h19c10 0 17.5 -1.33301 22.5 -4s7.5 -8.66699 7.5 -18v-317
c0 -46 4 -85.167 12 -117.5s19.5 -58.666 34.5 -78.999s33.5 -35.166 55.5 -44.499s47 -14 75 -14c25.333 0 49 4.16699 71 12.5s41 22.333 57 42s28.5 45.334 37.5 77.001s13.5 70.834 13.5 117.501v323c0 9.33301 2.5 15.333 7.5 18s12.5 4 22.5 4h19
c9.33301 0 16.5 -1.33301 21.5 -4s7.5 -8.66699 7.5 -18v-308z" />
    <glyph glyph-name="V" unicode="V" horiz-adv-x="584" 
d="M268 0c-5.33301 0 -11 1.16699 -17 3.5s-10.667 8.5 -14 18.5l-215 613c-4 14.667 0.666992 22 14 22h44c6.66699 0 12.5 -1.16699 17.5 -3.5s8.83301 -7.16602 11.5 -14.499l189 -566l182 566c2.66699 7.33301 6.5 12.166 11.5 14.499s10.833 3.5 17.5 3.5h40
c13.333 0 18 -7.33301 14 -22l-212 -613c-3.33301 -10 -8 -16.167 -14 -18.5s-11.667 -3.5 -17 -3.5h-52z" />
    <glyph glyph-name="W" unicode="W" horiz-adv-x="914" 
d="M488 657c5.33301 0 11 -1.5 17 -4.5s10.333 -10.167 13 -21.5l136 -558l147 566c2.66699 7.33301 6.5 12.166 11.5 14.499s10.833 3.5 17.5 3.5h39c13.333 0 18 -7.33301 14 -22l-177 -609c-3.33301 -11.333 -7.83301 -18.5 -13.5 -21.5s-11.167 -4.5 -16.5 -4.5h-53
c-5.33301 0 -10.833 1.33301 -16.5 4s-10.5 10 -14.5 22l-117 458l-16 106l-21 -106l-117 -458c-4 -12 -8.83301 -19.333 -14.5 -22s-11.167 -4 -16.5 -4h-58c-5.33301 0 -10.833 1.5 -16.5 4.5s-10.167 10.167 -13.5 21.5l-170 609c-4 14.667 0.666992 22 14 22h43
c6.66699 0 12.5 -1.16699 17.5 -3.5s8.83301 -7.16602 11.5 -14.499l146 -566l138 558c3.33301 11.333 7.83301 18.5 13.5 21.5s11.167 4.5 16.5 4.5h56z" />
    <glyph glyph-name="X" unicode="X" horiz-adv-x="578" 
d="M552 21c3.33301 -4.66699 4.16602 -9.33398 2.49902 -14.001s-6.5 -7 -14.5 -7h-41c-8.66699 0 -16.334 0.833008 -23.001 2.5s-12.667 6.83398 -18 15.501l-175 259l-165 -257c-5.33301 -8.66699 -10 -14.167 -14 -16.5s-9.66699 -3.5 -17 -3.5h-49
c-5.33301 0 -9.5 2 -12.5 6s-2.83301 9 0.5 15l213 321l-197 294c-3.33301 4.66699 -4.16602 9.33398 -2.49902 14.001s6.5 7 14.5 7h41c8.66699 0 16.334 -0.833008 23.001 -2.5s12.667 -6.83398 18 -15.501l161 -239l152 237c5.33301 8.66699 10 14.167 14 16.5
s9.66699 3.5 17 3.5h49c5.33301 0 9.5 -2 12.5 -6s2.83301 -9 -0.5 -15l-200 -302z" />
    <glyph glyph-name="Y" unicode="Y" horiz-adv-x="523" 
d="M253 0c-9.33301 0 -16.5 1.33301 -21.5 4s-7.5 8.66699 -7.5 18v250l-221 362c-3.33301 5.33301 -4 10.5 -2 15.5s6.66699 7.5 14 7.5h50c5.33301 0 10 -1 14 -3s8 -6.33301 12 -13l174 -291l172 291c4 6.66699 8 11 12 13s8.66699 3 14 3h50c7.33301 0 12 -2.5 14 -7.5
s1.33301 -10.167 -2 -15.5l-221 -362v-250c0 -9.33301 -2.5 -15.333 -7.5 -18s-12.167 -4 -21.5 -4h-22z" />
    <glyph glyph-name="Z" unicode="Z" horiz-adv-x="547" 
d="M414 582l-345 -0.000976562c-8 0 -13.167 2.16699 -15.5 6.5s-3.5 11.166 -3.5 20.499v20c0 9.33301 1.16699 16.333 3.5 21s7.5 7 15.5 7h413c4 0 7.5 -1.83301 10.5 -5.5s4.5 -7.83398 4.5 -12.501v-49c0 -14.667 -4.66699 -28.667 -14 -42l-350 -473h367
c8 0 13.167 -2.16699 15.5 -6.5s3.5 -11.166 3.5 -20.499v-20c0 -9.33301 -1.16699 -16.333 -3.5 -21s-7.5 -7 -15.5 -7h-435c-4 0 -7.5 1.83301 -10.5 5.5s-4.5 7.83398 -4.5 12.501v49c0 14.667 4.66699 28.334 14 41.001z" />
    <glyph glyph-name="bracketleft" unicode="[" horiz-adv-x="332" 
d="M272 -114c9.33301 0 15.333 -2.33105 18 -6.99805s4 -11.334 4 -20.001v-12c0 -9.33301 -1.33301 -16.166 -4 -20.499s-8.66699 -6.5 -18 -6.5h-160c-9.33301 0 -15.333 2.16699 -18 6.5s-4 11.166 -4 20.499v854c0 9.33301 1.33301 16.166 4 20.499s8.66699 6.5 18 6.5
h160c9.33301 0 15.333 -2.16699 18 -6.5s4 -11.166 4 -20.499v-12c0 -8.66699 -1.33301 -15.334 -4 -20.001s-8.66699 -7 -18 -7h-111v-776h111z" />
    <glyph glyph-name="backslash" unicode="\" horiz-adv-x="413" 
d="M456 -79c6.66699 -14.667 2 -22 -14 -22h-39c-8 0 -13.833 1.33301 -17.5 4s-7.16699 7.66699 -10.5 15l-352 716c-6.66699 15.333 -2 23 14 23h40c7.33301 0 12.833 -1.5 16.5 -4.5s7.16699 -8.16699 10.5 -15.5z" />
    <glyph glyph-name="bracketright" unicode="]" horiz-adv-x="332" 
d="M171 -114v775.998h-111c-9.33301 0 -15.333 2.33301 -18 7s-4 11.334 -4 20.001v12c0 9.33301 1.33301 16.166 4 20.499s8.66699 6.5 18 6.5h160c9.33301 0 15.333 -2.16699 18 -6.5s4 -11.166 4 -20.499v-854c0 -9.33301 -1.33301 -16.166 -4 -20.499
s-8.66699 -6.5 -18 -6.5h-160c-9.33301 0 -15.333 2.16699 -18 6.5s-4 11.166 -4 20.499v12c0 8.66699 1.33301 15.334 4 20.001s8.66699 7 18 7h111z" />
    <glyph glyph-name="asciicircum" unicode="^" horiz-adv-x="416" 
d="M233 714l176.997 -241c5.33301 -7.33301 6.83301 -13.5 4.5 -18.5s-8.16602 -7.5 -17.499 -7.5h-36c-6.66699 0.666992 -12 2.16699 -16 4.5s-8.66699 6.83301 -14 13.5l-85 113l-38 70l-38 -70l-85 -113c-5.33301 -6.66699 -10 -11.167 -14 -13.5
s-9.33301 -3.83301 -16 -4.5h-36c-9.33301 0 -15.166 2.5 -17.499 7.5s-0.833008 11.167 4.5 18.5l177 241c7.33301 8.66699 15.833 13 25.5 13s17.834 -4.33301 24.501 -13z" />
    <glyph glyph-name="underscore" unicode="_" horiz-adv-x="492" 
d="M439 -139c13.333 0 22 -2.16699 26 -6.5s6 -11.166 6 -20.499v-13c0 -8.66699 -2 -15.334 -6 -20.001s-12.667 -7 -26 -7h-386c-14 0 -22.833 2.16699 -26.5 6.5s-5.5 11.166 -5.5 20.499v13c0 8.66699 1.83301 15.334 5.5 20.001s12.5 7 26.5 7h386z" />
    <glyph glyph-name="grave" unicode="`" horiz-adv-x="295" 
d="M213 560c4 -8.66699 1.66895 -12.999 -6.99805 -12.999h-30c-6.66699 0 -12.334 2.33301 -17.001 7l-107 114c-6 7.33301 -9 13.666 -9 18.999c0 8.66699 4.66699 13 14 13h62c8.66699 0 15.167 -1.5 19.5 -4.5s8.16602 -7.83301 11.499 -14.5z" />
    <glyph glyph-name="a" unicode="a" horiz-adv-x="503" 
d="M453 22c0 -9.33301 -2.50391 -15.3311 -7.50391 -17.998s-12.833 -4 -23.5 -4h-9c-10 0 -17.167 1.16699 -21.5 3.5s-7.16602 8.5 -8.49902 18.5l-5 44c-21.333 -25.333 -47.333 -44.833 -78 -58.5s-63 -20.5 -97 -20.5c-27.333 0 -50.5 3.83301 -69.5 11.5
s-34.833 18 -47.5 31s-21.834 27.833 -27.501 44.5s-8.5 33.667 -8.5 51c0 27.333 5.33301 51.166 16 71.499s25.5 37.166 44.5 50.499s41.333 23.333 67 30s53.834 10 84.501 10c19.333 0 39.5 -1.33301 60.5 -4s39.167 -5.66699 54.5 -9v66
c0 16.667 -3.5 30.167 -10.5 40.5s-16.333 18.5 -28 24.5s-24.5 10.167 -38.5 12.5s-28 3.5 -42 3.5c-27.333 0 -54.333 -3.66699 -81 -11s-52 -16.333 -76 -27c-3.33301 -1.33301 -6.16602 -1.83301 -8.49902 -1.5s-4.83301 2.5 -7.5 6.5
c-3.33301 4.66699 -6 9.66699 -8 15s-3 10.333 -3 15c0 14 6.66699 26 20 36s29.833 18 49.5 24s40.334 10.333 62.001 13s40.834 4 57.501 4c35.333 0 65 -4 89 -12s43.5 -19 58.5 -33s25.833 -31 32.5 -51s10 -42 10 -66v-311zM376.996 205.002
c-6 2.66699 -13.834 4.99902 -23.501 6.99902s-20 3.66699 -31 5s-22.333 2.5 -34 3.5s-22.5 1.5 -32.5 1.5c-86 0 -129 -31.333 -129 -94c0 -20.667 6.83301 -38 20.5 -52s35.5 -21 65.5 -21c16.667 0 33.5 2.5 50.5 7.5s32.833 11.833 47.5 20.5
s27.834 18.334 39.501 29.001s20.5 21.667 26.5 33v60z" />
    <glyph glyph-name="b" unicode="b" horiz-adv-x="565" 
d="M83 696c0 9.33301 2.66895 15.335 8.00195 18.002s13 4 23 4h15c10.667 0 18.5 -1.33301 23.5 -4s7.5 -8.66699 7.5 -18v-244c21.333 15.333 44.666 26.666 69.999 33.999s51.666 11 78.999 11c36 0 68.333 -6.33301 97 -19s53 -30 73 -52s35.167 -47.667 45.5 -77
s15.5 -61 15.5 -95c0 -40.667 -7 -77.5 -21 -110.5s-33.5 -61 -58.5 -84s-54.5 -40.833 -88.5 -53.5s-71.333 -19 -112 -19c-30 0 -59 3.16699 -87 9.5s-54.333 15.166 -79 26.499c-3.33301 1.33301 -6 3 -8 5s-3 6.66699 -3 14v654zM264.002 61.002
c28 0 54.002 4.33203 78.002 12.999s44.5 21.167 61.5 37.5s30.333 36.5 40 60.5s14.5 51.667 14.5 83c0 58 -14 101 -42 129s-65.333 42 -112 42c-27.333 0 -53.5 -4.66699 -78.5 -14s-46.833 -22.666 -65.5 -39.999v-294c17.333 -6 34.666 -10.333 51.999 -13
s34.666 -4 51.999 -4z" />
    <glyph glyph-name="c" unicode="c" horiz-adv-x="475" 
d="M308 497c14 0 30.501 -1.33691 49.501 -4.00391s37 -7 54 -13s31.5 -14 43.5 -24s18 -22.333 18 -37c0 -8.66699 -2.33301 -17.667 -7 -27c-4 -6.66699 -9.33301 -8.33398 -16 -5.00098c-25.333 12.667 -49.833 22.167 -73.5 28.5s-47.5 9.5 -71.5 9.5
c-56.667 0 -99 -16.667 -127 -50s-42 -77.666 -42 -132.999c0 -56.667 15 -101.667 45 -135s72 -50 126 -50c21.333 0 42.5 2.83301 63.5 8.5s43.833 16.167 68.5 31.5c5.33301 3.33301 9.66602 4.33301 12.999 3s6.33301 -3.66602 9 -6.99902l16 -21
c4 -5.33301 5.66699 -10.166 5 -14.499s-4.33398 -9.16602 -11.001 -14.499c-24 -19.333 -50.833 -33.5 -80.5 -42.5s-59.5 -13.5 -89.5 -13.5c-78.667 0 -139.167 22.833 -181.5 68.5s-63.5 107.834 -63.5 186.501c0 82 22.333 145 67 189s106.334 66 185.001 66z" />
    <glyph glyph-name="d" unicode="d" horiz-adv-x="577" 
d="M322 427c-26 0 -50.166 -4.00391 -72.499 -12.0039s-41.833 -20.333 -58.5 -37s-29.667 -38 -39 -64s-14 -57 -14 -93c0 -23.333 2.66699 -44.833 8 -64.5s14 -36.667 26 -51s27.167 -25.666 45.5 -33.999s40.5 -12.5 66.5 -12.5c18 0.666992 35.167 4.33398 51.5 11.001
s31.5 15.334 45.5 26.001s26.5 22.834 37.5 36.501s20.5 27.5 28.5 41.5v225c-20.667 8 -41.334 14.667 -62.001 20s-41.667 8 -63 8zM56.001 230.996c0 42 6.5 79.499 19.5 112.499s31 60.833 54 83.5s50.5 40 82.5 52s67 18 105 18c22.667 0 44.667 -2.33301 66 -7
s42.666 -11 63.999 -19v225c0 9.33301 2.5 15.333 7.5 18s12.833 4 23.5 4h14c10 0 17.667 -1.33301 23 -4s8 -8.66699 8 -18v-674c0 -9.33301 -2.5 -15.333 -7.5 -18s-12.833 -4 -23.5 -4h-9c-10 0 -17.167 1.16699 -21.5 3.5s-7.16602 8.5 -8.49902 18.5l-6 52
c-23.333 -30 -50.5 -52 -81.5 -66s-64.5 -21 -100.5 -21c-28.667 0 -55.5 4.66699 -80.5 14s-47 24 -66 44s-34.167 45.333 -45.5 76s-17 67.334 -17 110.001z" />
    <glyph glyph-name="e" unicode="e" horiz-adv-x="530" 
d="M295 497c34 0 63.998 -4.66602 89.998 -13.999s47.667 -22.5 65 -39.5s30.5 -37.5 39.5 -61.5s13.5 -50 13.5 -78c0 -13.333 -0.666992 -25.5 -2 -36.5s-3.33301 -22.167 -6 -33.5c-1.33301 -6 -4 -9.83301 -8 -11.5s-8.66699 -2.5 -14 -2.5h-338
c0.666992 -28.667 5.83398 -53.167 15.501 -73.5s22.334 -37 38.001 -50s33.5 -22.5 53.5 -28.5s40.667 -9 62 -9c24 0 48.5 2.83301 73.5 8.5s48.5 12.834 70.5 21.501c10 3.33301 17.333 -0.666992 22 -12l10 -23c3.33301 -7.33301 3.5 -12.833 0.5 -16.5
s-6.16699 -6.16699 -9.5 -7.5c-26.667 -14 -55.167 -24.667 -85.5 -32s-61.166 -11 -92.499 -11s-61.333 5 -90 15s-53.834 25.167 -75.501 45.5s-39 46.166 -52 77.499s-19.5 68.666 -19.5 111.999c0 36.667 5.16699 70.834 15.5 102.501s25.5 59.167 45.5 82.5
s44.833 41.666 74.5 54.999s64.167 20 103.5 20zM429.998 310.001c0 18.667 -3.33301 35.335 -10 50.002s-16 27.167 -28 37.5s-26.167 18.166 -42.5 23.499s-33.833 8 -52.5 8c-42.667 0 -78.5 -11.333 -107.5 -34s-47.167 -58.334 -54.5 -107.001h295v22z" />
    <glyph glyph-name="f" unicode="f" horiz-adv-x="337" 
d="M207 484l131.996 0.00195312c9.33301 0 14 -4.66699 14 -14v-36c0 -9.33301 -4.66699 -14 -14 -14h-132v-398c0 -9.33301 -2.66699 -15.333 -8 -18s-13 -4 -23 -4h-14c-10.667 0 -18.5 1.33301 -23.5 4s-7.5 8.66699 -7.5 18v398l-74 5c-4 0 -7.33301 1.5 -10 4.5
s-4 6.5 -4 10.5v18c0 9.33301 4.66699 14.666 14 15.999l74 10v28c0.666992 68 17.667 119.833 51 155.5s80.333 53.5 141 53.5c8.66699 0 18.334 -0.5 29.001 -1.5s20.334 -3.5 29.001 -7.5s16 -9.5 22 -16.5s9 -16.5 9 -28.5v-9c0 -8.66699 -4.33301 -12.334 -13 -11.001
c-11.333 1.33301 -22.166 2.33301 -32.499 3s-20.166 1 -29.499 1c-45.333 0 -78.333 -11.833 -99 -35.5s-31 -58.167 -31 -103.5v-28z" />
    <glyph glyph-name="g" unicode="g" horiz-adv-x="554" 
d="M190 -18c-13.333 -11.333 -23.501 -24.5 -30.501 -39.5s-10.5 -29.833 -10.5 -44.5c0 -32 15 -55.833 45 -71.5s68.333 -23.5 115 -23.5c24 0 45.833 2.16699 65.5 6.5s36.5 10.5 50.5 18.5s24.833 17.333 32.5 28s11.5 22.667 11.5 36c0 14 -4.5 25.5 -13.5 34.5
s-21.167 16.167 -36.5 21.5s-32.666 9.33301 -51.999 12s-39.333 5 -60 7l-61.5 6c-20.333 2 -38.833 5 -55.5 9zM290.999 141c-27.333 0 -52.0039 3 -74.0039 9c-16 -4.66699 -27.667 -12.334 -35 -23.001s-11 -21 -11 -31c0 -18.667 9.16699 -31.834 27.5 -39.501
s41.333 -13 69 -16s57.667 -5.66699 90 -8s62.333 -7.66602 90 -15.999s50.667 -21.666 69 -39.999s27.5 -44.833 27.5 -79.5c-0.666992 -26 -7 -49 -19 -69s-28.333 -36.833 -49 -50.5s-45 -23.834 -73 -30.501s-58.333 -10 -91 -10c-30 0 -59.167 2.66699 -87.5 8
s-53.666 14 -75.999 26s-40.166 27.333 -53.499 46s-20 41.334 -20 68.001c0 21.333 5.5 43.166 16.5 65.499s27.167 39.166 48.5 50.499c-12 9.33301 -21.5 20.5 -28.5 33.5s-10.5 26.833 -10.5 41.5c0 19.333 5.33301 38 16 56s25.667 31.333 45 40
c-26.667 15.333 -47.167 35.5 -61.5 60.5s-21.5 53.5 -21.5 85.5c0 26.667 5 51 15 73s24.167 40.833 42.5 56.5s40.5 27.834 66.5 36.501s55.333 13 88 13c34.667 0 65.5 -4.66699 92.5 -14s49.833 -22.666 68.5 -39.999c3.33301 8.66699 7.5 17.334 12.5 26.001
s10.833 16.667 17.5 24s14.334 13.333 23.001 18s18.334 7 29.001 7c13.333 0 24.5 -4.33301 33.5 -13s14.167 -19 15.5 -31c0 -4.66699 -3 -8 -9 -10c-20 -5.33301 -37.333 -13.5 -52 -24.5s-27 -23.833 -37 -38.5c13.333 -24.667 20 -52.334 20 -83.001
c0 -26 -5 -50 -15 -72s-24.333 -40.667 -43 -56s-41.167 -27.333 -67.5 -36s-55.833 -13 -88.5 -13zM290.995 438c-43.333 0 -76.5 -10.8311 -99.5 -32.498s-34.5 -50.834 -34.5 -87.501c0 -36 11.833 -64.667 35.5 -86s56.5 -32 98.5 -32c44 0 77.833 11 101.5 33
s35.5 50.333 35.5 85c0 37.333 -11.833 66.666 -35.5 87.999s-57.5 32 -101.5 32z" />
    <glyph glyph-name="h" unicode="h" horiz-adv-x="572" 
d="M160 432c24.667 19.333 52 35.002 82 47.002s60 18 90 18c34.667 0 63.834 -5 87.501 -15s42.834 -23.333 57.501 -40s25.167 -35.834 31.5 -57.501s9.5 -43.834 9.5 -66.501v-296c0 -9.33301 -2.5 -15.333 -7.5 -18s-12.833 -4 -23.5 -4h-15
c-10 -0 -17.5 1.33301 -22.5 4s-7.5 8.66699 -7.5 18v274c0 16 -1.66699 31.833 -5 47.5s-9.33301 29.667 -18 42s-20.334 22.333 -35.001 30s-33.334 11.5 -56.001 11.5c-30.667 0 -60 -5.83301 -88 -17.5s-54.667 -28.167 -80 -49.5v-338
c0 -9.33301 -2.5 -15.333 -7.5 -18s-12.833 -4 -23.5 -4h-15c-10 -0 -17.667 1.33301 -23 4s-8 8.66699 -8 18v674c0 9.33301 2.5 15.333 7.5 18s12.833 4 23.5 4h15c10 0 17.667 -1.33301 23 -4s8 -8.66699 8 -18v-264z" />
    <glyph glyph-name="i" unicode="i" horiz-adv-x="251" 
d="M103 462c0 9.33301 2.33301 15.333 7 18s12 4 22 4h18c9.33301 0 16.5 -1.33301 21.5 -4s7.5 -8.66699 7.5 -18v-440c0 -9.33301 -2.5 -15.333 -7.5 -18s-12.167 -4 -21.5 -4h-18c-10 -0 -17.333 1.33301 -22 4s-7 8.66699 -7 18v440zM140 585
c-14.667 0 -27.834 4.49902 -39.501 13.499s-17.5 22.833 -17.5 41.5s5.83301 32.834 17.5 42.501s24.834 14.5 39.501 14.5c14 0 27 -4.5 39 -13.5s18 -22.833 18 -41.5c0 -19.333 -6 -33.5 -18 -42.5s-25 -13.833 -39 -14.5z" />
    <glyph glyph-name="j" unicode="j" horiz-adv-x="249" 
d="M103 462c0 9.33301 2.33398 15.333 7.00098 18s12 4 22 4h18c9.33301 0 16.5 -1.33301 21.5 -4s7.5 -8.66699 7.5 -18v-525c0 -28 -1.5 -54 -4.5 -78s-9.33301 -45 -19 -63s-23.334 -32.167 -41.001 -42.5s-41.167 -15.166 -70.5 -14.499
c-16.667 0.666992 -31.5 5.16699 -44.5 13.5s-19.5 21.833 -19.5 40.5c0 7.33301 4.33301 10.333 13 9l12 -1c22 0.666992 39.333 4 52 10s22.5 14.333 29.5 25s11.5 23.667 13.5 39s3 32.666 3 51.999v535zM140.001 585c-14.667 0 -27.834 4.49902 -39.501 13.499
s-17.5 22.833 -17.5 41.5s5.83301 32.834 17.5 42.501s24.834 14.5 39.501 14.5c14 0 27 -4.5 39 -13.5s18 -22.833 18 -41.5c0 -19.333 -6 -33.5 -18 -42.5s-25 -13.833 -39 -14.5z" />
    <glyph glyph-name="k" unicode="k" horiz-adv-x="485" 
d="M246 286l141 181.001c5.33301 6 10 10.333 14 13s9.66699 4 17 4h50c6.66699 0 10 -2.33301 10 -7s-1.66699 -9.66699 -5 -15l-161 -206l119 -159c10.667 -14.667 19.5 -26.334 26.5 -35.001s16.167 -17.667 27.5 -27c5.33301 -5.33301 8.5 -9.83301 9.5 -13.5
s-0.833008 -8.16699 -5.5 -13.5c-6 -5.33301 -12.833 -8.83301 -20.5 -10.5s-15.167 -2.5 -22.5 -2.5c-29.333 0 -57 18.333 -83 55l-118 169h-85v-197c0 -9.33301 -2.5 -15.333 -7.5 -18s-12.833 -4 -23.5 -4h-15c-10 -0 -17.667 1.33301 -23 4s-8 8.66699 -8 18v674
c0 9.33301 2.5 15.333 7.5 18s12.833 4 23.5 4h15c10 0 17.667 -1.33301 23 -4s8 -8.66699 8 -18v-410h86z" />
    <glyph glyph-name="l" unicode="l" horiz-adv-x="293" 
d="M306 22c0 -6.66699 -2.33203 -11.3311 -6.99902 -13.998c-10.667 -7.33301 -22.667 -12.666 -36 -15.999s-27.333 -5 -42 -5c-32 0 -57.167 5.66699 -75.5 17s-32 26.166 -41 44.499s-14.667 39 -17 62s-3.5 46.167 -3.5 69.5v516c0 9.33301 2.5 15.333 7.5 18
s12.833 4 23.5 4h15c10 0 17.667 -1.33301 23 -4s8 -8.66699 8 -18v-517c0.666992 -24 2.16699 -43.833 4.5 -59.5s6 -28 11 -37s12 -15.333 21 -19s20.167 -5.83398 33.5 -6.50098c9.33301 -0.666992 18.666 0 27.999 2s18.333 4.33301 27 7
c13.333 3.33301 20 -0.333984 20 -11.001v-33z" />
    <glyph glyph-name="m" unicode="m" horiz-adv-x="821" 
d="M169 430c22 21.333 46.4941 37.833 73.4941 49.5s54.833 17.5 83.5 17.5c25.333 0 48.666 -5.83301 69.999 -17.5s39 -30.5 53 -56.5c30.667 29.333 60.334 49 89.001 59s57.334 15 86.001 15c16.667 0 33.5 -2.83301 50.5 -8.5s32.333 -15.167 46 -28.5
s24.834 -31 33.501 -53s13 -49.333 13 -82v-303c0 -9.33301 -2.5 -15.333 -7.5 -18s-12.833 -4 -23.5 -4h-15c-10 -0 -17.5 1.33301 -22.5 4s-7.5 8.66699 -7.5 18v281c0 44 -6.83301 75.667 -20.5 95s-35.167 29 -64.5 29c-25.333 0 -50.166 -6.5 -74.499 -19.5
s-45.166 -28.833 -62.499 -47.5v-338c0 -9.33301 -2.5 -15.333 -7.5 -18s-12.833 -4 -23.5 -4h-15c-10 -0 -17.5 1.33301 -22.5 4s-7.5 8.66699 -7.5 18v281c0 44 -6.83301 75.667 -20.5 95s-35.167 29 -64.5 29c-25.333 0 -50.166 -6.5 -74.499 -19.5
s-45.166 -28.833 -62.499 -47.5v-338c0 -9.33301 -2.5 -15.333 -7.5 -18s-12.833 -4 -23.5 -4h-15c-10 -0 -17.667 1.33301 -23 4s-8 8.66699 -8 18v346c0 25.333 -1.16699 45.5 -3.5 60.5s-4.5 26.167 -6.5 33.5c-2 6 -0.666992 10.667 4 14
c8.66699 6.66699 19.667 10 33 10c14.667 0 25.5 -5.66699 32.5 -17s12.167 -24.333 15.5 -39z" />
    <glyph glyph-name="n" unicode="n" horiz-adv-x="583" 
d="M169 430c24.667 20 52.167 36.1689 82.5 48.502s60.833 18.5 91.5 18.5c34.667 0 63.834 -5 87.501 -15s42.834 -23.333 57.501 -40s25.167 -35.834 31.5 -57.501s9.5 -43.834 9.5 -66.501v-296c0 -9.33301 -2.5 -15.333 -7.5 -18s-12.833 -4 -23.5 -4h-15
c-10 -0 -17.5 1.33301 -22.5 4s-7.5 8.66699 -7.5 18v274c0 16 -1.66699 31.833 -5 47.5s-9.33301 29.667 -18 42s-20.334 22.333 -35.001 30s-33.334 11.5 -56.001 11.5c-30.667 0 -60 -5.83301 -88 -17.5s-54.667 -28.167 -80 -49.5v-338
c0 -9.33301 -2.5 -15.333 -7.5 -18s-12.833 -4 -23.5 -4h-15c-10 -0 -17.667 1.33301 -23 4s-8 8.66699 -8 18v346c0 25.333 -1.16699 45.5 -3.5 60.5s-4.5 26.167 -6.5 33.5c-2 6 -0.666992 10.667 4 14c8.66699 6.66699 19.667 10 33 10c14.667 0 25.5 -5.66699 32.5 -17
s12.167 -24.333 15.5 -39z" />
    <glyph glyph-name="o" unicode="o" horiz-adv-x="581" 
d="M306 57c54 0 95.833 16.667 125.5 50s44.5 78.333 44.5 135s-15 101.667 -45 135s-71.667 50 -125 50c-54 0 -95.833 -16.667 -125.5 -50s-44.5 -78.333 -44.5 -135s15 -101.667 45 -135s71.667 -50 125 -50zM306 -13c-38 0 -72.5 6.16699 -103.5 18.5
s-57.333 29.666 -79 51.999s-38.334 49.166 -50.001 80.499s-17.5 66 -17.5 104s5.83301 72.667 17.5 104s28.334 58.166 50.001 80.499s47.834 39.666 78.501 51.999s65.334 18.5 104.001 18.5c38 0 72.5 -6.16699 103.5 -18.5s57.333 -29.666 79 -51.999
s38.334 -49.166 50.001 -80.499s17.5 -66 17.5 -104s-5.83301 -72.667 -17.5 -104s-28.334 -58.166 -50.001 -80.499s-47.834 -39.666 -78.501 -51.999s-65.334 -18.5 -104.001 -18.5z" />
    <glyph glyph-name="p" unicode="p" horiz-adv-x="577" 
d="M92 368c0 25.333 -1.16895 45.499 -3.50195 60.499s-4.5 26.167 -6.5 33.5c-2 6 -0.666992 10.667 4 14c8.66699 6.66699 19.667 10 33 10c14.667 0 25.5 -5 32.5 -15s12.167 -22.333 15.5 -37c24.667 20 52.167 35.5 82.5 46.5s60.833 16.5 91.5 16.5s59 -5.5 85 -16.5
s48.333 -26.833 67 -47.5s33.167 -46 43.5 -76s15.5 -64.333 15.5 -103c0 -43.333 -7 -81.666 -21 -114.999s-33 -61.333 -57 -84s-51.833 -39.667 -83.5 -51s-65.167 -17 -100.5 -17c-20 0 -40.667 2.16699 -62 6.5s-40.666 10.5 -57.999 18.5v-248
c0 -9.33301 -2.66699 -15.333 -8 -18s-12.666 -4 -21.999 -4h-17c-10.667 0 -18.5 1.33301 -23.5 4s-7.5 8.66699 -7.5 18v604zM469.998 254.999c0 30 -3.66699 55.835 -11 77.502s-17.166 39.5 -29.499 53.5s-27.166 24.333 -44.499 31s-36 10 -56 10
c-14.667 0 -29.334 -1.66699 -44.001 -5s-28.834 -7.83301 -42.501 -13.5s-26.667 -12.334 -39 -20.001s-23.5 -15.834 -33.5 -24.501v-281c17.333 -10 36.5 -16.833 57.5 -20.5s41.833 -5.5 62.5 -5.5c30.667 0 57.167 5.16699 79.5 15.5s41 24.5 56 42.5
s26.167 39 33.5 63s11 49.667 11 77z" />
    <glyph glyph-name="q" unicode="q" horiz-adv-x="561" 
d="M507 -236c0 -9.33301 -2.66602 -15.335 -7.99902 -18.002s-13 -4 -23 -4h-16c-10.667 0 -18.5 1.33301 -23.5 4s-7.5 8.66699 -7.5 18v290c-22.667 -22.667 -47.834 -39.5 -75.501 -50.5s-57.167 -16.5 -88.5 -16.5c-29.333 0 -56.666 4.83301 -81.999 14.5
s-47.333 24.5 -66 44.5s-33.5 45.667 -44.5 77s-16.5 69 -16.5 113c0.666992 40 8 76 22 108s33.167 59.333 57.5 82s53.166 40.167 86.499 52.5s70 18.5 110 18.5c30 0 58.667 -3.16699 86 -9.5s53.333 -15.166 78 -26.499c7.33301 -3.33301 11 -9.66602 11 -18.999v-678z
M138.001 228.998c0 -24.667 2.83203 -47.333 8.49902 -68s14.334 -38.5 26.001 -53.5s26.667 -26.667 45 -35s40.5 -12.5 66.5 -12.5c30 1.33301 57.333 10 82 26s45.667 35.667 63 59v261c-33.333 11.333 -67 17 -101 17c-56.667 0 -102.5 -16.667 -137.5 -50
s-52.5 -81.333 -52.5 -144z" />
    <glyph glyph-name="r" unicode="r" horiz-adv-x="356" 
d="M346 407c-16 6 -32.001 9.00293 -48.001 9.00293c-30 0 -56.667 -9.66699 -80 -29s-39.333 -44.666 -48 -75.999v-289c0 -9.33301 -2.5 -15.333 -7.5 -18s-12.167 -4 -21.5 -4h-18c-10 0 -17.333 1.33301 -22 4s-7 8.66699 -7 18v346c0 25.333 -1.16699 45.5 -3.5 60.5
s-4.5 26.167 -6.5 33.5c-2 6 -0.666992 10.667 4 14c8.66699 6.66699 19.667 10 33 10c8.66699 0 16 -2.5 22 -7.5s10.833 -11.333 14.5 -19s6.5 -15.834 8.5 -24.501s3.33301 -16.667 4 -24c14 23.333 33.5 42.666 58.5 57.999s51.167 23 78.5 23
c8 0 15.833 -0.833008 23.5 -2.5s14.834 -4.33398 21.501 -8.00098s12 -8.16699 16 -13.5s6 -11.333 6 -18c0 -6 -1.33301 -12.333 -4 -19s-6.33398 -13.334 -11.001 -20.001c-3.33301 -4 -7.66602 -5.33301 -12.999 -4z" />
    <glyph glyph-name="s" unicode="s" horiz-adv-x="432" 
d="M228 429c-27.333 0 -48.498 -5.32812 -63.498 -15.9951s-22.5 -24.667 -22.5 -42c0 -14.667 6.66699 -27.334 20 -38.001s29.833 -20.834 49.5 -30.501s41.167 -19.334 64.5 -29.001s45 -21 65 -34s36.667 -28.167 50 -45.5s20 -38 20 -62
c0 -26 -5.16699 -48.167 -15.5 -66.5s-24.833 -33.333 -43.5 -45s-40.334 -20.167 -65.001 -25.5s-51.334 -8 -80.001 -8c-16 0 -32.667 1.5 -50 4.5s-33.166 7.5 -47.499 13.5s-26.166 13.5 -35.499 22.5s-14 19.833 -14 32.5c0 6 1.16699 11.5 3.5 16.5
s6.16602 8.83301 11.499 11.5c2 1.33301 4.33301 1.33301 7 0c22.667 -8 45.334 -14.833 68.001 -20.5s45.334 -8.5 68.001 -8.5c11.333 0 23.666 0.5 36.999 1.5s25.666 3.66699 36.999 8s21 10.833 29 19.5s12 20.667 12 36c0 17.333 -6.5 31.666 -19.5 42.999
s-29.5 21.666 -49.5 30.999s-41.5 18.5 -64.5 27.5s-44.333 19.5 -64 31.5s-36.167 26.333 -49.5 43s-19.666 37.667 -18.999 63c0 24 5.16699 44.333 15.5 61s23.833 30.5 40.5 41.5s35.667 19 57 24s43.333 7.5 66 7.5c15.333 0 31.666 -1.33301 48.999 -4
s33.5 -6.83398 48.5 -12.501s27.667 -12.667 38 -21s16.166 -18.166 17.499 -29.499c0 -6 -1.83301 -13 -5.5 -21s-8.16699 -12.333 -13.5 -13c-2.66699 0 -4.66699 0.333008 -6 1l-28 10c-11.333 4 -23.5 7.5 -36.5 10.5s-26.5 5.66699 -40.5 8s-27.667 3.5 -41 3.5z" />
    <glyph glyph-name="t" unicode="t" horiz-adv-x="382" 
d="M195 186c0.666992 -26 2.50098 -47.498 5.50098 -64.498s7.5 -30.167 13.5 -39.5s13.667 -15.833 23 -19.5s21 -5.5 35 -5.5c13.333 0 26.666 1.83301 39.999 5.5s25.666 7.5 36.999 11.5c4.66699 1.33301 8.83398 1.5 12.501 0.5s5.5 -3.83301 5.5 -8.5v-34
c0 -6 -2 -11 -6 -15c-11.333 -8.66699 -25.5 -15.834 -42.5 -21.501s-34.5 -8.5 -52.5 -8.5c-31.333 0 -56.5 4.16699 -75.5 12.5s-34 21 -45 38s-18.333 37.833 -22 62.5s-5.5 53.667 -5.5 87v233l-65 5c-4 0 -7.33301 1.5 -10 4.5s-4 6.5 -4 10.5v18
c0 9.33301 4.66699 14.666 14 15.999l61 10l15 128c0 4 1.5 7.33301 4.5 10s6.5 4 10.5 4h37c9.33301 0 14 -4.66699 14 -14v-128h137c9.33301 0 14 -4.66699 14 -14v-36c0 -9.33301 -4.66699 -14 -14 -14h-137v-234z" />
    <glyph glyph-name="u" unicode="u" horiz-adv-x="551" 
d="M420 462c0 9.33301 2.50098 15.333 7.50098 18s12.833 4 23.5 4h15c10 0 17.667 -1.33301 23 -4s8 -8.66699 8 -18v-440c0 -9.33301 -2.5 -15.333 -7.5 -18s-12.833 -4 -23.5 -4h-9c-10 0 -17.167 1.16699 -21.5 3.5s-7.16602 8.5 -8.49902 18.5l-6 58
c-14 -17.333 -27.333 -31.833 -40 -43.5s-25.834 -21.167 -39.501 -28.5s-28 -12.666 -43 -15.999s-31.5 -5 -49.5 -5c-26.667 0 -50.334 4.16699 -71.001 12.5s-38 22.166 -52 41.499s-24.667 44.5 -32 75.5s-11 69.167 -11 114.5v231c0 9.33301 2.5 15.333 7.5 18
s12.833 4 23.5 4h15c10 0 17.5 -1.33301 22.5 -4s7.5 -8.66699 7.5 -18v-228c0 -60 7.66699 -104.333 23 -133s41 -43 77 -43c26.667 0 55.167 9.33301 85.5 28s55.5 47 75.5 85v291z" />
    <glyph glyph-name="v" unicode="v" horiz-adv-x="480" 
d="M460 484c5.33301 0 9.66602 -2.16699 12.999 -6.5s4 -9.16602 2 -14.499l-170 -442c-5.33301 -14 -15.666 -21 -30.999 -21h-43c-15.333 0 -25.666 7 -30.999 21l-165 442c-2 5.33301 -1.33301 10.166 2 14.499s7.66602 6.5 12.999 6.5h40
c15.333 0 25.333 -7.33301 30 -22l137 -390l140 390c4.66699 14.667 14.667 22 30 22h33z" />
    <glyph glyph-name="w" unicode="w" horiz-adv-x="713" 
d="M400 484c5.33301 0 10.3389 -1.83301 15.0059 -5.5s8 -8.83398 10 -15.501l99 -387l102 386c1.33301 6.66699 4.16602 12 8.49902 16s9.16602 6 14.499 6h41c3.33301 0 6.66602 -2 9.99902 -6s3.66602 -9 0.999023 -15l-130 -442c-4 -14 -12 -21 -24 -21h-54
c-5.33301 0 -10.166 1.33301 -14.499 4s-7.83301 8.33398 -10.5 17.001l-82 315l-10 76l-12 -76l-84 -315c-2.66699 -8.66699 -6.16699 -14.334 -10.5 -17.001s-9.16602 -4 -14.499 -4h-52c-12 0 -20 7 -24 21l-132 442c-2.66699 6 -2.33398 11 0.999023 15
s6.66602 6 9.99902 6h50c5.33301 0 10.166 -2 14.499 -6s7.16602 -9.33301 8.49902 -16l101 -386l103 387c2 6.66699 5.33301 11.834 10 15.501s9.66699 5.5 15 5.5h40z" />
    <glyph glyph-name="x" unicode="x" horiz-adv-x="458" 
d="M450 20c3.33301 -5.33301 4.5 -10 3.5 -14s-3.5 -6 -7.5 -6h-54c-13.333 -0 -23.333 5.33301 -30 16l-122 172l-119 -172c-4.66699 -6.66699 -9 -11 -13 -13s-9.66699 -3 -17 -3h-49c-4 -0 -6.66699 1.83301 -8 5.5s0 8.5 4 14.5l161 227l-150 218
c-3.33301 5.33301 -4.33301 9.83301 -3 13.5s4 5.5 8 5.5h54c12 0 22 -5.33301 30 -16l111 -165l107 165c4 6.66699 8.5 11 13.5 13s10.5 3 16.5 3h47c4 0 6.66699 -1.83301 8 -5.5s0.333008 -8.16699 -3 -13.5l-147 -221z" />
    <glyph glyph-name="y" unicode="y" horiz-adv-x="483" 
d="M305 -51l-28.001 -73.998c-10 -25.333 -21.833 -48.166 -35.5 -68.499s-29.5 -37 -47.5 -50s-39.333 -18.833 -64 -17.5c-15.333 0.666992 -29.333 5.16699 -42 13.5s-19.667 23.166 -21 44.499c0 8.66699 1.33301 16 4 22c2 6.66699 6.66699 8 14 4c12 -6 24 -9 36 -9
s23.167 3.16699 33.5 9.5s19.666 14.666 27.999 24.999s16 22 23 35s13.167 26.167 18.5 39.5l27 77h-22c-7.33301 0 -14.166 0.666992 -20.499 2s-11.166 5.66602 -14.499 12.999l-152 448c-1.33301 5.33301 -0.5 10.166 2.5 14.499s7.16699 6.5 12.5 6.5h40
c15.333 0 25.333 -7.33301 30 -22l135 -416h2l146 416c4.66699 14.667 14.667 22 30 22h35c5.33301 0 9.5 -2.16699 12.5 -6.5s3.83301 -9.16602 2.5 -14.499z" />
    <glyph glyph-name="z" unicode="z" horiz-adv-x="434" 
d="M67 411c-9.33301 0 -15.333 2.5 -18 7.5s-4 12.5 -4 22.5v14c0 9.33301 1.33301 16.5 4 21.5s8.66699 7.5 18 7.5h333c5.33301 0 10 -2 14 -6s6 -8.66699 6 -14v-34c0 -14 -4.33301 -25.667 -13 -35l-269 -322h277c9.33301 0 15.333 -2.5 18 -7.5s4 -12.167 4 -21.5v-14
c0 -10 -1.33301 -17.5 -4 -22.5s-8.66699 -7.5 -18 -7.5h-350c-5.33301 0 -10 2 -14 6s-6 8.66699 -6 14v34c0 14 4.33301 25.667 13 35l269 322h-260z" />
    <glyph glyph-name="braceleft" unicode="{" horiz-adv-x="347" 
d="M296 -180c-28 -4.66699 -52.667 -4 -74 2s-39.166 16.167 -53.499 30.5s-25.333 32.166 -33 53.499s-11.5 45.666 -11.5 72.999c0 21.333 0.666992 43.166 2 65.499s2 43.5 2 63.5c0 16.667 -1.16699 32.667 -3.5 48s-7 29.166 -14 41.499s-16.667 22.5 -29 30.5
s-28.833 13.667 -49.5 17c-9.33301 1.33301 -14 6.33301 -14 15v31c0 8.66699 4.33301 14 13 16c20.667 4 37.5 10.5 50.5 19.5s23 19.833 30 32.5s11.667 26.834 14 42.501s3.5 32.5 3.5 50.5c0 20 -0.833008 40.333 -2.5 61s-2.5 39.667 -2.5 57
c0 24.667 3.5 47.667 10.5 69s17.667 39.333 32 54s32.166 25.334 53.499 32.001s46.666 7.66699 75.999 3c10 -2 15 -7 15 -15v-26c0 -9.33301 -4.33301 -14 -13 -14c-22 0 -39.5 -2.66699 -52.5 -8s-23 -13.666 -30 -24.999s-11.667 -25.5 -14 -42.5
s-3.5 -37.5 -3.5 -61.5c0 -17.333 0.666992 -35.5 2 -54.5s2 -37.833 2 -56.5c0 -32.667 -7.66699 -62.5 -23 -89.5s-40.333 -46.833 -75 -59.5v-2c35.333 -13.333 60.5 -33.666 75.5 -60.999s22.5 -57 22.5 -89c0 -19.333 -0.666992 -38.5 -2 -57.5s-2 -37.167 -2 -54.5
c0 -27.333 1.66699 -49.833 5 -67.5s9 -31.667 17 -42s18.333 -17.5 31 -21.5s28.334 -6 47.001 -6c5.33301 0 8.83301 -1.5 10.5 -4.5s2.5 -6.16699 2.5 -9.5v-26c0 -5.33301 -1.5 -9 -4.5 -11s-6.5 -3.33301 -10.5 -4z" />
    <glyph glyph-name="bar" unicode="|" horiz-adv-x="245" 
d="M155 -180c0 -9.33301 -2.33301 -15.333 -7 -18s-12 -4 -22 -4h-7c-9.33301 0 -16.5 1.33301 -21.5 4s-7.5 8.66699 -7.5 18v889c0 9.33301 2.33301 15.333 7 18s12 4 22 4h7c9.33301 0 16.5 -1.33301 21.5 -4s7.5 -8.66699 7.5 -18v-889z" />
    <glyph glyph-name="braceright" unicode="}" horiz-adv-x="347" 
d="M51 -180c-4 0.666992 -7.50293 2 -10.5029 4s-4.5 5.66699 -4.5 11v26c0 3.33301 0.833008 6.5 2.5 9.5s5.16699 4.5 10.5 4.5c18.667 0 34.334 2 47.001 6s23 11.167 31 21.5s13.667 24.333 17 42s5 40.167 5 67.5c0 17.333 -0.666992 35.5 -2 54.5s-2 38.167 -2 57.5
c0 32 7.5 61.667 22.5 89s40.167 47.666 75.5 60.999v2c-34.667 12.667 -59.667 32.5 -75 59.5s-23 56.833 -23 89.5c0 18.667 0.666992 37.5 2 56.5s2 37.167 2 54.5c0 24 -1.16699 44.5 -3.5 61.5s-7 31.167 -14 42.5s-17 19.666 -30 24.999s-30.5 8 -52.5 8
c-8.66699 0 -13 4.66699 -13 14v26c0 8 5 13 15 15c28.667 4.66699 53.834 3.66699 75.501 -3s39.667 -17.334 54 -32.001s25 -32.667 32 -54s10.5 -44.333 10.5 -69c0 -17.333 -0.833008 -36.333 -2.5 -57s-2.5 -41 -2.5 -61c0 -18 1.16699 -34.833 3.5 -50.5
s7 -29.834 14 -42.501s16.833 -23.5 29.5 -32.5s29.667 -15.5 51 -19.5c8.66699 -2 13 -7.33301 13 -16v-31c0 -8.66699 -4.66699 -13.667 -14 -15c-20.667 -3.33301 -37.167 -9 -49.5 -17s-22 -18.167 -29 -30.5s-11.667 -26.166 -14 -41.499s-3.5 -31.333 -3.5 -48
c0 -20 0.666992 -41.167 2 -63.5s2 -44.166 2 -65.499c0 -27.333 -3.83301 -51.666 -11.5 -72.999s-18.667 -39.166 -33 -53.499s-32.166 -24.5 -53.499 -30.5s-46 -6.66699 -74 -2z" />
    <glyph glyph-name="asciitilde" unicode="~" horiz-adv-x="617" 
d="M551 303c7.33301 -6 10.502 -11.667 9.50195 -17s-3.16699 -10.666 -6.5 -15.999c-17.333 -24 -37.333 -42.667 -60 -56s-47.667 -20 -75 -20c-19.333 0 -38.166 3.16699 -56.499 9.5s-36.5 13.166 -54.5 20.499s-36 14.166 -54 20.499s-36 9.5 -54 9.5
c-16 0 -31.5 -3.33301 -46.5 -10s-27.833 -17.667 -38.5 -33c-8.66699 -12.667 -18 -14 -28 -4l-21 22c-4.66699 4.66699 -7.33398 9.83398 -8.00098 15.501s0.666016 11.167 3.99902 16.5c14.667 22 33.5 39.167 56.5 51.5s46.5 18.5 70.5 18.5
c18.667 0 38 -3.33301 58 -10s40 -14 60 -22s39.5 -15.333 58.5 -22s37.167 -10 54.5 -10c16.667 0 31.667 4 45 12s26.666 20.667 39.999 38c8 10 16 12 24 6z" />
    <glyph glyph-name="uni00A0" unicode="&#xa0;" horiz-adv-x="236" 
 />
    <glyph glyph-name="cent" unicode="&#xa2;" horiz-adv-x="614" 
d="M340 535c0 9.33301 2.00098 15.165 6.00098 17.498s10 3.5 18 3.5h23c7.33301 0 13.166 -1.16699 17.499 -3.5s6.5 -8.16602 6.5 -17.499v-64c15.333 -1.33301 31.166 -3.66602 47.499 -6.99902s31 -7.66602 44 -12.999s23.667 -12 32 -20s12.5 -17.333 12.5 -28
c0 -4 -0.833008 -8.16699 -2.5 -12.5s-3.83398 -8.83301 -6.50098 -13.5c-2.66699 -3.33301 -5.16699 -5.33301 -7.5 -6s-5.16602 -0.333984 -8.49902 0.999023c-16.667 7.33301 -35 13.833 -55 19.5s-40.667 9.5 -62 11.5v-350c36.667 3.33301 69.667 14.333 99 33
c3.33301 2 7.83301 4.16699 13.5 6.5s11.167 0.166016 16.5 -6.50098l15 -19c8 -10 6.33301 -19.333 -5 -28c-19.333 -14.667 -40.5 -26.167 -63.5 -34.5s-46.167 -14.166 -69.5 -17.499v-76c0 -9.33301 -2 -15.166 -6 -17.499s-10 -3.5 -18 -3.5h-23
c-7.33301 0 -13.166 1.16699 -17.499 3.5s-6.5 8.16602 -6.5 17.499v76c-65.333 7.33301 -115 32 -149 74s-51 98 -51 168c0 70.667 17.5 126.5 52.5 167.5s84.167 65.5 147.5 73.5v65zM217.001 228.999c0 -48 11.167 -87.333 33.5 -118s55.166 -49.667 98.499 -57v348
c-45.333 -6.66699 -78.666 -25.167 -99.999 -55.5s-32 -69.5 -32 -117.5z" />
    <glyph glyph-name="currency" unicode="&#xa4;" horiz-adv-x="635" 
d="M468 165c9.33301 0 15.335 -2 18.002 -6s4 -10.333 4 -19v-13c0 -8 -1.33301 -14.167 -4 -18.5s-8.66699 -6.5 -18 -6.5h-185v-81c0 -9.33301 -2.16699 -15.166 -6.5 -17.499s-11.166 -3.5 -20.499 -3.5h-21c-8.66699 0 -15.334 1.16699 -20.001 3.5
s-7 8.16602 -7 17.499v81h-46c-9.33301 0 -15.333 2 -18 6s-4 10.333 -4 19v13c0 8 1.33301 14.167 4 18.5s8.66699 6.5 18 6.5h46v64h-46c-9.33301 0 -15.333 2 -18 6s-4 10.333 -4 19v13c0 8 1.33301 14.167 4 18.5s8.66699 6.5 18 6.5h46v308
c0 9.33301 2.33301 15.166 7 17.499s11.334 3.5 20.001 3.5h150c44.667 0 81.667 -5.66699 111 -17s52.666 -26.5 69.999 -45.5s29.666 -40.5 36.999 -64.5s11 -48.333 11 -73c0 -27.333 -4.83301 -52.666 -14.5 -75.999s-23.834 -43.5 -42.501 -60.5s-42 -30.5 -70 -40.5
s-60 -15 -96 -15h-108v-64h185zM387.002 292c52 0 90.5 11.668 115.5 35.001s38.167 55.666 39.5 96.999c0 42.667 -12.667 76 -38 100s-64.333 36 -117 36h-104v-268h104z" />
    <glyph glyph-name="section" unicode="&#xa7;" horiz-adv-x="540" 
d="M279 48c16 4 29.6709 10 41.0039 18s20.666 17.5 27.999 28.5s12.666 22.833 15.999 35.5s5 25.334 5 38.001c0 20 -4.66699 39.833 -14 59.5s-20.833 39.167 -34.5 58.5s-28.667 38.666 -45 57.999s-31.333 38.666 -45 57.999s-25.167 39 -34.5 59s-14 40.333 -14 61
c0 17.333 3.66699 34 11 50s19.666 29.333 36.999 40c-17.333 -3.33301 -32.333 -8.83301 -45 -16.5s-23 -17 -31 -28s-14 -23.167 -18 -36.5s-6 -26.666 -6 -39.999c0 -20.667 4.5 -40.834 13.5 -60.501s20.5 -39.334 34.5 -59.001s28.833 -39.167 44.5 -58.5
s30.5 -38.666 44.5 -57.999s25.5 -39.166 34.5 -59.499s13.5 -40.833 13.5 -61.5c0 -16 -2.83301 -31.5 -8.5 -46.5s-14.834 -28.167 -27.501 -39.5zM250.004 535c0 -20.667 4.66504 -40.6689 13.998 -60.002s21 -38.5 35 -57.5s29.333 -38 46 -57s32 -38.5 46 -58.5
s25.667 -40.667 35 -62s14 -43.666 14 -66.999c0 -26 -5.16699 -50.5 -15.5 -73.5s-25.833 -42.833 -46.5 -59.5s-46.5 -29.834 -77.5 -39.501s-66.833 -14.5 -107.5 -14.5c-14.667 0 -29 0.666992 -43 2s-28.333 4 -43 8c-9.33301 2.66699 -13.666 8.33398 -12.999 17.001
l4 36c1.33301 7.33301 6 10 14 8c21.333 -5.33301 39.333 -8 54 -8c30 0 51 7.16699 63 21.5s18 31.5 18 51.5c0 20.667 -4.66699 40.667 -14 60s-21 38.5 -35 57.5s-29 38 -45 57s-31 38.667 -45 59s-25.667 41.166 -35 62.499s-14 44 -14 68c0 26 5 50.333 15 73
s25 42.334 45 59.001s44.833 29.834 74.5 39.501s64.5 14.5 104.5 14.5c15.333 0 30.833 -0.666992 46.5 -2s31.5 -3.66602 47.5 -6.99902c10 -2 14.333 -7.66699 13 -17l-5 -39c0 -3.33301 -1.5 -5.83301 -4.5 -7.5s-6.16699 -1.83398 -9.5 -0.500977
c-9.33301 3.33301 -19 5.83301 -29 7.5s-19.667 2.5 -29 2.5c-29.333 0 -49.666 -7.33301 -60.999 -22s-17 -32 -17 -52z" />
    <glyph glyph-name="copyright" unicode="&#xa9;" horiz-adv-x="777" 
d="M404 473c-37.333 0 -66.333 -12.166 -87 -36.499s-31 -58.166 -31 -101.499c0 -42 9.66699 -75 29 -99s48 -36 86 -36c14 0 27.833 1.83301 41.5 5.5s28.5 10.167 44.5 19.5c4 2.66699 7.83301 4 11.5 4s7.16699 -2.33301 10.5 -7l10 -13c4.66699 -7.33301 6 -13 4 -17
s-4 -7 -6 -9c-8 -6.66699 -17 -12.667 -27 -18s-20.5 -9.83301 -31.5 -13.5s-21.833 -6.5 -32.5 -8.5s-20 -3 -28 -3c-58.667 0 -102.834 17.333 -132.501 52s-44.5 82.334 -44.5 143.001c0 30 4.5 57.333 13.5 82s21.5 45.5 37.5 62.5s35.333 30.167 58 39.5
s47.667 14 75 14c14 0 27.833 -1.16699 41.5 -3.5s26 -5.83301 37 -10.5s20 -10.334 27 -17.001s10.5 -14.334 10.5 -23.001c0 -8 -3.33301 -17 -10 -27c-3.33301 -4 -7.66602 -5 -12.999 -3c-21.333 9.33301 -38.833 15.666 -52.5 18.999s-27.5 5 -41.5 5zM51 333.001
c0 48.667 7.5 94 22.5 136s37 78.5 66 109.5s64.333 55.5 106 73.5s89.5 27 143.5 27s101.833 -9 143.5 -27s77 -42.5 106 -73.5s51 -67.5 66 -109.5s22.5 -87.333 22.5 -136c0 -48 -7.5 -93.167 -22.5 -135.5s-36.833 -79 -65.5 -110s-64 -55.5 -106 -73.5
s-90 -27 -144 -27s-101.833 9 -143.5 27s-77 42.5 -106 73.5s-51 67.667 -66 110s-22.5 87.5 -22.5 135.5zM112 333.001c0 -41.333 6.16699 -79.666 18.5 -114.999s30.333 -65.833 54 -91.5s52.667 -45.667 87 -60s73.5 -21.5 117.5 -21.5s83.333 7.16699 118 21.5
s63.834 34.333 87.501 60s41.667 56.167 54 91.5s18.5 73.666 18.5 114.999c0 42 -6.16699 80.667 -18.5 116s-30.333 65.833 -54 91.5s-52.834 45.667 -87.501 60s-74 21.5 -118 21.5s-83.167 -7.16699 -117.5 -21.5s-63.333 -34.333 -87 -60s-41.667 -56.167 -54 -91.5
s-18.5 -74 -18.5 -116z" />
    <glyph glyph-name="guillemotleft" unicode="&#xab;" horiz-adv-x="494" 
d="M437 108c6 -7.33301 5.66406 -14.332 -1.00293 -20.999l-30 -26c-2.66699 -2.66699 -5.66699 -4 -9 -4s-6.66602 1.66699 -9.99902 5l-153 177c-6 7.33301 -6 14.666 0 21.999l143 166c2.66699 3.33301 5.83398 5 9.50098 5s6.83398 -1.33301 9.50098 -4l30 -26
c6.66699 -6.66699 7 -13.667 1 -21l-115 -131zM247.997 93.001c6 -7.33301 5.66895 -14.3311 -0.998047 -20.998l-30 -26c-2.66699 -2.66699 -5.83398 -4 -9.50098 -4s-6.83398 1.66699 -9.50098 5l-163 190c-6 7.33301 -6 14.666 0 21.999l163 190
c6 7.33301 12.333 7.66602 19 0.999023l30 -26c6.66699 -6.66699 7 -13.667 1 -21l-135 -155z" />
    <glyph glyph-name="logicalnot" unicode="&#xac;" horiz-adv-x="593" 
d="M486 333c9.33301 0 15.333 -2.16797 18 -6.50098s4 -11.166 4 -20.499v-140c0 -8 -1.83301 -13 -5.5 -15s-9.5 -3 -17.5 -3h-16c-7.33301 0 -13 1 -17 3s-6 7 -6 15v100h-341c-9.33301 0 -15.333 2.16699 -18 6.5s-4 11.166 -4 20.499v13
c0 8.66699 1.33301 15.334 4 20.001s8.66699 7 18 7h381z" />
    <glyph glyph-name="uni00AD" unicode="&#xad;" horiz-adv-x="461" 
d="M363 283c9.33301 0 15.333 -2.16699 18 -6.5s4 -10.833 4 -19.5v-18c0 -8.66699 -1.33301 -15.167 -4 -19.5s-8.66699 -6.5 -18 -6.5h-265c-9.33301 0 -15.333 2.16699 -18 6.5s-4 10.833 -4 19.5v18c0 8.66699 1.33301 15.167 4 19.5s8.66699 6.5 18 6.5h265z" />
    <glyph glyph-name="registered" unicode="&#xae;" horiz-adv-x="523" 
d="M267 519c16.667 0 28.167 3.5 34.5 10.5s9.5 15.833 9.5 26.5c0 8 -3.16699 15.333 -9.5 22s-17.833 10 -34.5 10h-40v-69h40zM55 508c0 28.667 4.66699 55.834 14 81.501s22.833 48 40.5 67s39.334 34 65.001 45s54.834 16.5 87.501 16.5s61.667 -5.5 87 -16.5
s46.833 -26 64.5 -45s31.167 -41.333 40.5 -67s14 -52.834 14 -81.501s-4.66699 -55.667 -14 -81s-22.833 -47.5 -40.5 -66.5s-39.167 -34 -64.5 -45s-54.333 -16.5 -87 -16.5s-61.834 5.5 -87.501 16.5s-47.334 26 -65.001 45s-31.167 41.167 -40.5 66.5s-14 52.333 -14 81
zM106 508c0 -22 3.16699 -42.5 9.5 -61.5s16 -35.833 29 -50.5s29.333 -26.334 49 -35.001s42.5 -13 68.5 -13s48.833 4.33301 68.5 13s36 20.334 49 35.001s22.667 31.5 29 50.5s9.5 39.5 9.5 61.5s-3.16699 42.667 -9.5 62s-16 36.5 -29 51.5s-29.333 26.667 -49 35
s-42.5 12.5 -68.5 12.5s-48.833 -4.16699 -68.5 -12.5s-36 -20 -49 -35s-22.667 -32.167 -29 -51.5s-9.5 -40 -9.5 -62zM352 410c2 -3.33301 2.33203 -6.66699 0.999023 -10s-4 -5 -8 -5h-21c-4.66699 0 -8.66699 2.66699 -12 8l-43 80h-42v-73
c0 -6.66699 -1.33301 -10.834 -4 -12.501s-6.66699 -2.5 -12 -2.5h-8c-5.33301 0 -9.33301 0.833008 -12 2.5s-4 5.83398 -4 12.501v203c0 5.33301 1.5 8.66602 4.5 9.99902s7.16699 2 12.5 2h63c29.333 0 50.5 -7.16699 63.5 -21.5s19.5 -30.166 19.5 -47.499
c0 -14 -3.16699 -27 -9.5 -39s-17.166 -20.667 -32.499 -26z" />
    <glyph glyph-name="degree" unicode="&#xb0;" horiz-adv-x="391" 
d="M195 436c-25.333 0 -47.168 4 -65.501 12s-33.333 18.833 -45 32.5s-20.334 29.167 -26.001 46.5s-8.5 35.333 -8.5 54c0 18 2.66699 35.833 8 53.5s13.833 33.334 25.5 47.001s26.667 24.667 45 33s40.5 12.5 66.5 12.5s48.167 -4.16699 66.5 -12.5
s33.333 -19.333 45 -33s20.334 -29.334 26.001 -47.001s8.5 -35.5 8.5 -53.5c0 -18.667 -2.83301 -36.667 -8.5 -54s-14.5 -32.833 -26.5 -46.5s-27.167 -24.5 -45.5 -32.5s-40.166 -12 -65.499 -12zM194.998 490c14.667 0 27.1689 2.5 37.502 7.5s18.833 11.833 25.5 20.5
s11.667 18.334 15 29.001s5 22 5 34c0 11.333 -1.66699 22.5 -5 33.5s-8.33301 20.667 -15 29s-15.167 15.166 -25.5 20.499s-22.833 8 -37.5 8s-27.334 -2.66699 -38.001 -8s-19.334 -12.166 -26.001 -20.499s-11.5 -18 -14.5 -29s-4.5 -22.167 -4.5 -33.5
c0 -12 1.66699 -23.333 5 -34s8.33301 -20.334 15 -29.001s15.167 -15.5 25.5 -20.5s22.833 -7.5 37.5 -7.5z" />
    <glyph glyph-name="plusminus" unicode="&#xb1;" horiz-adv-x="559" 
d="M246 333v158c0 9.33301 2.16699 15.333 6.5 18s11.166 4 20.499 4h13c8.66699 0 15.334 -1.33301 20.001 -4s7 -8.66699 7 -18v-158h146c9.33301 0 15.333 -2.16699 18 -6.5s4 -11.166 4 -20.499v-13c0 -8.66699 -1.33301 -15.334 -4 -20.001s-8.66699 -7 -18 -7h-146
v-109c0 -9.33301 -2.16699 -15.333 -6.5 -18s-11.166 -4 -20.499 -4h-13c-8.66699 0 -15.334 1.33301 -20.001 4s-7 8.66699 -7 18v109h-146c-9.33301 0 -15.333 2.16699 -18 6.5s-4 11.166 -4 20.499v13c0 8.66699 1.33301 15.334 4 20.001s8.66699 7 18 7h146zM100 42
c-9.33301 0 -15.333 2.16699 -18 6.5s-4 11.166 -4 20.499v13c0 8.66699 1.33301 15.334 4 20.001s8.66699 7 18 7h359c9.33301 0 15.333 -2.16699 18 -6.5s4 -11.166 4 -20.499v-13c0 -8.66699 -1.33301 -15.334 -4 -20.001s-8.66699 -7 -18 -7h-359z" />
    <glyph glyph-name="paragraph" unicode="&#xb6;" horiz-adv-x="540" 
d="M249 276c-35.333 0 -65.499 5.16895 -90.499 15.502s-45.5 24.333 -61.5 42s-27.667 38 -35 61s-11 47.167 -11 72.5s3.66699 49.5 11 72.5s19 43.167 35 60.5s36.5 31.166 61.5 41.499s55.167 15.5 90.5 15.5h53c4 0 7.33301 -1.5 10 -4.5s4 -6.5 4 -10.5v-419
c0 -20.667 -1 -41 -3 -61s-5.66699 -39 -11 -57s-12.833 -34.333 -22.5 -49s-22.5 -27 -38.5 -37c30 4.66699 53.667 16 71 34s30.333 38.667 39 62s14.167 48 16.5 74s3.5 50 3.5 72v381c0 4 1.33301 7.5 4 10.5s6 4.5 10 4.5h38c4 0 7.33301 -1.5 10 -4.5s4 -6.5 4 -10.5
l1 -383c0 -94.667 -20.333 -168 -61 -220s-103.334 -78 -188.001 -78c-32.667 0 -64.334 4 -95.001 12c-8.66699 2 -12.667 8 -12 18l4 39c1.33301 9.33301 6.33301 12.333 15 9c18.667 -6.66699 36.334 -10 53.001 -10c32 0 55.833 13.667 71.5 41
s23.5 69.666 23.5 126.999v79zM249.001 594.002c-44 0 -76.833 -11.167 -98.5 -33.5s-33.167 -53.5 -34.5 -93.5c1.33301 -40 12.833 -71.167 34.5 -93.5s54.5 -33.5 98.5 -33.5v254z" />
    <glyph glyph-name="guillemotright" unicode="&#xbb;" horiz-adv-x="516" 
d="M204 250l-115.003 130.999c-6 7.33301 -5.66699 14.333 1 21l30 26c2.66699 2.66699 5.83398 4 9.50098 4s6.83398 -1.66699 9.50098 -5l143 -166c6 -7.33301 6 -14.666 0 -21.999l-153 -177c-3.33301 -3.33301 -6.66602 -5 -9.99902 -5s-6.33301 1.33301 -9 4l-30 26
c-6.66699 6.66699 -7 13.667 -1 21zM402.997 247.999l-134.998 154.998c-6 7.33301 -5.66699 14.333 1 21l30 26c6.66699 6.66699 13 6.33398 19 -0.999023l163 -190c6 -7.33301 6 -14.666 0 -21.999l-163 -190c-2.66699 -3.33301 -5.83398 -5 -9.50098 -5
s-6.83398 1.33301 -9.50098 4l-30 26c-6.66699 6.66699 -7 13.667 -1 21z" />
    <glyph glyph-name="onequarter" unicode="&#xbc;" horiz-adv-x="927" 
d="M721 291l-113 -155h113v155zM562 77c-9.33301 0 -15.665 2.16699 -18.998 6.5s-5 10.166 -5 17.499v14c0 7.33301 1.5 14.333 4.5 21s6.5 12.667 10.5 18l134 186c5.33301 7.33301 11.166 12.833 17.499 16.5s15.166 5.5 26.499 5.5h29c9.33301 0 16 -1.33301 20 -4
s6 -8.66699 6 -18v-204h31c9.33301 0 15.166 -1.66699 17.499 -5s3.5 -9.33301 3.5 -18v-12c0 -9.33301 -1.16699 -15.666 -3.5 -18.999s-8.16602 -5 -17.499 -5h-31v-55c0 -9.33301 -2 -15.333 -6 -18s-10.667 -4 -20 -4h-13c-9.33301 -0 -16 1.33301 -20 4
s-6 8.66699 -6 18v55h-159zM254.001 309c0 -9.33301 -2 -15.332 -6 -17.999s-10.667 -4 -20 -4h-16c-9.33301 0 -16 1.33301 -20 4s-6 8.66699 -6 18v239l-49 -30c-9.33301 -5.33301 -17 -4 -23 4l-13 19c-6 10 -4.66699 18.333 4 25l82 52c8.66699 5.33301 17.667 8 27 8
h14c9.33301 0 16 -1.33301 20 -4s6 -8.33398 6 -17.001v-296zM261.001 3.00098c-3.33301 -5.33301 -7.5 -8.83301 -12.5 -10.5s-11.167 -0.166992 -18.5 4.5l-19 12c-5.33301 3.33301 -9.16602 7.16602 -11.499 11.499s-1.16602 9.83301 3.50098 16.5l406 582
c3.33301 5.33301 7.5 8.83301 12.5 10.5s11.167 0.166992 18.5 -4.5l20 -12c5.33301 -3.33301 9.16602 -7.16602 11.499 -11.499s1.16602 -9.83301 -3.50098 -16.5z" />
    <glyph glyph-name="onehalf" unicode="&#xbd;" horiz-adv-x="882" 
d="M793 62c9.33301 0 15.1641 -1.66992 17.4971 -5.00293s3.5 -9.33301 3.5 -18v-15c0 -9.33301 -1.16699 -15.666 -3.5 -18.999s-8.16602 -5 -17.499 -5h-203c-8 0 -14.333 1.66699 -19 5s-7 10.333 -7 21v9c0 21.333 4.33301 39.5 13 54.5s19.667 28.167 33 39.5
s27.5 21.333 42.5 30s29.167 17.667 42.5 27s24.333 19.666 33 30.999s13 25 13 41c-1.33301 20 -7.16602 34 -17.499 42s-24.166 12 -41.499 12c-13.333 0 -27.166 -2 -41.499 -6s-26.833 -9.66699 -37.5 -17c-5.33301 -3.33301 -10 -4.33301 -14 -3
c-11.333 5.33301 -17 14.333 -17 27c0 10.667 3.66699 19.834 11 27.501s16.5 13.834 27.5 18.501s23 8 36 10s24.833 3 35.5 3c17.333 0 33.666 -2 48.999 -6s28.833 -10.5 40.5 -19.5s21 -20.5 28 -34.5s10.5 -31 10.5 -51c0 -29.333 -8.5 -54 -25.5 -74
s-36.167 -37.167 -57.5 -51.5s-41.333 -27.166 -60 -38.499s-29.667 -23 -33 -35h159zM253.998 308.997c0 -9.33301 -2 -15.332 -6 -17.999s-10.667 -4 -20 -4h-16c-9.33301 0 -16 1.33301 -20 4s-6 8.66699 -6 18v239l-49 -30c-9.33301 -5.33301 -17 -4 -23 4l-13 19
c-6 10 -4.66699 18.333 4 25l82 52c8.66699 5.33301 17.667 8 27 8h14c9.33301 0 16 -1.33301 20 -4s6 -8.33398 6 -17.001v-296zM260.998 2.99805c-3.33301 -5.33301 -7.5 -8.83301 -12.5 -10.5s-11.167 -0.166992 -18.5 4.5l-19 12
c-5.33301 3.33301 -9.16602 7.16602 -11.499 11.499s-1.16602 9.83301 3.50098 16.5l406 582c3.33301 5.33301 7.5 8.83301 12.5 10.5s11.167 0.166992 18.5 -4.5l20 -12c5.33301 -3.33301 9.16602 -7.16602 11.499 -11.499s1.16602 -9.83301 -3.50098 -16.5z" />
    <glyph glyph-name="multiply" unicode="&#xd7;" horiz-adv-x="509" 
d="M433 174c5.33301 -5.33301 7.66602 -10.334 6.99902 -15.001s-2.66699 -9 -6 -13l-20 -22c-8.66699 -9.33301 -17.667 -9.33301 -27 0l-134 137l-131 -137c-4 -4 -8.5 -6.16699 -13.5 -6.5s-9.5 1.83398 -13.5 6.50098l-20 22c-3.33301 4 -5.33301 8.33301 -6 13
s1.66602 9.66699 6.99902 15l131 133l-130 133c-5.33301 5.33301 -7.66602 10.333 -6.99902 15s2.66699 9 6 13l20 22c8.66699 9.33301 17.667 9.33301 27 0l130 -136l133 136c9.33301 9.33301 18.333 9.33301 27 0l20 -22c3.33301 -4 5.33301 -8.33301 6 -13
s-1.66602 -9.66699 -6.99902 -15l-131 -132z" />
    <glyph glyph-name="divide" unicode="&#xf7;" horiz-adv-x="560" 
d="M343 482c0 -16 -6.16699 -29.667 -18.5 -41s-27.166 -17 -44.499 -17c-16.667 0 -31 5.66699 -43 17s-18 25 -18 41c0 17.333 6 31.5 18 42.5s26.333 16.5 43 16.5c17.333 0 32.166 -5.5 44.499 -16.5s18.5 -25.167 18.5 -42.5zM343 108
c0 -17.333 -6.16699 -31.5 -18.5 -42.5s-27.166 -16.5 -44.499 -16.5c-16.667 0 -31 5.5 -43 16.5s-18 25.167 -18 42.5c0 16 6 29.667 18 41s26.333 17 43 17c17.333 0 32.166 -5.66699 44.499 -17s18.5 -25 18.5 -41zM470 333c9.33301 0 15.333 -2.16699 18 -6.5
s4 -11.166 4 -20.499v-13c0 -8.66699 -1.33301 -15.334 -4 -20.001s-8.66699 -7 -18 -7h-381c-9.33301 0 -15.333 2.16699 -18 6.5s-4 11.166 -4 20.499v13c0 8.66699 1.33301 15.334 4 20.001s8.66699 7 18 7h381z" />
    <glyph glyph-name="Delta" unicode="&#x394;" horiz-adv-x="623" 
d="M57 0c-12.667 0 -20.832 3.83301 -24.499 11.5s-2.5 18.167 3.5 31.5l263 581c2.66699 5.33301 5 9.16602 7 11.499s5.33301 3.5 10 3.5h15c4.66699 0 8 -1.16699 10 -3.5s4.33301 -6.16602 7 -11.499l263 -581c6 -13.333 7.16699 -23.833 3.5 -31.5
s-11.834 -11.5 -24.501 -11.5h-533zM361.002 421l-19 54c-6.66699 19.333 -12.667 38.666 -18 57.999c-5.33301 -19.333 -11.333 -38.666 -18 -57.999l-19 -54l-160 -352h393z" />
    <glyph glyph-name="Delta" unicode="&#x2206;" horiz-adv-x="623" 
d="M57 0c-12.667 0 -20.832 3.83301 -24.499 11.5s-2.5 18.167 3.5 31.5l263 581c2.66699 5.33301 5 9.16602 7 11.499s5.33301 3.5 10 3.5h15c4.66699 0 8 -1.16699 10 -3.5s4.33301 -6.16602 7 -11.499l263 -581c6 -13.333 7.16699 -23.833 3.5 -31.5
s-11.834 -11.5 -24.501 -11.5h-533zM361.002 421l-19 54c-6.66699 19.333 -12.667 38.666 -18 57.999c-5.33301 -19.333 -11.333 -38.666 -18 -57.999l-19 -54l-160 -352h393z" />
    <glyph glyph-name="afii10023" unicode="&#x401;" horiz-adv-x="534" 
d="M130 762c0 15.333 4.5 27.833 13.5 37.5s21.167 14.5 36.5 14.5c16.667 0 30.167 -4.83301 40.5 -14.5s15.5 -22.167 15.5 -37.5s-5.16699 -27.666 -15.5 -36.999s-23.833 -14 -40.5 -14c-15.333 0 -27.5 4.66699 -36.5 14s-13.5 21.666 -13.5 36.999zM346 762
c0 15.333 4.66699 27.833 14 37.5s22.333 14.5 39 14.5c15.333 0 28.166 -4.83301 38.499 -14.5s15.5 -22.167 15.5 -37.5s-5.16699 -27.666 -15.5 -36.999s-23.166 -14 -38.499 -14c-16.667 0 -29.667 4.66699 -39 14s-14 21.666 -14 36.999zM177 299v-225.003h301
c8 0 13.167 -2.33301 15.5 -7s3.5 -11.667 3.5 -21v-19c0 -9.33301 -1.16699 -16.166 -3.5 -20.499s-7.5 -6.5 -15.5 -6.5h-352c-9.33301 0 -16.5 1.33301 -21.5 4s-7.5 8.66699 -7.5 18v613c0 9.33301 2.5 15.333 7.5 18s12.167 4 21.5 4h352c8 0 13.167 -2.33301 15.5 -7
s3.5 -11.667 3.5 -21v-19c0 -9.33301 -1.16699 -16.166 -3.5 -20.499s-7.5 -6.5 -15.5 -6.5h-301v-210h244c8 0 13.167 -2.33301 15.5 -7s3.5 -11.667 3.5 -21v-19c0 -9.33301 -1.16699 -16.166 -3.5 -20.499s-7.5 -6.5 -15.5 -6.5h-244z" />
    <glyph glyph-name="afii10017" unicode="&#x410;" horiz-adv-x="594" 
d="M305 671c9.33301 0 16.666 -6 21.999 -18l269 -631c3.33301 -7.33301 3 -12.833 -1 -16.5s-9.66699 -5.5 -17 -5.5h-30c-8 -0 -15.167 1.33301 -21.5 4s-12.166 9.66699 -17.499 21l-55 132h-315l-54 -132c-5.33301 -11.333 -11.166 -18.333 -17.499 -21
s-13.5 -4 -21.5 -4h-30c-7.33301 -0 -13 1.83301 -17 5.5s-4.33301 9.16699 -1 16.5l269 631c5.33301 12 12.666 18 21.999 18h16zM169 229h256l-85 206l-43 117l-43 -117z" />
    <glyph glyph-name="afii10018" unicode="&#x411;" horiz-adv-x="589" 
d="M130 657l355.999 -0.000976562c8 0 13.167 -2.33301 15.5 -7s3.5 -11.667 3.5 -21v-18c0 -9.33301 -1.16699 -16.166 -3.5 -20.499s-7.5 -6.5 -15.5 -6.5h-311l2 -188l24.5 2.5c9.66699 1 19.5 1.83301 29.5 2.5s19.833 1.16699 29.5 1.5s18.167 0.5 25.5 0.5
c32.667 0 64.334 -2.66699 95.001 -8s58 -15 82 -29s43.167 -33.167 57.5 -57.5s21.5 -55.5 21.5 -93.5c0 -68.667 -21.167 -121.667 -63.5 -159s-103.833 -56 -184.5 -56h-164c-15.333 -0 -24.666 2.83301 -27.999 8.5s-5 11.167 -5 16.5v607c0 4.66699 1.66699 10 5 16
s12.666 9 27.999 9zM287.999 70.999c54 0 96.834 11.667 128.501 35s47.5 58 47.5 104c0 24.667 -5.16699 44.834 -15.5 60.501s-23.833 28 -40.5 37s-35.834 15.333 -57.501 19s-43.5 5.5 -65.5 5.5c-6 0 -13.5 -0.166992 -22.5 -0.5s-18.667 -0.833008 -29 -1.5l-30.5 -2
c-10 -0.666992 -18.667 -1.33398 -26 -2.00098l3 -255h108z" />
    <glyph glyph-name="afii10019" unicode="&#x412;" horiz-adv-x="607" 
d="M130 0c-15.333 0 -24.666 2.83105 -27.999 8.49805s-5 11.167 -5 16.5v607c0 4.66699 1.66699 10 5 16s12.666 9 27.999 9h171c42.667 0 78.5 -4.33301 107.5 -13s52.333 -20.167 70 -34.5s30.334 -31.166 38.001 -50.499s11.5 -39.666 11.5 -60.999
c0 -34 -8.66699 -64.833 -26 -92.5s-42 -49.167 -74 -64.5v-3c46 -12 79 -32 99 -60s30 -60 30 -96c0 -26.667 -5 -51.167 -15 -73.5s-25.333 -41.5 -46 -57.5s-46.834 -28.5 -78.501 -37.5s-69.5 -13.5 -113.5 -13.5h-174zM326 71.998c50.667 0 87.834 11.333 111.501 34
s35.5 50.667 35.5 84c0 34 -11.333 60.167 -34 78.5s-57.334 27.5 -104.001 27.5h-160v-224h151zM311 367.998c40 0 72.333 10.5 97 31.5s37 47.5 37 79.5c0 71.333 -48.333 107 -145 107h-125v-218h136z" />
    <glyph glyph-name="afii10020" unicode="&#x413;" horiz-adv-x="474" 
d="M97 629c0 9.33301 1.16699 16.332 3.5 20.999s7.5 7 15.5 7h339c8 0 13.167 -2.33301 15.5 -7s3.5 -11.667 3.5 -21v-18c0 -9.33301 -1.16699 -16.166 -3.5 -20.499s-7.5 -6.5 -15.5 -6.5h-279v-562c0 -9.33301 -2.33301 -15.333 -7 -18s-11.667 -4 -21 -4h-22
c-9.33301 -0 -16.5 1.33301 -21.5 4s-7.5 8.66699 -7.5 18v607z" />
    <glyph glyph-name="afii10021" unicode="&#x414;" horiz-adv-x="684" 
d="M578 0l-494.999 0.000976562v-149c0 -9.33301 -2.5 -15.333 -7.5 -18s-12.167 -4 -21.5 -4h-17c-9.33301 0 -16.333 1.33301 -21 4s-7 8.66699 -7 18v200c0 9.33301 2.33301 15.333 7 18s11.667 4 21 4h38c20.667 28.667 37.667 60 51 94s23.833 73 31.5 117
s13.167 94.667 16.5 152s5.66602 123.666 6.99902 198.999c0 9.33301 2.5 15.333 7.5 18s12.167 4 21.5 4h339c9.33301 0 16.333 -1.33301 21 -4s7 -8.66699 7 -18v-562h47c9.33301 0 16.333 -1.33301 21 -4s7 -8.66699 7 -18v-200c0 -9.33301 -2.33301 -15.333 -7 -18
s-11.667 -4 -21 -4h-17c-9.33301 0 -16.5 1.33301 -21.5 4s-7.5 8.66699 -7.5 18v149zM254.001 583.001c0 -126.667 -7.5 -231.167 -22.5 -313.5s-37.833 -147.833 -68.5 -196.5h335v510h-244z" />
    <glyph glyph-name="afii10022" unicode="&#x415;" horiz-adv-x="534" 
d="M177 299v-225.003h301c8 0 13.167 -2.33301 15.5 -7s3.5 -11.667 3.5 -21v-19c0 -9.33301 -1.16699 -16.166 -3.5 -20.499s-7.5 -6.5 -15.5 -6.5h-352c-9.33301 0 -16.5 1.33301 -21.5 4s-7.5 8.66699 -7.5 18v613c0 9.33301 2.5 15.333 7.5 18s12.167 4 21.5 4h352
c8 0 13.167 -2.33301 15.5 -7s3.5 -11.667 3.5 -21v-19c0 -9.33301 -1.16699 -16.166 -3.5 -20.499s-7.5 -6.5 -15.5 -6.5h-301v-210h244c8 0 13.167 -2.33301 15.5 -7s3.5 -11.667 3.5 -21v-19c0 -9.33301 -1.16699 -16.166 -3.5 -20.499s-7.5 -6.5 -15.5 -6.5h-244z" />
    <glyph glyph-name="afii10024" unicode="&#x416;" horiz-adv-x="856" 
d="M466 22c0 -9.33301 -2.49609 -15.333 -7.49609 -18s-12.167 -4 -21.5 -4h-22c-9.33301 -0 -16.333 1.33301 -21 4s-7 8.66699 -7 18v280h-68c-11.333 0 -21.166 -3.33301 -29.499 -10s-15.833 -14.667 -22.5 -24l-161 -247c-6 -8.66699 -12.5 -14.334 -19.5 -17.001
s-14.833 -4 -23.5 -4h-43c-6 0 -10.333 2.66699 -13 8s-2.33398 10.666 0.999023 15.999l215 318l-185 291c-3.33301 6 -3.83301 11.5 -1.5 16.5s6.83301 7.5 13.5 7.5h36c11.333 0 19.666 -2.16699 24.999 -6.5s10.666 -10.166 15.999 -17.499l165 -263h95v265
c0 9.33301 2.33301 15.333 7 18s11.667 4 21 4h22c9.33301 0 16.5 -1.33301 21.5 -4s7.5 -8.66699 7.5 -18v-265h97l165 263c5.33301 7.33301 10.666 13.166 15.999 17.499s13.666 6.5 24.999 6.5h36c6.66699 0 11.167 -2.5 13.5 -7.5s1.83301 -10.5 -1.5 -16.5l-185 -291
l215 -318c3.33301 -5.33301 3.66602 -10.666 0.999023 -15.999s-7 -8 -13 -8h-43c-8.66699 0 -16.5 1.33301 -23.5 4s-13.5 8.33398 -19.5 17.001l-161 247c-6.66699 9.33301 -14.167 17.333 -22.5 24s-18.166 10 -29.499 10h-70v-280z" />
    <glyph glyph-name="afii10025" unicode="&#x417;" horiz-adv-x="497" 
d="M65 557c-4.66699 -1.33301 -8.33301 -1.82812 -11 -1.49512s-5.66699 2.5 -9 6.5c-3.33301 5.33301 -6.16602 10.666 -8.49902 15.999s-3.5 10.333 -3.5 15c0 12.667 6 24 18 34s27.5 18.167 46.5 24.5s40.167 11.166 63.5 14.499s46 5 68 5
c26.667 0 52.5 -3.16699 77.5 -9.5s47.167 -16.333 66.5 -30s35 -31.5 47 -53.5s18 -48.333 18 -79c0 -17.333 -2.66699 -34.666 -8 -51.999s-13.5 -33.333 -24.5 -48s-24.5 -27.334 -40.5 -38.001s-34.667 -18.334 -56 -23.001
c25.333 -3.33301 47.166 -9.83301 65.499 -19.5s33.5 -21.834 45.5 -36.501s20.833 -30.834 26.5 -48.501s8.5 -36.167 8.5 -55.5c0 -32.667 -6 -61 -18 -85s-28.333 -43.833 -49 -59.5s-45 -27.334 -73 -35.001s-58 -11.5 -90 -11.5c-40 0 -77.167 5.66699 -111.5 17
s-65.5 26.333 -93.5 45c-2 1.33301 -4.16699 3.5 -6.5 6.5s-1.83301 8.16699 1.5 15.5l15 30c4 7.33301 8.16699 10.833 12.5 10.5s7.83301 -1.16602 10.5 -2.49902c32 -14 60.833 -24.667 86.5 -32s52.5 -11 80.5 -11c50 0 87.333 11.167 112 33.5s37 49.833 37 82.5
c0 42 -14.333 71.667 -43 89s-70.667 26 -126 26h-54c-6.66699 0 -10.834 1.16699 -12.501 3.5s-2.5 7.5 -2.5 15.5v30c0 8 0.833008 13.5 2.5 16.5s5.83398 4.5 12.501 4.5h61c28 0 51.333 3.5 70 10.5s33.834 16 45.501 27s19.834 23.667 24.501 38s7 28.833 7 43.5
c0 21.333 -4 39 -12 53s-18.333 25.333 -31 34s-27.334 14.667 -44.001 18s-33.334 5 -50.001 5c-29.333 0 -57.5 -4 -84.5 -12s-49.5 -17 -67.5 -27z" />
    <glyph glyph-name="afii10026" unicode="&#x418;" horiz-adv-x="722" 
d="M533 634c4 6 8.83105 11.333 14.498 16s11.834 7 18.501 7h28c9.33301 0 16.666 -1.33301 21.999 -4s8 -8.66699 8 -18v-613c0 -9.33301 -2.66699 -15.333 -8 -18s-12.666 -4 -21.999 -4h-19c-10 -0 -17.5 1.33301 -22.5 4s-7.5 8.66699 -7.5 18v421l9 111l-70 -113
l-295 -418c-4 -5.33301 -8.66699 -10.5 -14 -15.5s-11.666 -7.5 -18.999 -7.5h-29c-9.33301 -0 -16.666 1.33301 -21.999 4s-8 8.66699 -8 18v613c0 9.33301 2.66699 15.333 8 18s12.666 4 21.999 4h19c10 0 17.5 -1.33301 22.5 -4s7.5 -8.66699 7.5 -18v-411l-10 -126
l77 124z" />
    <glyph glyph-name="afii10027" unicode="&#x419;" horiz-adv-x="722" 
d="M191 776c-2.66699 4.66699 -4.50293 10.3359 -5.50293 17.0029s3.5 13 13.5 19l22 12c6.66699 4 12.5 5.16699 17.5 3.5s9.16699 -5.16699 12.5 -10.5c4.66699 -7.33301 10.334 -15.166 17.001 -23.499s14.5 -16 23.5 -23s19.167 -12.833 30.5 -17.5s24 -7 38 -7
s26.5 2.33301 37.5 7s21 10.5 30 17.5s17 14.667 24 23s12.833 16.166 17.5 23.499c3.33301 5.33301 7.5 8.83301 12.5 10.5s10.833 0.5 17.5 -3.5l22 -12c10 -6 14.5 -12.333 13.5 -19s-2.83301 -12.334 -5.5 -17.001c-19.333 -32.667 -44.166 -57.334 -74.499 -74.001
s-61.833 -25 -94.5 -25s-64.167 8.16699 -94.5 24.5s-55.166 41.166 -74.499 74.499zM532.997 634.002c4 6 8.83105 11.333 14.498 16s11.834 7 18.501 7h28c9.33301 0 16.666 -1.33301 21.999 -4s8 -8.66699 8 -18v-613c0 -9.33301 -2.66699 -15.333 -8 -18
s-12.666 -4 -21.999 -4h-19c-10 0 -17.5 1.33301 -22.5 4s-7.5 8.66699 -7.5 18v421l9 111l-70 -113l-295 -418c-4 -5.33301 -8.66699 -10.5 -14 -15.5s-11.666 -7.5 -18.999 -7.5h-29c-9.33301 0 -16.666 1.33301 -21.999 4s-8 8.66699 -8 18v613
c0 9.33301 2.66699 15.333 8 18s12.666 4 21.999 4h19c10 0 17.5 -1.33301 22.5 -4s7.5 -8.66699 7.5 -18v-411l-10 -126l77 124z" />
    <glyph glyph-name="afii10028" unicode="&#x41a;" horiz-adv-x="594" 
d="M97 635c0 9.33301 2.50195 15.332 7.50195 17.999s12.167 4 21.5 4h22c9.33301 0 16.333 -1.33301 21 -4s7 -8.66699 7 -18v-265h117l174 263c5.33301 7.33301 10.666 13.166 15.999 17.499s13.666 6.5 24.999 6.5h36c6.66699 0 11.167 -2.5 13.5 -7.5
s1.83301 -10.5 -1.5 -16.5l-194 -291l224 -318c3.33301 -5.33301 3.66602 -10.666 0.999023 -15.999s-7 -8 -13 -8h-43c-8.66699 0 -16.5 1.33301 -23.5 4s-13.5 8.33398 -19.5 17.001l-170 247c-6.66699 9.33301 -14.167 17.333 -22.5 24s-18.166 10 -29.499 10h-90v-280
c0 -9.33301 -2.33301 -15.333 -7 -18s-11.667 -4 -21 -4h-22c-9.33301 -0 -16.5 1.33301 -21.5 4s-7.5 8.66699 -7.5 18v613z" />
    <glyph glyph-name="afii10029" unicode="&#x41b;" horiz-adv-x="669" 
d="M17 0c-2 0.666992 -4.5 2.33398 -7.5 5.00098s-3.83301 7.66699 -2.5 15l7 42c1.33301 5.33301 3.16602 8.83301 5.49902 10.5s7.16602 2.16699 14.499 1.5c13.333 0 25.666 3 36.999 9s21.666 16.667 30.999 32s17.833 36.5 25.5 63.5s14.334 61.167 20.001 102.5
s10.334 91.166 14.001 149.499s6.16699 126.5 7.5 204.5c0.666992 9.33301 3.33398 15.333 8.00098 18s11.667 4 21 4h345c9.33301 0 16.333 -1.33301 21 -4s7 -8.66699 7 -18v-613c0 -9.33301 -2.33301 -15.333 -7 -18s-11.667 -4 -21 -4h-22
c-9.33301 -0 -16.5 1.33301 -21.5 4s-7.5 8.66699 -7.5 18v561h-246c-4 -102 -9.66699 -190 -17 -264s-18.166 -135.167 -32.499 -183.5s-32.833 -84 -55.5 -107s-51 -34.5 -85 -34.5c-14 0 -27 2 -39 6z" />
    <glyph glyph-name="afii10030" unicode="&#x41c;" horiz-adv-x="858" 
d="M415 6c-12.667 0 -21.334 6 -26.001 18l-158 417l-40 121l1 -122l-16 -418c0 -9.33301 -2.5 -15.333 -7.5 -18s-12.5 -4 -22.5 -4h-19c-9.33301 -0 -16.666 1.33301 -21.999 4s-8 8.66699 -8 18l24 613c0 9.33301 2.66699 15.333 8 18s13 4 23 4h50
c16.667 0 27.667 -7.66699 33 -23l200 -534l193 534c5.33301 15.333 16.333 23 33 23h52c10 0 17.667 -1.33301 23 -4s8 -8.66699 8 -18l24 -613c0 -9.33301 -2.66699 -15.333 -8 -18s-12.666 -4 -21.999 -4h-19c-10 -0 -17.5 1.33301 -22.5 4s-7.5 8.66699 -7.5 18l-16 418
l1 122l-40 -121l-157 -417c-4.66699 -12 -13.334 -18 -26.001 -18h-36z" />
    <glyph glyph-name="afii10031" unicode="&#x41d;" horiz-adv-x="717" 
d="M97 635c0 9.33301 2.5 15.333 7.5 18s12.167 4 21.5 4h22c9.33301 0 16.333 -1.33301 21 -4s7 -8.66699 7 -18v-262h364v262c0 9.33301 2.5 15.333 7.5 18s12.167 4 21.5 4h22c9.33301 0 16.333 -1.33301 21 -4s7 -8.66699 7 -18v-613
c0 -9.33301 -2.33301 -15.333 -7 -18s-11.667 -4 -21 -4h-22c-9.33301 -0 -16.5 1.33301 -21.5 4s-7.5 8.66699 -7.5 18v277h-364v-277c0 -9.33301 -2.33301 -15.333 -7 -18s-11.667 -4 -21 -4h-22c-9.33301 -0 -16.5 1.33301 -21.5 4s-7.5 8.66699 -7.5 18v613z" />
    <glyph glyph-name="afii10032" unicode="&#x41e;" horiz-adv-x="750" 
d="M375 60c40 0 75.5 7 106.5 21s57.167 33 78.5 57s37.5 52 48.5 84s16.5 66 16.5 102c0 37.333 -5.33301 72.666 -16 105.999s-26.5 62.5 -47.5 87.5s-47.167 44.833 -78.5 59.5s-67.333 22 -108 22c-40 0 -75.5 -7 -106.5 -21s-57.167 -33 -78.5 -57s-37.5 -52 -48.5 -84
s-16.5 -66 -16.5 -102c0 -37.333 5.33301 -72.666 16 -105.999s26.5 -62.5 47.5 -87.5s47 -44.833 78 -59.5s67.167 -22 108.5 -22zM375 -13c-50 0 -95.334 8.66699 -136.001 26s-75.5 41.166 -104.5 71.499s-51.333 66.333 -67 108s-23.5 87.167 -23.5 136.5
c0 46 7.66699 89.833 23 131.5s37.333 78 66 109s63.334 55.667 104.001 74s86.667 27.5 138 27.5c50 0 95.333 -8.66699 136 -26s75.5 -41.166 104.5 -71.499s51.333 -66.5 67 -108.5s23.5 -87.333 23.5 -136c0 -46 -7.66699 -89.833 -23 -131.5s-37.333 -78 -66 -109
s-63.5 -55.667 -104.5 -74s-86.833 -27.5 -137.5 -27.5z" />
    <glyph glyph-name="afii10033" unicode="&#x41f;" horiz-adv-x="711" 
d="M613 22c0 -9.33301 -2.33301 -15.333 -7 -18s-11.667 -4 -21 -4h-22c-9.33301 -0 -16.5 1.33301 -21.5 4s-7.5 8.66699 -7.5 18v561h-357v-561c0 -9.33301 -2.5 -15.333 -7.5 -18s-12.5 -4 -22.5 -4h-21c-9.33301 -0 -16.5 1.33301 -21.5 4s-7.5 8.66699 -7.5 18v613
c0 9.33301 2.5 15.333 7.5 18s12.167 4 21.5 4h459c9.33301 0 16.333 -1.33301 21 -4s7 -8.66699 7 -18v-613z" />
    <glyph glyph-name="afii10034" unicode="&#x420;" horiz-adv-x="568" 
d="M97 635c0 9.33301 2.50098 15.334 7.50098 18.001s12.167 4 21.5 4h160c48.667 0 89.667 -5.33301 123 -16s60.166 -25.334 80.499 -44.001s34.833 -40.5 43.5 -65.5s13 -51.833 13 -80.5c0 -32 -5.16699 -61.333 -15.5 -88s-26.5 -49.667 -48.5 -69
s-50.5 -34.5 -85.5 -45.5s-77.167 -16.833 -126.5 -17.5c-15.333 0 -31 0.333008 -47 1s-31.667 1.66699 -47 3v-213c0 -9.33301 -2.33301 -15.333 -7 -18s-11.667 -4 -21 -4h-22c-9.33301 -0 -16.5 1.33301 -21.5 4s-7.5 8.66699 -7.5 18v613zM259.001 302.001
c38 0 70.3301 3.83301 96.9971 11.5s48.334 18 65.001 31s28.834 28.5 36.501 46.5s11.5 37 11.5 57c0 40.667 -14.5 73.667 -43.5 99s-75.167 38 -138.5 38h-111v-277c12.667 -2 26.334 -3.5 41.001 -4.5s28.667 -1.5 42 -1.5z" />
    <glyph glyph-name="afii10035" unicode="&#x421;" horiz-adv-x="596" 
d="M125 328c0 -48 6.33398 -88.8311 19.001 -122.498s29.834 -61.167 51.501 -82.5s46.834 -37 75.501 -47s58.667 -15 90 -15s62.833 4.66699 94.5 14s61.834 22.333 90.501 39c5.33301 3.33301 9.66602 4.16602 12.999 2.49902s5.66602 -3.83398 6.99902 -6.50098l17 -31
c1.33301 -3.33301 2 -6.66602 2 -9.99902s-2.33301 -6.66602 -7 -9.99902c-32 -24 -67.833 -42 -107.5 -54s-79.5 -18 -119.5 -18c-40.667 0 -79.5 6.5 -116.5 19.5s-69.667 33.167 -98 60.5s-50.833 62.166 -67.5 104.499s-25 93.166 -25 152.499
c0 54.667 7.5 103.5 22.5 146.5s36.5 79.333 64.5 109s62.167 52.334 102.5 68.001s86.166 23.5 137.499 23.5c20 0.666992 41.667 -0.833008 65 -4.5s45 -9.33398 65 -17.001s36.667 -17.167 50 -28.5s20 -24.333 20 -39c0 -12 -4.66699 -22.667 -14 -32
c-5.33301 -5.33301 -11.333 -6 -18 -2c-27.333 18 -53.833 31 -79.5 39s-53.5 12 -83.5 12c-33.333 0 -65 -5 -95 -15s-56.5 -26 -79.5 -48s-41.333 -50.167 -55 -84.5s-20.834 -75.5 -21.501 -123.5z" />
    <glyph glyph-name="afii10036" unicode="&#x422;" horiz-adv-x="506" 
d="M214 584h-200c-8 0 -13.167 2.16699 -15.5 6.5s-3.5 11.166 -3.5 20.499v18c0 9.33301 1.16699 16.333 3.5 21s7.5 7 15.5 7h478c8 0 13.167 -2.33301 15.5 -7s3.5 -11.667 3.5 -21v-18c0 -9.33301 -1.16699 -16.166 -3.5 -20.499s-7.5 -6.5 -15.5 -6.5h-199v-562
c0 -9.33301 -2.33301 -15.333 -7 -18s-11.667 -4 -21 -4h-22c-9.33301 -0 -16.5 1.33301 -21.5 4s-7.5 8.66699 -7.5 18v562z" />
    <glyph glyph-name="afii10037" unicode="&#x423;" horiz-adv-x="548" 
d="M359 223c-16.667 -40 -31.6592 -74.3311 -44.9922 -102.998s-27 -52.334 -41 -71.001s-29.5 -32.5 -46.5 -41.5s-37.5 -13.5 -61.5 -13.5c-16 0 -29.5 1.16699 -40.5 3.5s-21.167 5.83301 -30.5 10.5c-8 4 -10.333 12 -7 24l10 36c1.33301 5.33301 3.66602 9 6.99902 11
s8.66602 2.33301 15.999 1c36 -8 64.167 -4.33301 84.5 11s36.166 40.666 47.499 75.999l-235 467c-2.66699 5.33301 -3.16699 10.5 -1.5 15.5s6.16699 7.5 13.5 7.5h55c5.33301 0 10.166 -0.833008 14.499 -2.5s8.16602 -6.16699 11.499 -13.5l182 -386l159 386
c3.33301 7.33301 7.16602 11.833 11.499 13.5s9.16602 2.5 14.499 2.5h46c7.33301 0 11.666 -2.5 12.999 -7.5s1 -10.167 -1 -15.5z" />
    <glyph glyph-name="afii10038" unicode="&#x424;" horiz-adv-x="764" 
d="M342 681c0 9.33301 2.5 15.334 7.5 18.001s12.167 4 21.5 4h22c9.33301 0 16.333 -1.33301 21 -4s7 -8.66699 7 -18v-59c52.667 0 97.834 -7.16699 135.501 -21.5s68.5 -33.666 92.5 -57.999s41.667 -52.5 53 -84.5s17 -65.667 17 -101
c0 -38.667 -6.16699 -73.834 -18.5 -105.501s-31 -59 -56 -82s-56 -41 -93 -54s-80.5 -19.833 -130.5 -20.5v-74c0 -9.33301 -2.33301 -15.333 -7 -18s-11.667 -4 -21 -4h-22c-9.33301 0 -16.5 1.33301 -21.5 4s-7.5 8.66699 -7.5 18v74
c-52.667 0 -97.834 7.16699 -135.501 21.5s-68.5 33.666 -92.5 57.999s-41.5 52.5 -52.5 84.5s-16.5 65.667 -16.5 101c0 38 6.16699 72.833 18.5 104.5s30.833 59 55.5 82s55.5 41 92.5 54s80.5 20.167 130.5 21.5v59zM421 555.001v-392.999c40.667 0 75 5.16699 103 15.5
s50.667 24.166 68 41.499s30 37.5 38 60.5s12 47.5 12 73.5c0 60 -18.833 108.667 -56.5 146s-92.5 56 -164.5 56zM122 364.002c0 -60 18.667 -108.668 56 -146.001s92 -56 164 -56v393c-40.667 -0.666992 -75 -6.16699 -103 -16.5s-50.667 -24.166 -68 -41.499
s-29.833 -37.333 -37.5 -60s-11.5 -47 -11.5 -73z" />
    <glyph glyph-name="afii10039" unicode="&#x425;" horiz-adv-x="578" 
d="M552 21c3.33301 -4.66699 4.16602 -9.33398 2.49902 -14.001s-6.5 -7 -14.5 -7h-41c-8.66699 0 -16.334 0.833008 -23.001 2.5s-12.667 6.83398 -18 15.501l-175 259l-165 -257c-5.33301 -8.66699 -10 -14.167 -14 -16.5s-9.66699 -3.5 -17 -3.5h-49
c-5.33301 0 -9.5 2 -12.5 6s-2.83301 9 0.5 15l213 321l-197 294c-3.33301 4.66699 -4.16602 9.33398 -2.49902 14.001s6.5 7 14.5 7h41c8.66699 0 16.334 -0.833008 23.001 -2.5s12.667 -6.83398 18 -15.501l161 -239l152 237c5.33301 8.66699 10 14.167 14 16.5
s9.66699 3.5 17 3.5h49c5.33301 0 9.5 -2 12.5 -6s2.83301 -9 -0.5 -15l-200 -302z" />
    <glyph glyph-name="afii10040" unicode="&#x426;" horiz-adv-x="708" 
d="M599 0h-473c-9.33301 -0 -16.5 1.33301 -21.5 4s-7.5 8.66699 -7.5 18v613c0 9.33301 2.5 15.333 7.5 18s12.167 4 21.5 4h22c9.33301 0 16.333 -1.33301 21 -4s7 -8.66699 7 -18v-561h344v561c0 9.33301 2.5 15.333 7.5 18s12.167 4 21.5 4h22
c9.33301 0 16.333 -1.33301 21 -4s7 -8.66699 7 -18v-561h49c9.33301 0 16.333 -1.33301 21 -4s7 -8.66699 7 -18v-201c0 -9.33301 -2.33301 -15.333 -7 -18s-11.667 -4 -21 -4h-20c-9.33301 0 -16.5 1.33301 -21.5 4s-7.5 8.66699 -7.5 18v149z" />
    <glyph glyph-name="afii10041" unicode="&#x427;" horiz-adv-x="604" 
d="M427 635c0 9.33301 2.49902 15.3301 7.49902 17.9971s12.167 4 21.5 4h22c9.33301 0 16.333 -1.33301 21 -4s7 -8.66699 7 -18v-613c0 -9.33301 -2.33301 -15.333 -7 -18s-11.667 -4 -21 -4h-22c-9.33301 0 -16.5 1.33301 -21.5 4s-7.5 8.66699 -7.5 18v246
c-28.667 -14.667 -61.167 -26.667 -97.5 -36s-72.5 -14 -108.5 -14c-24 0 -46.667 3.16699 -68 9.5s-39.833 16.833 -55.5 31.5s-28.167 34.334 -37.5 59.001s-14 55 -14 91v226c0 9.33301 2.5 15.333 7.5 18s12.167 4 21.5 4h22c9.33301 0 16.333 -1.33301 21 -4
s7 -8.66699 7 -18v-193c0 -27.333 2.5 -50.166 7.5 -68.499s12.5 -33 22.5 -44s22.333 -18.833 37 -23.5s31.334 -7 50.001 -7c44 0 82.167 5.33301 114.5 16s55.833 20.334 70.5 29.001v291z" />
    <glyph glyph-name="afii10042" unicode="&#x428;" horiz-adv-x="909" 
d="M97 635c0 9.33301 2.5 15.333 7.5 18s12.167 4 21.5 4h22c9.33301 0 16.333 -1.33301 21 -4s7 -8.66699 7 -18v-561h239v561c0 9.33301 2.5 15.333 7.5 18s12.167 4 21.5 4h22c9.33301 0 16.333 -1.33301 21 -4s7 -8.66699 7 -18v-561h238v561
c0 9.33301 2.5 15.333 7.5 18s12.167 4 21.5 4h22c9.33301 0 16.333 -1.33301 21 -4s7 -8.66699 7 -18v-613c0 -9.33301 -2.33301 -15.333 -7 -18s-11.667 -4 -21 -4h-657c-9.33301 -0 -16.5 1.33301 -21.5 4s-7.5 8.66699 -7.5 18v613z" />
    <glyph glyph-name="afii10043" unicode="&#x429;" horiz-adv-x="920" 
d="M811 0h-685c-9.33301 -0 -16.5 1.33301 -21.5 4s-7.5 8.66699 -7.5 18v613c0 9.33301 2.5 15.333 7.5 18s12.167 4 21.5 4h22c9.33301 0 16.333 -1.33301 21 -4s7 -8.66699 7 -18v-561h239v561c0 9.33301 2.5 15.333 7.5 18s12.167 4 21.5 4h22
c9.33301 0 16.333 -1.33301 21 -4s7 -8.66699 7 -18v-561h238v561c0 9.33301 2.5 15.333 7.5 18s12.167 4 21.5 4h22c9.33301 0 16.333 -1.33301 21 -4s7 -8.66699 7 -18v-561h49c9.33301 0 16.333 -1.33301 21 -4s7 -8.66699 7 -18v-201
c0 -9.33301 -2.33301 -15.333 -7 -18s-11.667 -4 -21 -4h-20c-9.33301 0 -16.5 1.33301 -21.5 4s-7.5 8.66699 -7.5 18v149z" />
    <glyph glyph-name="afii10044" unicode="&#x42a;" horiz-adv-x="648" 
d="M355 417c32.667 0 64.167 -2.83301 94.5 -8.5s57.333 -15.667 81 -30s42.667 -34.166 57 -59.499s21.5 -57.666 21.5 -96.999c0 -70.667 -21 -125.334 -63 -164.001s-103 -58 -183 -58h-161c-9.33301 0 -16.5 1.33301 -21.5 4s-7.5 8.66699 -7.5 18v562h-154
c-8 0 -13.167 2.16699 -15.5 6.5s-3.5 11.166 -3.5 20.499v18c0 9.33301 1.16699 16.333 3.5 21s7.5 7 15.5 7h205c9.33301 0 16.333 -1.33301 21 -4s7 -8.66699 7 -18v-225c4.66699 0.666992 11.167 1.5 19.5 2.5s17.333 1.83301 27 2.5s19.5 1.16699 29.5 1.5
s19 0.5 27 0.5zM357 73c54 0 96.667 12 128 36s47 60 47 108c0 25.333 -5.16699 46.166 -15.5 62.499s-23.833 29.333 -40.5 39s-35.667 16.334 -57 20.001s-43 5.5 -65 5.5c-6.66699 0 -14.667 -0.166992 -24 -0.5s-19 -0.833008 -29 -1.5s-19.333 -1.5 -28 -2.5l-21 -2.5
v-264h105z" />
    <glyph glyph-name="afii10045" unicode="&#x42b;" horiz-adv-x="789" 
d="M97 635c0 9.33301 2.49902 15.332 7.49902 17.999s12.167 4 21.5 4h22c9.33301 0 16.333 -1.33301 21 -4s7 -8.66699 7 -18v-225c4.66699 0.666992 10.834 1.5 18.501 2.5s16 1.83301 25 2.5s18.167 1.16699 27.5 1.5s18 0.5 26 0.5c32.667 0 64.167 -2.83301 94.5 -8.5
s57.333 -15.667 81 -30s42.667 -34.166 57 -59.499s21.5 -57.666 21.5 -96.999c0 -70.667 -21 -125.334 -63 -164.001s-103 -58 -183 -58h-155c-9.33301 -0 -16.5 1.33301 -21.5 4s-7.5 8.66699 -7.5 18v613zM274.999 72.999c54 0 96.668 12 128.001 36s47 60 47 108
c0 25.333 -5.16699 46.166 -15.5 62.499s-23.833 29.333 -40.5 39s-35.667 16.334 -57 20.001s-43 5.5 -65 5.5c-6.66699 0 -14.334 -0.166992 -23.001 -0.5s-17.5 -0.833008 -26.5 -1.5s-17.667 -1.5 -26 -2.5l-20.5 -2.5v-264h99zM612 634.999
c0 9.33301 2.5 15.333 7.5 18s12.167 4 21.5 4h22c9.33301 0 16.333 -1.33301 21 -4s7 -8.66699 7 -18v-613c0 -9.33301 -2.33301 -15.333 -7 -18s-11.667 -4 -21 -4h-22c-9.33301 0 -16.5 1.33301 -21.5 4s-7.5 8.66699 -7.5 18v613z" />
    <glyph glyph-name="afii10046" unicode="&#x42c;" horiz-adv-x="572" 
d="M97 635c0 9.33301 2.5 15.332 7.5 17.999s12.167 4 21.5 4h22c9.33301 0 16.333 -1.33301 21 -4s7 -8.66699 7 -18v-225c4.66699 0.666992 11.167 1.5 19.5 2.5s17.333 1.83301 27 2.5s19.5 1.16699 29.5 1.5s19 0.5 27 0.5c32.667 0 64.167 -2.83301 94.5 -8.5
s57.333 -15.667 81 -30s42.667 -34.166 57 -59.499s21.5 -57.666 21.5 -96.999c0 -70.667 -21 -125.334 -63 -164.001s-103 -58 -183 -58h-161c-9.33301 -0 -16.5 1.33301 -21.5 4s-7.5 8.66699 -7.5 18v613zM281 72.999c54 0 96.667 12 128 36s47 60 47 108
c0 25.333 -5.16699 46.166 -15.5 62.499s-23.833 29.333 -40.5 39s-35.667 16.334 -57 20.001s-43 5.5 -65 5.5c-6.66699 0 -14.667 -0.166992 -24 -0.5s-19 -0.833008 -29 -1.5s-19.333 -1.5 -28 -2.5l-21 -2.5v-264h105z" />
    <glyph glyph-name="afii10047" unicode="&#x42d;" horiz-adv-x="583" 
d="M62 561c-6 -2.66699 -10.666 -2.33203 -13.999 1.00098c-2.66699 3.33301 -5.16699 7.83301 -7.5 13.5s-3.5 11.167 -3.5 16.5c0 16.667 7.66699 30.167 23 40.5s33.333 18.333 54 24s41.667 9.5 63 11.5s38.333 3 51 3c46.667 0 89.167 -6.66699 127.5 -20
s71 -33.833 98 -61.5s48 -63 63 -106s22.5 -94.5 22.5 -154.5c0 -59.333 -8.5 -110.5 -25.5 -153.5s-39.5 -78.5 -67.5 -106.5s-59.833 -48.667 -95.5 -62s-71.834 -20 -108.501 -20c-34.667 0 -71 4.83301 -109 14.5s-72 26.167 -102 49.5
c-3.33301 2.66699 -5.16602 6 -5.49902 10s0.166992 7.66699 1.5 11l14 27c4 7.33301 10 9.33301 18 6c29.333 -14 58.833 -24.833 88.5 -32.5s58.5 -11.5 86.5 -11.5c26.667 0 52.667 4.66699 78 14s48.333 23.833 69 43.5s37.667 44.667 51 75s21.666 66.5 24.999 108.5
h-309c-8 0 -13.167 2.16699 -15.5 6.5s-3.5 11.166 -3.5 20.499v18c0 9.33301 1.16699 16.333 3.5 21s7.5 7 15.5 7h308c-4 43.333 -12.667 79.333 -26 108s-30.5 51.5 -51.5 68.5s-45.167 29 -72.5 36s-57 10.5 -89 10.5c-28 0 -55.167 -3.33301 -81.5 -10
s-50.833 -15.667 -73.5 -27z" />
    <glyph glyph-name="afii10048" unicode="&#x42e;" horiz-adv-x="966" 
d="M176 299l0.00292969 -276.998c0 -9.33301 -2.33301 -15.333 -7 -18s-11.667 -4 -21 -4h-22c-9.33301 0 -16.5 1.33301 -21.5 4s-7.5 8.66699 -7.5 18v613c0 9.33301 2.5 15.333 7.5 18s12.167 4 21.5 4h22c9.33301 0 16.333 -1.33301 21 -4s7 -8.66699 7 -18v-262h125
c4 42.667 14 82.167 30 118.5s37.167 67.833 63.5 94.5s57.666 47.5 93.999 62.5s77.166 22.5 122.499 22.5c46.667 0 89.167 -8.5 127.5 -25.5s71.166 -40.5 98.499 -70.5s48.333 -65.833 63 -107.5s22 -86.834 22 -135.501c0 -48 -7 -93 -21 -135
s-34.167 -78.5 -60.5 -109.5s-58.833 -55.5 -97.5 -73.5s-82.667 -27 -132 -27c-45.333 0 -86.333 7.66699 -123 23s-68.5 36.833 -95.5 64.5s-48.5 60.667 -64.5 99s-25.333 80.166 -28 125.499h-124zM611.003 60.002c38 0 71.3301 6.83496 99.9971 20.502
s52.834 32.5 72.501 56.5s34.334 52 44.001 84s14.5 66 14.5 102c0 37.333 -4.66699 72.666 -14 105.999s-23.666 62.666 -42.999 87.999s-43.5 45.333 -72.5 60s-62.833 22 -101.5 22c-38 0 -71.5 -7 -100.5 -21s-53.167 -33 -72.5 -57s-34 -52.167 -44 -84.5
s-15 -66.5 -15 -102.5c0 -37.333 4.83301 -72.5 14.5 -105.5s24 -62 43 -87s43 -44.833 72 -59.5s63.167 -22 102.5 -22z" />
    <glyph glyph-name="afii10049" unicode="&#x42f;" horiz-adv-x="602" 
d="M286 258c-15.333 -4 -26.666 -12.666 -33.999 -25.999l-118 -213c-4 -7.33301 -8.83301 -12.333 -14.5 -15s-15.167 -4 -28.5 -4h-37c-6 0 -10.333 2.66699 -13 8s-2.33398 10.666 0.999023 15.999l149 250c-42.667 15.333 -75 39 -97 71s-33 69.333 -33 112
c0 38.667 7.5 71 22.5 97s34.833 46.5 59.5 61.5s53 25.667 85 32s65 9.5 99 9.5h150c9.33301 0 16.333 -1.33301 21 -4s7 -8.66699 7 -18v-613c0 -9.33301 -2.33301 -15.333 -7 -18s-11.667 -4 -21 -4h-22c-9.33301 -0 -16.5 1.33301 -21.5 4s-7.5 8.66699 -7.5 18v236
h-140zM139 454.001c0 -22.667 4.50391 -42 13.5039 -58s21.667 -29.167 38 -39.5s35.666 -17.833 57.999 -22.5s47.166 -7 74.499 -7h103v259h-99c-23.333 0 -46.333 -1.83301 -69 -5.5s-42.834 -10.5 -60.501 -20.5s-31.834 -23.5 -42.501 -40.5s-16 -38.833 -16 -65.5z
" />
    <glyph glyph-name="afii10065" unicode="&#x430;" horiz-adv-x="503" 
d="M453 22c0 -9.33301 -2.50391 -15.3311 -7.50391 -17.998s-12.833 -4 -23.5 -4h-9c-10 0 -17.167 1.16699 -21.5 3.5s-7.16602 8.5 -8.49902 18.5l-5 44c-21.333 -25.333 -47.333 -44.833 -78 -58.5s-63 -20.5 -97 -20.5c-27.333 0 -50.5 3.83301 -69.5 11.5
s-34.833 18 -47.5 31s-21.834 27.833 -27.501 44.5s-8.5 33.667 -8.5 51c0 27.333 5.33301 51.166 16 71.499s25.5 37.166 44.5 50.499s41.333 23.333 67 30s53.834 10 84.501 10c19.333 0 39.5 -1.33301 60.5 -4s39.167 -5.66699 54.5 -9v66
c0 16.667 -3.5 30.167 -10.5 40.5s-16.333 18.5 -28 24.5s-24.5 10.167 -38.5 12.5s-28 3.5 -42 3.5c-27.333 0 -54.333 -3.66699 -81 -11s-52 -16.333 -76 -27c-3.33301 -1.33301 -6.16602 -1.83301 -8.49902 -1.5s-4.83301 2.5 -7.5 6.5
c-3.33301 4.66699 -6 9.66699 -8 15s-3 10.333 -3 15c0 14 6.66699 26 20 36s29.833 18 49.5 24s40.334 10.333 62.001 13s40.834 4 57.501 4c35.333 0 65 -4 89 -12s43.5 -19 58.5 -33s25.833 -31 32.5 -51s10 -42 10 -66v-311zM376.996 205.002
c-6 2.66699 -13.834 4.99902 -23.501 6.99902s-20 3.66699 -31 5s-22.333 2.5 -34 3.5s-22.5 1.5 -32.5 1.5c-86 0 -129 -31.333 -129 -94c0 -20.667 6.83301 -38 20.5 -52s35.5 -21 65.5 -21c16.667 0 33.5 2.5 50.5 7.5s32.833 11.833 47.5 20.5
s27.834 18.334 39.501 29.001s20.5 21.667 26.5 33v60z" />
    <glyph glyph-name="afii10066" unicode="&#x431;" horiz-adv-x="571" 
d="M155 224c0 -50 13.667 -90.332 41 -120.999s65.333 -46 114 -46c24.667 0 46.667 4.33301 66 13s35.666 20.5 48.999 35.5s23.5 33 30.5 54s10.5 43.833 10.5 68.5s-3.16699 47.5 -9.5 68.5s-16 39.167 -29 54.5s-29.167 27.333 -48.5 36s-41.666 13 -66.999 13
c-23.333 0 -44.5 -4.33301 -63.5 -13s-35.5 -20.834 -49.5 -36.501s-24.833 -34.167 -32.5 -55.5s-11.5 -45 -11.5 -71zM546 237.001c0 -34.667 -5.16797 -67.1709 -15.501 -97.5039s-25.5 -56.833 -45.5 -79.5s-44.667 -40.5 -74 -53.5s-63 -19.5 -101 -19.5
c-80 0 -139.667 25.333 -179 76s-59 123.667 -59 219c0 60.667 5.83301 112.334 17.5 155.001s28.334 78.5 50.001 107.5s47.834 52.167 78.501 69.5s65 31.333 103 42l36.5 9c13 3.33301 25.833 7 38.5 11s24.5 8.33301 35.5 13s20.5 9.66699 28.5 15
c10 6.66699 17.333 6.66699 22 0c6.66699 -10.667 10 -22.667 10 -36s-4.33301 -24.333 -13 -33s-20 -16.167 -34 -22.5s-30.167 -11.833 -48.5 -16.5l-56.5 -15c-31.333 -8.66699 -58.333 -19.167 -81 -31.5s-41.834 -27.666 -57.501 -45.999
s-28.167 -39.666 -37.5 -63.999s-16.333 -52.833 -21 -85.5h2c18.667 40 44.5 68.833 77.5 86.5s68.5 26.834 106.5 27.501c36 0 67.5 -6.33301 94.5 -19s49.667 -29.667 68 -51s32 -46 41 -74s13.5 -57 13.5 -87z" />
    <glyph glyph-name="afii10067" unicode="&#x432;" horiz-adv-x="492" 
d="M83 462c0 9.33301 2.33008 15.333 6.99707 18s12 4 22 4h170c56.667 0 99.334 -11.833 128.001 -35.5s43 -52.834 43 -87.501c0 -21.333 -6.66699 -42.166 -20 -62.499s-34.666 -35.166 -63.999 -44.499v-3c36 -7.33301 62 -20.166 78 -38.499s24 -41.5 24 -69.5
c0 -20.667 -4.16699 -39.834 -12.5 -57.501s-20.166 -32.834 -35.499 -45.501s-33.833 -22.5 -55.5 -29.5s-45.5 -10.5 -71.5 -10.5h-184c-10 -0 -17.333 1.33301 -22 4s-7 8.66699 -7 18v440zM289.997 67c34 0 58.833 7.5 74.5 22.5s23.5 33.833 23.5 56.5
c0 46.667 -30.333 70 -91 70h-138v-149h131zM284.997 280c25.333 0 45.833 6.66699 61.5 20s23.5 30 23.5 50c0 45.333 -30.667 68 -92 68h-119v-138h126z" />
    <glyph glyph-name="afii10068" unicode="&#x433;" horiz-adv-x="376" 
d="M160 22c0 -9.33301 -2.5 -15.333 -7.5 -18s-12.167 -4 -21.5 -4h-18c-10 -0 -17.5 1.33301 -22.5 4s-7.5 8.66699 -7.5 18v436c0 17.333 10 26 30 26h269c9.33301 0 15.333 -2.5 18 -7.5s4 -12.5 4 -22.5v-10c0 -10 -1.33301 -17.5 -4 -22.5s-8.66699 -7.5 -18 -7.5h-222
v-392z" />
    <glyph glyph-name="afii10069" unicode="&#x434;" horiz-adv-x="560" 
d="M515 69c10 0 17.499 -1.33301 22.499 -4s7.5 -8.66699 7.5 -18v-175c0 -9.33301 -2.5 -15.333 -7.5 -18s-12.5 -4 -22.5 -4h-14c-10 0 -17.333 1.33301 -22 4s-7 8.66699 -7 18v128h-390v-128c0 -9.33301 -2.33301 -15.333 -7 -18s-12 -4 -22 -4h-14
c-10 0 -17.5 1.33301 -22.5 4s-7.5 8.66699 -7.5 18v175c0 9.33301 2.5 15.333 7.5 18s12.5 4 22.5 4h26c16.667 20.667 30.334 45.167 41.001 73.5s18.667 59.333 24 93s9 69.667 11 108s3 77.833 3 118.5c0 9.33301 2.33301 15.333 7 18s12 4 22 4h276
c10 0 17.333 -1.33301 22 -4s7 -8.66699 7 -18v-393h37zM213.999 414c-0.666992 -68 -4.66699 -131.5 -12 -190.5s-24.333 -110.5 -51 -154.5h251v345h-188z" />
    <glyph glyph-name="afii10070" unicode="&#x435;" horiz-adv-x="530" 
d="M295 497c34 0 63.998 -4.66602 89.998 -13.999s47.667 -22.5 65 -39.5s30.5 -37.5 39.5 -61.5s13.5 -50 13.5 -78c0 -13.333 -0.666992 -25.5 -2 -36.5s-3.33301 -22.167 -6 -33.5c-1.33301 -6 -4 -9.83301 -8 -11.5s-8.66699 -2.5 -14 -2.5h-338
c0.666992 -28.667 5.83398 -53.167 15.501 -73.5s22.334 -37 38.001 -50s33.5 -22.5 53.5 -28.5s40.667 -9 62 -9c24 0 48.5 2.83301 73.5 8.5s48.5 12.834 70.5 21.501c10 3.33301 17.333 -0.666992 22 -12l10 -23c3.33301 -7.33301 3.5 -12.833 0.5 -16.5
s-6.16699 -6.16699 -9.5 -7.5c-26.667 -14 -55.167 -24.667 -85.5 -32s-61.166 -11 -92.499 -11s-61.333 5 -90 15s-53.834 25.167 -75.501 45.5s-39 46.166 -52 77.499s-19.5 68.666 -19.5 111.999c0 36.667 5.16699 70.834 15.5 102.501s25.5 59.167 45.5 82.5
s44.833 41.666 74.5 54.999s64.167 20 103.5 20zM429.998 310.001c0 18.667 -3.33301 35.335 -10 50.002s-16 27.167 -28 37.5s-26.167 18.166 -42.5 23.499s-33.833 8 -52.5 8c-42.667 0 -78.5 -11.333 -107.5 -34s-47.167 -58.334 -54.5 -107.001h295v22z" />
    <glyph glyph-name="afii10072" unicode="&#x436;" horiz-adv-x="730" 
d="M341 219l-90.9961 -0.000976562l-105 -169c-23.333 -36.667 -48.666 -55 -75.999 -55c-8.66699 0 -16.334 0.833008 -23.001 2.5s-13.334 5.16699 -20.001 10.5c-8.66699 8.66699 -7.33398 17.667 3.99902 27c5.33301 4.66699 10 9.16699 14 13.5
s7.83301 8.83301 11.5 13.5s7.5 9.83398 11.5 15.501l14 19.5l104 158l-138 207c-4.66699 7.33301 -6.33398 12.833 -5.00098 16.5s4.33301 5.5 9 5.5h48c7.33301 0 13.333 -1.33301 18 -4s9.33398 -7 14.001 -13l118 -183h92v178c0 9.33301 2.66699 15.333 8 18s13 4 23 4
h16c10.667 0 18.5 -1.33301 23.5 -4s7.5 -8.66699 7.5 -18v-178h92l118 183c4.66699 6 9.33398 10.333 14.001 13s10.667 4 18 4h48c4.66699 0 7.66699 -1.83301 9 -5.5s-0.333984 -9.16699 -5.00098 -16.5l-138 -207l104 -158c10.667 -14.667 19 -26.5 25 -35.5
s14.667 -17.833 26 -26.5c11.333 -9.33301 12.666 -18.333 3.99902 -27c-6.66699 -5.33301 -13.334 -8.83301 -20.001 -10.5s-14.334 -2.5 -23.001 -2.5c-27.333 0 -52.666 18.333 -75.999 55l-105 169h-91v-197c0 -9.33301 -2.5 -15.333 -7.5 -18s-12.833 -4 -23.5 -4h-16
c-10 -0 -17.667 1.33301 -23 4s-8 8.66699 -8 18v197z" />
    <glyph glyph-name="afii10073" unicode="&#x437;" horiz-adv-x="426" 
d="M305 355c0 27.333 -8.5 46.1699 -25.5 56.5029s-37.5 15.5 -61.5 15.5c-26.667 0 -52.834 -3 -78.501 -9s-48.834 -15 -69.501 -27c-6.66699 -3.33301 -12 -1.66602 -16 5.00098c-3.33301 4.66699 -6 9.5 -8 14.5s-3 9.83301 -3 14.5c0 13.333 6 24.666 18 33.999
s27 16.666 45 21.999s37.333 9.33301 58 12s39.667 4 57 4c28.667 0 53.167 -3.5 73.5 -10.5s37 -16.5 50 -28.5s22.5 -26 28.5 -42s9 -32.667 9 -50c0 -28.667 -8.5 -52.834 -25.5 -72.501s-36.5 -33.167 -58.5 -40.5c32 -6.66699 56.333 -20.667 73 -42
s25 -46.666 25 -75.999c0 -20.667 -3.83301 -40 -11.5 -58s-19.5 -33.667 -35.5 -47s-36.167 -23.833 -60.5 -31.5s-52.833 -11.5 -85.5 -11.5c-27.333 0 -54.666 3.16699 -81.999 9.5s-51.666 15.166 -72.999 26.499c-10.667 6 -17 11 -19 15s-1.33301 10 2 18l10 23
c2 5.33301 4.16699 9 6.5 11s5.33301 2.83301 9 2.5s8.5 -1.83301 14.5 -4.5s14 -6 24 -10c20.667 -8.66699 40.334 -14.5 59.001 -17.5s36.667 -4.5 54 -4.5c36 0 63.5 7.16699 82.5 21.5s28.5 34.166 28.5 59.499c0 16.667 -3.33301 30.167 -10 40.5
s-15.834 18 -27.501 23s-25 8.33301 -40 10s-30.5 2.5 -46.5 2.5h-55c-8.66699 0 -14 1.16699 -16 3.5s-3 7.83301 -3 16.5v21c0 8.66699 1 14.334 3 17.001s7.33301 4 16 4h60c24 0 43 3.16699 57 9.5s24.5 13.666 31.5 21.999s11.5 17 13.5 26s3 16.5 3 22.5z" />
    <glyph glyph-name="afii10074" unicode="&#x438;" horiz-adv-x="573" 
d="M182 27c-8 -10 -14.501 -17 -19.501 -21s-11.5 -6 -19.5 -6h-30c-10 -0 -17.5 1.33301 -22.5 4s-7.5 8.66699 -7.5 18v440c0 9.33301 2.5 15.333 7.5 18s12.5 4 22.5 4h18c9.33301 0 16.5 -1.33301 21.5 -4s7.5 -8.66699 7.5 -18v-277l-14 -108l68 106l214 279
c6.66699 7.33301 12.334 12.833 17.001 16.5s12.667 5.5 24 5.5h21c9.33301 0 16.5 -1.33301 21.5 -4s7.5 -8.66699 7.5 -18v-440c0 -9.33301 -2.5 -15.333 -7.5 -18s-12.167 -4 -21.5 -4h-18c-10 -0 -17.333 1.33301 -22 4s-7 8.66699 -7 18v276l14 107l-68 -104z" />
    <glyph glyph-name="afii10075" unicode="&#x439;" horiz-adv-x="573" 
d="M463 606c-16.667 -31.333 -39.166 -54.833 -67.499 -70.5s-58.166 -23.5 -89.499 -23.5s-61.333 7.83301 -90 23.5s-51.667 39.167 -69 70.5c-2.66699 4.66699 -4.5 10 -5.5 16s3.5 12 13.5 18l20 12c6.66699 4 12.5 5.16699 17.5 3.5s9.16699 -5.16699 12.5 -10.5
c4 -6.66699 9.16699 -14 15.5 -22s13.5 -15.5 21.5 -22.5s17.333 -12.833 28 -17.5s22.667 -7 36 -7s25.166 2.33301 35.499 7s19.5 10.5 27.5 17.5s15.167 14.5 21.5 22.5s11.833 15.333 16.5 22c3.33301 5.33301 7.16602 8.83301 11.499 10.5s9.83301 0.5 16.5 -3.5
l22 -12c9.33301 -6 13.333 -12 12 -18s-3.33301 -11.333 -6 -16zM182.001 27c-8 -10 -14.501 -17 -19.501 -21s-11.5 -6 -19.5 -6h-30c-10 -0 -17.5 1.33301 -22.5 4s-7.5 8.66699 -7.5 18v440c0 9.33301 2.5 15.333 7.5 18s12.5 4 22.5 4h18
c9.33301 0 16.5 -1.33301 21.5 -4s7.5 -8.66699 7.5 -18v-277l-14 -108l68 106l214 279c6.66699 7.33301 12.334 12.833 17.001 16.5s12.667 5.5 24 5.5h21c9.33301 0 16.5 -1.33301 21.5 -4s7.5 -8.66699 7.5 -18v-440c0 -9.33301 -2.5 -15.333 -7.5 -18
s-12.167 -4 -21.5 -4h-18c-10 -0 -17.333 1.33301 -22 4s-7 8.66699 -7 18v276l14 107l-68 -104z" />
    <glyph glyph-name="afii10076" unicode="&#x43a;" horiz-adv-x="485" 
d="M249 219l-89.999 0.000976562v-197c0 -9.33301 -2.5 -15.333 -7.5 -18s-12.5 -4 -22.5 -4h-17c-10 0 -17.5 1.33301 -22.5 4s-7.5 8.66699 -7.5 18v440c0 9.33301 2.5 15.333 7.5 18s12.5 4 22.5 4h17c10 0 17.5 -1.33301 22.5 -4s7.5 -8.66699 7.5 -18v-176h91l141 181
c5.33301 6 10 10.333 14 13s9.66699 4 17 4h48c7.33301 0 11.333 -2.33301 12 -7s-1 -9.66699 -5 -15l-161 -206l119 -159c10.667 -14.667 19.5 -26.334 26.5 -35.001s16.167 -17.667 27.5 -27c11.333 -10 12.666 -19 3.99902 -27c-6 -5.33301 -12.833 -8.83301 -20.5 -10.5
s-15.167 -2.5 -22.5 -2.5c-29.333 0 -57 18.333 -83 55z" />
    <glyph glyph-name="afii10077" unicode="&#x43b;" horiz-adv-x="517" 
d="M63 -5c-12 0 -22.833 2.83203 -32.5 8.49902s-16.5 15.167 -20.5 28.5c-1.33301 6 -1 11 1 15s6 6 12 6c23.333 -1.33301 41.5 9.66699 54.5 33s22.833 54.333 29.5 93s10.667 82.334 12 131.001s2 98 2 148c0 17.333 10.667 26 32 26h278c21.333 0 32 -8.66699 32 -26
v-436c0 -9.33301 -2.5 -15.333 -7.5 -18s-12.833 -4 -23.5 -4h-15c-10 -0 -17.667 1.33301 -23 4s-8 8.66699 -8 18v392h-192c-0.666992 -74 -3.5 -137.5 -8.5 -190.5s-12.5 -96.333 -22.5 -130s-23.167 -58.5 -39.5 -74.5s-36.5 -24 -60.5 -24z" />
    <glyph glyph-name="afii10078" unicode="&#x43c;" horiz-adv-x="664" 
d="M328 4c-12 0 -20.6709 6 -26.0039 18l-124 299l-23 62l2 -61l-13 -300c0 -10 -2.66699 -16.167 -8 -18.5s-12.333 -3.5 -21 -3.5h-14c-8 0 -14.833 1.16699 -20.5 3.5s-8.5 8.5 -8.5 18.5l18 440c0.666992 9.33301 3.83398 15.333 9.50098 18s12.167 4 19.5 4h40
c7.33301 0 13.833 -2 19.5 -6s9.83398 -9 12.501 -15l152 -376l150 376c2.66699 6 6.83398 11 12.501 15s12.167 6 19.5 6h44c7.33301 0 13.833 -1.33301 19.5 -4s8.83398 -8.66699 9.50098 -18l18 -440c0 -10 -2.83301 -16.167 -8.5 -18.5s-12.5 -3.5 -20.5 -3.5h-14
c-8.66699 0 -15.667 1.16699 -21 3.5s-8 8.5 -8 18.5l-13 300l2 61l-23 -62l-124 -299c-5.33301 -12 -14 -18 -26 -18h-32z" />
    <glyph glyph-name="afii10079" unicode="&#x43d;" horiz-adv-x="569" 
d="M515 22c0 -9.33301 -2.5 -15.333 -7.5 -18s-12.167 -4 -21.5 -4h-18c-10 -0 -17.333 1.33301 -22 4s-7 8.66699 -7 18v192h-279v-192c0 -9.33301 -2.5 -15.333 -7.5 -18s-12.167 -4 -21.5 -4h-18c-10 -0 -17.5 1.33301 -22.5 4s-7.5 8.66699 -7.5 18v440
c0 9.33301 2.5 15.333 7.5 18s12.5 4 22.5 4h18c9.33301 0 16.5 -1.33301 21.5 -4s7.5 -8.66699 7.5 -18v-178h279v178c0 9.33301 2.33301 15.333 7 18s12 4 22 4h18c9.33301 0 16.5 -1.33301 21.5 -4s7.5 -8.66699 7.5 -18v-440z" />
    <glyph glyph-name="afii10080" unicode="&#x43e;" horiz-adv-x="581" 
d="M306 57c54 0 95.833 16.667 125.5 50s44.5 78.333 44.5 135s-15 101.667 -45 135s-71.667 50 -125 50c-54 0 -95.833 -16.667 -125.5 -50s-44.5 -78.333 -44.5 -135s15 -101.667 45 -135s71.667 -50 125 -50zM306 -13c-38 0 -72.5 6.16699 -103.5 18.5
s-57.333 29.666 -79 51.999s-38.334 49.166 -50.001 80.499s-17.5 66 -17.5 104s5.83301 72.667 17.5 104s28.334 58.166 50.001 80.499s47.834 39.666 78.501 51.999s65.334 18.5 104.001 18.5c38 0 72.5 -6.16699 103.5 -18.5s57.333 -29.666 79 -51.999
s38.334 -49.166 50.001 -80.499s17.5 -66 17.5 -104s-5.83301 -72.667 -17.5 -104s-28.334 -58.166 -50.001 -80.499s-47.834 -39.666 -78.501 -51.999s-65.334 -18.5 -104.001 -18.5z" />
    <glyph glyph-name="afii10081" unicode="&#x43f;" horiz-adv-x="563" 
d="M160 414v-392c0 -9.33301 -2.5 -15.333 -7.5 -18s-12.167 -4 -21.5 -4h-18c-10 -0 -17.5 1.33301 -22.5 4s-7.5 8.66699 -7.5 18v436c0 17.333 10 26 30 26h367c19.333 0 29 -8.66699 29 -26v-436c0 -9.33301 -2.5 -15.333 -7.5 -18s-12.167 -4 -21.5 -4h-17
c-10 -0 -17.667 1.33301 -23 4s-8 8.66699 -8 18v392h-272z" />
    <glyph glyph-name="afii10082" unicode="&#x440;" horiz-adv-x="577" 
d="M92 368c0 25.333 -1.16895 45.499 -3.50195 60.499s-4.5 26.167 -6.5 33.5c-2 6 -0.666992 10.667 4 14c8.66699 6.66699 19.667 10 33 10c14.667 0 25.5 -5 32.5 -15s12.167 -22.333 15.5 -37c24.667 20 52.167 35.5 82.5 46.5s60.833 16.5 91.5 16.5s59 -5.5 85 -16.5
s48.333 -26.833 67 -47.5s33.167 -46 43.5 -76s15.5 -64.333 15.5 -103c0 -43.333 -7 -81.666 -21 -114.999s-33 -61.333 -57 -84s-51.833 -39.667 -83.5 -51s-65.167 -17 -100.5 -17c-20 0 -40.667 2.16699 -62 6.5s-40.666 10.5 -57.999 18.5v-248
c0 -9.33301 -2.66699 -15.333 -8 -18s-12.666 -4 -21.999 -4h-17c-10.667 0 -18.5 1.33301 -23.5 4s-7.5 8.66699 -7.5 18v604zM469.998 254.999c0 30 -3.66699 55.835 -11 77.502s-17.166 39.5 -29.499 53.5s-27.166 24.333 -44.499 31s-36 10 -56 10
c-14.667 0 -29.334 -1.66699 -44.001 -5s-28.834 -7.83301 -42.501 -13.5s-26.667 -12.334 -39 -20.001s-23.5 -15.834 -33.5 -24.501v-281c17.333 -10 36.5 -16.833 57.5 -20.5s41.833 -5.5 62.5 -5.5c30.667 0 57.167 5.16699 79.5 15.5s41 24.5 56 42.5
s26.167 39 33.5 63s11 49.667 11 77z" />
    <glyph glyph-name="afii10083" unicode="&#x441;" horiz-adv-x="475" 
d="M308 497c14 0 30.501 -1.33691 49.501 -4.00391s37 -7 54 -13s31.5 -14 43.5 -24s18 -22.333 18 -37c0 -8.66699 -2.33301 -17.667 -7 -27c-4 -6.66699 -9.33301 -8.33398 -16 -5.00098c-25.333 12.667 -49.833 22.167 -73.5 28.5s-47.5 9.5 -71.5 9.5
c-56.667 0 -99 -16.667 -127 -50s-42 -77.666 -42 -132.999c0 -56.667 15 -101.667 45 -135s72 -50 126 -50c21.333 0 42.5 2.83301 63.5 8.5s43.833 16.167 68.5 31.5c5.33301 3.33301 9.66602 4.33301 12.999 3s6.33301 -3.66602 9 -6.99902l16 -21
c4 -5.33301 5.66699 -10.166 5 -14.499s-4.33398 -9.16602 -11.001 -14.499c-24 -19.333 -50.833 -33.5 -80.5 -42.5s-59.5 -13.5 -89.5 -13.5c-78.667 0 -139.167 22.833 -181.5 68.5s-63.5 107.834 -63.5 186.501c0 82 22.333 145 67 189s106.334 66 185.001 66z" />
    <glyph glyph-name="afii10084" unicode="&#x442;" horiz-adv-x="415" 
d="M259 414v-392c0 -9.33301 -2.5 -15.333 -7.5 -18s-12.167 -4 -21.5 -4h-18c-10 -0 -17.5 1.33301 -22.5 4s-7.5 8.66699 -7.5 18v392h-155c-9.33301 0 -15.333 2.5 -18 7.5s-4 12.5 -4 22.5v10c0 10 1.33301 17.5 4 22.5s8.66699 7.5 18 7.5h388c10 0 16 -2.5 18 -7.5
s3 -12.5 3 -22.5v-10c0 -10 -1 -17.5 -3 -22.5s-8 -7.5 -18 -7.5h-156z" />
    <glyph glyph-name="afii10085" unicode="&#x443;" horiz-adv-x="483" 
d="M305 -51l-28.001 -73.998c-10 -25.333 -21.833 -48.166 -35.5 -68.499s-29.5 -37 -47.5 -50s-39.333 -18.833 -64 -17.5c-15.333 0.666992 -29.333 5.16699 -42 13.5s-19.667 23.166 -21 44.499c0 8.66699 1.33301 16 4 22c2 6.66699 6.66699 8 14 4c12 -6 24 -9 36 -9
s23.167 3.16699 33.5 9.5s19.666 14.666 27.999 24.999s16 22 23 35s13.167 26.167 18.5 39.5l27 77h-22c-7.33301 0 -14.166 0.666992 -20.499 2s-11.166 5.66602 -14.499 12.999l-152 448c-1.33301 5.33301 -0.5 10.166 2.5 14.499s7.16699 6.5 12.5 6.5h40
c15.333 0 25.333 -7.33301 30 -22l135 -416h2l146 416c4.66699 14.667 14.667 22 30 22h35c5.33301 0 9.5 -2.16699 12.5 -6.5s3.83301 -9.16602 2.5 -14.499z" />
    <glyph glyph-name="afii10086" unicode="&#x444;" horiz-adv-x="708" 
d="M409 -236c0 -9.33301 -2.5 -15.3301 -7.5 -17.9971s-12.5 -4 -22.5 -4h-17c-10.667 0 -18.5 1.33301 -23.5 4s-7.5 8.66699 -7.5 18v223c-48.667 1.33301 -90.5 8.66602 -125.5 21.999s-63.667 31.5 -86 54.5s-38.833 50.167 -49.5 81.5s-16 66 -16 104
c0 36 5.66699 69 17 99s28.5 55.833 51.5 77.5s51.833 38.667 86.5 51s75.334 19.166 122.001 20.499v199c0 9.33301 2.5 15.333 7.5 18s12.833 4 23.5 4h17c10 0 17.5 -1.33301 22.5 -4s7.5 -8.66699 7.5 -18v-199c46 -1.33301 86.333 -8.33301 121 -21
s63.5 -29.834 86.5 -51.501s40.167 -47.334 51.5 -77.001s17 -62.5 17 -98.5c0 -38 -5.33301 -72.667 -16 -104s-27.167 -58.5 -49.5 -81.5s-50.833 -41.167 -85.5 -54.5s-76.334 -20.666 -125.001 -21.999v-223zM134 249.003c0 -64 17.667 -112.833 53 -146.5
s83.333 -51.167 144 -52.5v384c-64 -2 -112.833 -19.5 -146.5 -52.5s-50.5 -77.167 -50.5 -132.5zM605 249.003c0 55.333 -16.833 99.5 -50.5 132.5s-82.167 50.5 -145.5 52.5v-384c60 1.33301 107.667 18.833 143 52.5s53 82.5 53 146.5z" />
    <glyph glyph-name="afii10087" unicode="&#x445;" horiz-adv-x="458" 
d="M450 20c3.33301 -5.33301 4.5 -10 3.5 -14s-3.5 -6 -7.5 -6h-54c-13.333 -0 -23.333 5.33301 -30 16l-122 172l-119 -172c-4.66699 -6.66699 -9 -11 -13 -13s-9.66699 -3 -17 -3h-49c-4 -0 -6.66699 1.83301 -8 5.5s0 8.5 4 14.5l161 227l-150 218
c-3.33301 5.33301 -4.33301 9.83301 -3 13.5s4 5.5 8 5.5h54c12 0 22 -5.33301 30 -16l111 -165l107 165c4 6.66699 8.5 11 13.5 13s10.5 3 16.5 3h47c4 0 6.66699 -1.83301 8 -5.5s0.333008 -8.16699 -3 -13.5l-147 -221z" />
    <glyph glyph-name="afii10088" unicode="&#x446;" horiz-adv-x="573" 
d="M533 70c10 0 17.5 -1.33301 22.5 -4s7.5 -8.66699 7.5 -18v-176c0 -9.33301 -2.5 -15.333 -7.5 -18s-12.5 -4 -22.5 -4h-14c-10 0 -17.333 1.33301 -22 4s-7 8.66699 -7 18v128h-377c-10 -0 -17.5 1.33301 -22.5 4s-7.5 8.66699 -7.5 18v440c0 9.33301 2.5 15.333 7.5 18
s12.5 4 22.5 4h18c9.33301 0 16.5 -1.33301 21.5 -4s7.5 -8.66699 7.5 -18v-392h260v392c0 9.33301 2.33301 15.333 7 18s12 4 22 4h18c9.33301 0 16.5 -1.33301 21.5 -4s7.5 -8.66699 7.5 -18v-392h37z" />
    <glyph glyph-name="afii10089" unicode="&#x447;" horiz-adv-x="472" 
d="M342 462c0 9.33301 2.33496 15.3369 7.00195 18.0039s12 4 22 4h18c9.33301 0 16.5 -1.33301 21.5 -4s7.5 -8.66699 7.5 -18v-440c0 -9.33301 -2.5 -15.333 -7.5 -18s-12.167 -4 -21.5 -4h-18c-10 0 -17.333 1.33301 -22 4s-7 8.66699 -7 18v172
c-2 -0.666992 -6.83301 -2.83398 -14.5 -6.50098s-17.834 -7.5 -30.501 -11.5s-27.5 -7.5 -44.5 -10.5s-36.5 -4.5 -58.5 -4.5c-46.667 0 -82.667 12.333 -108 37s-38 66 -38 124v140c0 9.33301 2.33301 15.333 7 18s12 4 22 4h18c9.33301 0 16.5 -1.33301 21.5 -4
s7.5 -8.66699 7.5 -18v-137c0 -18.667 2.16699 -33.834 6.5 -45.501s10.666 -20.834 18.999 -27.501s18.5 -11.334 30.5 -14.001s26 -4 42 -4c10.667 0 21.667 0.666992 33 2s22.333 3 33 5s20.667 4.16699 30 6.5s17.333 4.5 24 6.5v208z" />
    <glyph glyph-name="afii10090" unicode="&#x448;" horiz-adv-x="749" 
d="M112 0c-19.333 0 -29 8.66699 -29 26v436c0 9.33301 2.5 15.333 7.5 18s12.167 4 21.5 4h17c10 0 17.667 -1.33301 23 -4s8 -8.66699 8 -18v-392h190v392c0 9.33301 2.5 15.333 7.5 18s12.5 4 22.5 4h17c10 0 17.5 -1.33301 22.5 -4s7.5 -8.66699 7.5 -18v-392h190v392
c0 9.33301 2.5 15.333 7.5 18s12.5 4 22.5 4h17c10 0 17.667 -1.33301 23 -4s8 -8.66699 8 -18v-436c0 -17.333 -10 -26 -30 -26h-553z" />
    <glyph glyph-name="afii10091" unicode="&#x449;" horiz-adv-x="771" 
d="M761 -128c0 -9.33301 -2.5 -15.333 -7.5 -18s-12.5 -4 -22.5 -4h-14c-10 0 -17.333 1.33301 -22 4s-7 8.66699 -7 18v128h-576c-19.333 0 -29 8.66699 -29 26v436c0 9.33301 2.5 15.333 7.5 18s12.167 4 21.5 4h17c10 0 17.667 -1.33301 23 -4s8 -8.66699 8 -18v-392h190
v392c0 9.33301 2.5 15.333 7.5 18s12.5 4 22.5 4h17c10 0 17.5 -1.33301 22.5 -4s7.5 -8.66699 7.5 -18v-392h190v392c0 9.33301 2.5 15.333 7.5 18s12.5 4 22.5 4h17c10 0 17.667 -1.33301 23 -4s8 -8.66699 8 -18l-1 -392h37c10 0 17.5 -1.33301 22.5 -4
s7.5 -8.66699 7.5 -18v-176z" />
    <glyph glyph-name="afii10092" unicode="&#x44a;" horiz-adv-x="515" 
d="M162 0c-10 0 -17.498 1.33301 -22.498 4s-7.5 8.66699 -7.5 18v395h-116c-9.33301 0 -15.333 2.5 -18 7.5s-4 12.167 -4 21.5v10c0 9.33301 1.33301 16.333 4 21s8.66699 7 18 7h164c9.33301 0 16.5 -1.33301 21.5 -4s7.5 -8.66699 7.5 -18v-155
c13.333 1.33301 28.166 2.5 44.499 3.5s31.166 1.5 44.499 1.5c34 0 63 -4 87 -12s43.833 -18.833 59.5 -32.5s27.167 -29.5 34.5 -47.5s11 -36.667 11 -56c0 -21.333 -4 -42 -12 -62s-20 -37.5 -36 -52.5s-36.167 -27 -60.5 -36s-52.833 -13.5 -85.5 -13.5h-134z
M298.002 66c36 0 63.999 8.5 83.999 25.5s30 40.167 30 69.5c0 22 -8.66699 41.5 -26 58.5s-44 25.5 -80 25.5c-14.667 0 -30.167 -0.333008 -46.5 -1s-33.166 -2 -50.499 -4v-174h89z" />
    <glyph glyph-name="afii10093" unicode="&#x44b;" horiz-adv-x="638" 
d="M584 22c0 -9.33301 -2.5 -15.333 -7.5 -18s-12.167 -4 -21.5 -4h-18c-10 -0 -17.5 1.33301 -22.5 4s-7.5 8.66699 -7.5 18v440c0 9.33301 2.5 15.333 7.5 18s12.5 4 22.5 4h18c9.33301 0 16.5 -1.33301 21.5 -4s7.5 -8.66699 7.5 -18v-440zM113 0
c-10 0 -17.5 1.33301 -22.5 4s-7.5 8.66699 -7.5 18v440c0 9.33301 2.5 15.333 7.5 18s12.5 4 22.5 4h18c9.33301 0 16.5 -1.33301 21.5 -4s7.5 -8.66699 7.5 -18v-155c13.333 1.33301 27.5 2.5 42.5 3.5s29.167 1.5 42.5 1.5c34 0 63 -4 87 -12s43.833 -18.833 59.5 -32.5
s27.167 -29.5 34.5 -47.5s11 -36.667 11 -56c0 -21.333 -4 -42 -12 -62s-20 -37.5 -36 -52.5s-36.167 -27 -60.5 -36s-52.833 -13.5 -85.5 -13.5h-130zM245 66c36 0 64 8.5 84 25.5s30 40.167 30 69.5c0 22 -8.66699 41.5 -26 58.5s-44 25.5 -80 25.5
c-14.667 0 -29.5 -0.333008 -44.5 -1s-31.167 -2 -48.5 -4v-174h85z" />
    <glyph glyph-name="afii10094" unicode="&#x44c;" horiz-adv-x="466" 
d="M113 0c-10 0 -17.498 1.33301 -22.498 4s-7.5 8.66699 -7.5 18v440c0 9.33301 2.5 15.333 7.5 18s12.5 4 22.5 4h18c9.33301 0 16.5 -1.33301 21.5 -4s7.5 -8.66699 7.5 -18v-155c13.333 1.33301 28.166 2.5 44.499 3.5s31.166 1.5 44.499 1.5c34 0 63 -4 87 -12
s43.833 -18.833 59.5 -32.5s27.167 -29.5 34.5 -47.5s11 -36.667 11 -56c0 -21.333 -4 -42 -12 -62s-20 -37.5 -36 -52.5s-36.167 -27 -60.5 -36s-52.833 -13.5 -85.5 -13.5h-134zM249.002 66c36 0 63.999 8.5 83.999 25.5s30 40.167 30 69.5c0 22 -8.66699 41.5 -26 58.5
s-44 25.5 -80 25.5c-14.667 0 -30.167 -0.333008 -46.5 -1s-33.166 -2 -50.499 -4v-174h89z" />
    <glyph glyph-name="afii10095" unicode="&#x44d;" horiz-adv-x="468" 
d="M363 276c-2 28.667 -7.99805 52.6689 -17.998 72.002s-22.5 34.666 -37.5 45.999s-32 19.5 -51 24.5s-38.5 7.5 -58.5 7.5c-21.333 0 -42.833 -2.16699 -64.5 -6.5s-43.167 -10.166 -64.5 -17.499c-4 -1.33301 -7 -1.33301 -9 0c-4 3.33301 -7.33301 8.66602 -10 15.999
s-4 13.333 -4 18c0.666992 12.667 6.33398 23 17.001 31s23.834 14.167 39.501 18.5s32.667 7.33301 51 9s35.833 2.5 52.5 2.5c32.667 0 63.167 -4.83301 91.5 -14.5s53.166 -24.334 74.499 -44.001s38.166 -44.667 50.499 -75s19.166 -66.5 20.499 -108.5
c0 -49.333 -6.66699 -91 -20 -125s-31.166 -61.5 -53.499 -82.5s-48 -36.333 -77 -46s-59.167 -14.5 -90.5 -14.5c-26 0 -51.333 2.33301 -76 7s-48.334 11.667 -71.001 21c-2.66699 1.33301 -5.5 3.5 -8.5 6.5s-3.83301 8.5 -2.5 16.5l6 29c1.33301 7.33301 4.5 11 9.5 11
s9.16699 -0.666992 12.5 -2c18 -6 36.833 -10.333 56.5 -13s38.5 -4 56.5 -4c20.667 0 41.167 2.83301 61.5 8.5s38.666 14.667 54.999 27s30 28 41 47s17.833 41.833 20.5 68.5h-210c-9.33301 0 -15.333 2.5 -18 7.5s-4 12.5 -4 22.5v6c0 10 1.33301 17.5 4 22.5
s8.66699 7.5 18 7.5h210z" />
    <glyph glyph-name="afii10096" unicode="&#x44e;" horiz-adv-x="765" 
d="M160 214l0.00292969 -192.005c0 -9.33301 -2.5 -15.333 -7.5 -18s-12.167 -4 -21.5 -4h-18c-10 0 -17.5 1.33301 -22.5 4s-7.5 8.66699 -7.5 18v440c0 9.33301 2.5 15.333 7.5 18s12.5 4 22.5 4h18c9.33301 0 16.5 -1.33301 21.5 -4s7.5 -8.66699 7.5 -18v-178h95
c4 32 12.5 61.167 25.5 87.5s29.833 48.833 50.5 67.5s44.834 33 72.501 43s58.5 15 92.5 15c36.667 0 70.167 -6.16699 100.5 -18.5s56 -29.666 77 -51.999s37.333 -49.166 49 -80.499s17.5 -66 17.5 -104s-5.83301 -72.667 -17.5 -104s-28 -58.166 -49 -80.499
s-46.667 -39.666 -77 -51.999s-63.833 -18.5 -100.5 -18.5c-34.667 0 -66.334 5.33301 -95.001 16s-53.334 25.834 -74.001 45.501s-37.334 43.5 -50.001 71.5s-20.334 59.333 -23.001 94h-94zM496.003 426.995c-53.333 0 -93.667 -16.667 -121 -50s-41 -78.333 -41 -135
s14 -101.667 42 -135s68 -50 120 -50s92.167 16.667 120.5 50s42.5 78.333 42.5 135s-14 101.667 -42 135s-68.333 50 -121 50z" />
    <glyph glyph-name="afii10097" unicode="&#x44f;" horiz-adv-x="497" 
d="M367 242v178.999h-118c-34.667 0 -59.667 -8.16699 -75 -24.5s-23 -35.833 -23 -58.5c0 -29.333 9.83301 -52.666 29.5 -69.999s47.5 -26 83.5 -26h103zM261 174.999l-88.999 -124.999c-25.333 -36.667 -52.666 -55 -81.999 -55c-9.33301 0 -17.5 1.33301 -24.5 4
s-13.833 8.33398 -20.5 17.001c-2.66699 4.66699 -2 8.66699 2 12c21.333 19.333 42.333 42.333 63 69l73 95c-32.667 7.33301 -59.834 23.666 -81.501 48.999s-32.5 54.666 -32.5 87.999c0 48 15.667 85.333 47 112s72.666 41 123.999 43h173c10 0 17.5 -1.33301 22.5 -4
s7.5 -8.66699 7.5 -18v-440c0 -9.33301 -2.33301 -15.333 -7 -18s-12 -4 -22 -4h-17c-10 0 -17.5 1.33301 -22.5 4s-7.5 8.66699 -7.5 18v153h-106z" />
    <glyph glyph-name="afii10071" unicode="&#x451;" horiz-adv-x="530" 
d="M128 597c0 15.333 4.5 27.833 13.5 37.5s21.167 14.5 36.5 14.5c16.667 0 30.167 -4.83301 40.5 -14.5s15.5 -22.167 15.5 -37.5s-5.16699 -27.666 -15.5 -36.999s-23.833 -14 -40.5 -14c-15.333 0 -27.5 4.66699 -36.5 14s-13.5 21.666 -13.5 36.999zM344 597
c0 15.333 4.66699 27.833 14 37.5s22.333 14.5 39 14.5c15.333 0 28.166 -4.83301 38.499 -14.5s15.5 -22.167 15.5 -37.5s-5.16699 -27.666 -15.5 -36.999s-23.166 -14 -38.499 -14c-16.667 0 -29.667 4.66699 -39 14s-14 21.666 -14 36.999zM295 497
c34 0 63.998 -4.66602 89.998 -13.999s47.667 -22.5 65 -39.5s30.5 -37.5 39.5 -61.5s13.5 -50 13.5 -78c0 -13.333 -0.666992 -25.5 -2 -36.5s-3.33301 -22.167 -6 -33.5c-1.33301 -6 -4 -9.83301 -8 -11.5s-8.66699 -2.5 -14 -2.5h-338
c0.666992 -28.667 5.83398 -53.167 15.501 -73.5s22.334 -37 38.001 -50s33.5 -22.5 53.5 -28.5s40.667 -9 62 -9c24 0 48.5 2.83301 73.5 8.5s48.5 12.834 70.5 21.501c10 3.33301 17.333 -0.666992 22 -12l10 -23c3.33301 -7.33301 3.5 -12.833 0.5 -16.5
s-6.16699 -6.16699 -9.5 -7.5c-26.667 -14 -55.167 -24.667 -85.5 -32s-61.166 -11 -92.499 -11s-61.333 5 -90 15s-53.834 25.167 -75.501 45.5s-39 46.166 -52 77.499s-19.5 68.666 -19.5 111.999c0 36.667 5.16699 70.834 15.5 102.501s25.5 59.167 45.5 82.5
s44.833 41.666 74.5 54.999s64.167 20 103.5 20zM429.998 310.001c0 18.667 -3.33301 35.335 -10 50.002s-16 27.167 -28 37.5s-26.167 18.166 -42.5 23.499s-33.833 8 -52.5 8c-42.667 0 -78.5 -11.333 -107.5 -34s-47.167 -58.334 -54.5 -107.001h295v22z" />
    <glyph glyph-name="endash" unicode="&#x2013;" horiz-adv-x="654" 
d="M556 292c9.33301 0 15.333 -2.16699 18 -6.5s4 -10.833 4 -19.5v-18c0 -8.66699 -1.33301 -15.167 -4 -19.5s-8.66699 -6.5 -18 -6.5h-459c-9.33301 0 -15.333 2.16699 -18 6.5s-4 10.833 -4 19.5v18c0 8.66699 1.33301 15.167 4 19.5s8.66699 6.5 18 6.5h459z" />
    <glyph glyph-name="emdash" unicode="&#x2014;" horiz-adv-x="858" 
d="M758 292c9.33301 0 15.333 -2.16699 18 -6.5s4 -10.833 4 -19.5v-18c0 -8.66699 -1.33301 -15.167 -4 -19.5s-8.66699 -6.5 -18 -6.5h-659c-9.33301 0 -15.333 2.16699 -18 6.5s-4 10.833 -4 19.5v18c0 8.66699 1.33301 15.167 4 19.5s8.66699 6.5 18 6.5h659z" />
    <glyph glyph-name="quoteleft" unicode="&#x2018;" horiz-adv-x="237" 
d="M108 509c-10 0 -18.333 1.99805 -25 5.99805s-12.167 9.16699 -16.5 15.5s-7.33301 13.333 -9 21s-2.5 15.167 -2.5 22.5c0 18.667 3.33301 36.334 10 53.001s14.834 31.834 24.501 45.501s19.667 25.667 30 36s19.166 18.833 26.499 25.5c4 4 8.33301 4.33301 13 1
l19 -14c4.66699 -3.33301 4.66699 -7.33301 0 -12c-13.333 -14 -24.5 -28.5 -33.5 -43.5s-13.5 -31.167 -13.5 -48.5c0 -10 2.16699 -19.667 6.5 -29s11.833 -18.333 22.5 -27c4.66699 -3.33301 5.66699 -8.33301 3 -15c-7.33301 -12.667 -15.833 -22 -25.5 -28
s-19.5 -9 -29.5 -9z" />
    <glyph glyph-name="quoteright" unicode="&#x2019;" horiz-adv-x="234" 
d="M132 671c10 0 18.333 -2.00098 25 -6.00098s12.167 -9.16699 16.5 -15.5s7.33301 -13.333 9 -21s2.5 -15.167 2.5 -22.5c0 -19.333 -3.33301 -37.166 -10 -53.499s-14.834 -31.333 -24.501 -45s-19.667 -25.667 -30 -36s-19.166 -18.833 -26.499 -25.5
c-4 -4 -8.33301 -4.33301 -13 -1l-19 14c-4.66699 3.33301 -4.66699 7.33301 0 12c13.333 14 24.5 28.5 33.5 43.5s13.5 31.167 13.5 48.5c0 10 -2.16699 19.667 -6.5 29s-11.833 18.333 -22.5 27c-4.66699 3.33301 -5.66699 8.33301 -3 15
c7.33301 12.667 15.833 22 25.5 28s19.5 9 29.5 9z" />
    <glyph glyph-name="quotedblleft" unicode="&#x201c;" horiz-adv-x="385" 
d="M108 509c-10 0 -18.333 1.99805 -25 5.99805s-12.167 9.16699 -16.5 15.5s-7.33301 13.333 -9 21s-2.5 15.167 -2.5 22.5c0 18.667 3.33301 36.334 10 53.001s14.834 31.834 24.501 45.501s19.667 25.667 30 36s19.166 18.833 26.499 25.5c4 4 8.33301 4.33301 13 1
l19 -14c4.66699 -3.33301 4.66699 -7.33301 0 -12c-13.333 -14 -24.5 -28.5 -33.5 -43.5s-13.5 -31.167 -13.5 -48.5c0 -10 2.16699 -19.667 6.5 -29s11.833 -18.333 22.5 -27c4.66699 -3.33301 5.66699 -8.33301 3 -15c-7.33301 -12.667 -15.833 -22 -25.5 -28
s-19.5 -9 -29.5 -9zM256 508.998c-10 0 -18.333 1.99805 -25 5.99805s-12.167 9.16699 -16.5 15.5s-7.33301 13.333 -9 21s-2.5 15.167 -2.5 22.5c0 18.667 3.33301 36.334 10 53.001s14.834 31.834 24.501 45.501s19.667 25.667 30 36s19.166 18.833 26.499 25.5
c4 4 8.33301 4.33301 13 1l19 -14c4.66699 -3.33301 4.66699 -7.33301 0 -12c-13.333 -14 -24.5 -28.5 -33.5 -43.5s-13.5 -31.167 -13.5 -48.5c0 -10 2.16699 -19.667 6.5 -29s11.833 -18.333 22.5 -27c4.66699 -3.33301 5.66699 -8.33301 3 -15
c-7.33301 -12.667 -15.833 -22 -25.5 -28s-19.5 -9 -29.5 -9z" />
    <glyph glyph-name="quotedblright" unicode="&#x201d;" horiz-adv-x="382" 
d="M132 671c10 0 18.333 -2.00098 25 -6.00098s12.167 -9.16699 16.5 -15.5s7.33301 -13.333 9 -21s2.5 -15.167 2.5 -22.5c0 -19.333 -3.33301 -37.166 -10 -53.499s-14.834 -31.333 -24.501 -45s-19.667 -25.667 -30 -36s-19.166 -18.833 -26.499 -25.5
c-4 -4 -8.33301 -4.33301 -13 -1l-19 14c-4.66699 3.33301 -4.66699 7.33301 0 12c13.333 14 24.5 28.5 33.5 43.5s13.5 31.167 13.5 48.5c0 10 -2.16699 19.667 -6.5 29s-11.833 18.333 -22.5 27c-4.66699 3.33301 -5.66699 8.33301 -3 15
c7.33301 12.667 15.833 22 25.5 28s19.5 9 29.5 9zM280 670.999c10 0 18.333 -2.00098 25 -6.00098s12.167 -9.16699 16.5 -15.5s7.33301 -13.333 9 -21s2.5 -15.167 2.5 -22.5c0 -19.333 -3.33301 -37.166 -10 -53.499s-14.834 -31.333 -24.501 -45
s-19.667 -25.667 -30 -36s-19.166 -18.833 -26.499 -25.5c-4 -4 -8.33301 -4.33301 -13 -1l-19 14c-4.66699 3.33301 -4.66699 7.33301 0 12c13.333 14 24.5 28.5 33.5 43.5s13.5 31.167 13.5 48.5c0 10 -2.16699 19.667 -6.5 29s-11.833 18.333 -22.5 27
c-4.66699 3.33301 -5.66699 8.33301 -3 15c7.33301 12.667 15.833 22 25.5 28s19.5 9 29.5 9z" />
    <glyph glyph-name="quotedblbase" unicode="&#x201e;" horiz-adv-x="400" 
d="M283 91c10 0 18.333 -2.00098 25 -6.00098s12.167 -9.16699 16.5 -15.5s7.33301 -13.333 9 -21s2.5 -15.167 2.5 -22.5c0 -19.333 -3.33301 -37.166 -10 -53.499s-14.834 -31.333 -24.501 -45s-19.667 -25.667 -30 -36s-19.166 -18.833 -26.499 -25.5
c-4 -4 -8.33301 -4.33301 -13 -1l-19 14c-4.66699 3.33301 -4.66699 7.33301 0 12c13.333 14 24.5 28.5 33.5 43.5s13.5 31.167 13.5 48.5c0 10 -2.16699 19.667 -6.5 29s-11.833 18.333 -22.5 27c-4.66699 3.33301 -5.66699 8.33301 -3 15
c7.33301 12.667 15.833 22 25.5 28s19.5 9 29.5 9zM135 90.999c10 0 18.333 -2.00098 25 -6.00098s12.167 -9.16699 16.5 -15.5s7.33301 -13.333 9 -21s2.5 -15.167 2.5 -22.5c0 -19.333 -3.33301 -37.166 -10 -53.499s-14.834 -31.333 -24.501 -45s-19.667 -25.667 -30 -36
s-19.166 -18.833 -26.499 -25.5c-4 -4 -8.33301 -4.33301 -13 -1l-19 14c-4.66699 3.33301 -4.66699 7.33301 0 12c13.333 14 24.5 28.5 33.5 43.5s13.5 31.167 13.5 48.5c0 10 -2.16699 19.667 -6.5 29s-11.833 18.333 -22.5 27c-4.66699 3.33301 -5.66699 8.33301 -3 15
c7.33301 12.667 15.833 22 25.5 28s19.5 9 29.5 9z" />
    <glyph glyph-name="bullet" unicode="&#x2022;" horiz-adv-x="362" 
d="M68 248c0 16 3.16699 31.333 9.5 46s14.666 27.334 24.999 38.001s22.666 19.167 36.999 25.5s29.5 9.5 45.5 9.5s31.333 -3.16699 46 -9.5s27.334 -14.833 38.001 -25.5s19.167 -23.334 25.5 -38.001s9.5 -30 9.5 -46s-3.16699 -31.167 -9.5 -45.5
s-14.833 -26.666 -25.5 -36.999s-23.334 -18.666 -38.001 -24.999s-30 -9.5 -46 -9.5s-31.167 3.16699 -45.5 9.5s-26.666 14.666 -36.999 24.999s-18.666 22.666 -24.999 36.999s-9.5 29.5 -9.5 45.5z" />
    <glyph glyph-name="ellipsis" unicode="&#x2026;" horiz-adv-x="649" 
d="M118 -17c-14 0 -26.667 4.33301 -38 13s-17 21.667 -17 39c0 18 5.66699 31.833 17 41.5s24 14.5 38 14.5c13.333 0 26 -4.33301 38 -13s18 -21.667 18 -39c0 -18.667 -6 -32.5 -18 -41.5s-24.667 -13.833 -38 -14.5zM324 -17c-14 0 -26.667 4.33301 -38 13
s-17 21.667 -17 39c0 18 5.66699 31.833 17 41.5s24 14.5 38 14.5c13.333 0 26 -4.33301 38 -13s18 -21.667 18 -39c0 -18.667 -6 -32.5 -18 -41.5s-24.667 -13.833 -38 -14.5zM529 -17c-14 0 -26.667 4.33301 -38 13s-17 21.667 -17 39c0 18 5.66699 31.833 17 41.5
s24 14.5 38 14.5c13.333 0 26 -4.33301 38 -13s18 -21.667 18 -39c0 -18.667 -6 -32.5 -18 -41.5s-24.667 -13.833 -38 -14.5z" />
    <glyph glyph-name="perthousand" unicode="&#x2030;" horiz-adv-x="1096" 
d="M633 129c0 32.667 -7.33203 56.6689 -21.999 72.002s-31.667 23 -51 23c-18.667 0 -35.5 -7.5 -50.5 -22.5s-22.5 -39.167 -22.5 -72.5c0 -16 2.16699 -29.5 6.5 -40.5s10.166 -20 17.499 -27s15.333 -12 24 -15s17.667 -4.5 27 -4.5c12 0 22.333 2.66699 31 8
s16 12.166 22 20.499s10.5 17.666 13.5 27.999s4.5 20.5 4.5 30.5zM560.001 -12.998c-25.333 0 -46.998 4 -64.998 12s-32.667 18.833 -44 32.5s-19.833 29.167 -25.5 46.5s-8.5 35.333 -8.5 54c0 18 2.66699 35.833 8 53.5s13.666 33.334 24.999 47.001
s26.166 24.667 44.499 33s40.166 12.5 65.499 12.5s47 -4.16699 65 -12.5s32.833 -19.333 44.5 -33s20.167 -29.334 25.5 -47.001s8 -35.5 8 -53.5c0 -18.667 -2.83301 -36.667 -8.5 -54s-14.167 -32.833 -25.5 -46.5s-26.166 -24.5 -44.499 -32.5s-39.833 -12 -64.5 -12z
M260.003 482.002c0 32.667 -7.33203 56.6689 -21.999 72.002s-31.667 23 -51 23c-18.667 0 -35.5 -7.5 -50.5 -22.5s-22.5 -39.167 -22.5 -72.5c0 -16 2.16699 -29.5 6.5 -40.5s10.166 -20 17.499 -27s15.333 -12 24 -15s17.667 -4.5 27 -4.5c12 0 22.333 2.66699 31 8
s16 12.166 22 20.499s10.5 17.666 13.5 27.999s4.5 20.5 4.5 30.5zM187.004 340.004c-25.333 0 -46.998 4 -64.998 12s-32.667 18.833 -44 32.5s-19.833 29.167 -25.5 46.5s-8.5 35.333 -8.5 54c0 18 2.66699 35.833 8 53.5s13.666 33.334 24.999 47.001
s26.166 24.667 44.499 33s40.166 12.5 65.499 12.5s47 -4.16699 65 -12.5s32.833 -19.333 44.5 -33s20.167 -29.334 25.5 -47.001s8 -35.5 8 -53.5c0 -18.667 -2.83301 -36.667 -8.5 -54s-14.167 -32.833 -25.5 -46.5s-26.166 -24.5 -44.499 -32.5s-39.833 -12 -64.5 -12z
M535.006 606.004c6 8.66699 11.833 14.334 17.5 17.001s13.5 4 23.5 4h29c7.33301 0 12 -2.16699 14 -6.5s1.33301 -9.16602 -2 -14.499l-398 -585c-5.33301 -8.66699 -11 -14.334 -17 -17.001s-14 -4 -24 -4h-31c-7.33301 0 -12 2.16699 -14 6.5s-1.33301 9.16602 2 14.499
zM978.006 129.004c0 32.667 -7.33203 56.6689 -21.999 72.002s-31.667 23 -51 23c-18.667 0 -35.5 -7.5 -50.5 -22.5s-22.5 -39.167 -22.5 -72.5c0 -16 2.16699 -29.5 6.5 -40.5s10.166 -20 17.499 -27s15.333 -12 24 -15s17.667 -4.5 27 -4.5c12 0 22.333 2.66699 31 8
s16 12.166 22 20.499s10.5 17.666 13.5 27.999s4.5 20.5 4.5 30.5zM905.007 -12.9941c-25.333 0 -46.998 4 -64.998 12s-32.667 18.833 -44 32.5s-19.833 29.167 -25.5 46.5s-8.5 35.333 -8.5 54c0 18 2.66699 35.833 8 53.5s13.666 33.334 24.999 47.001
s26.166 24.667 44.499 33s40.166 12.5 65.499 12.5s47 -4.16699 65 -12.5s32.833 -19.333 44.5 -33s20.167 -29.334 25.5 -47.001s8 -35.5 8 -53.5c0 -18.667 -2.83301 -36.667 -8.5 -54s-14.167 -32.833 -25.5 -46.5s-26.166 -24.5 -44.499 -32.5s-39.833 -12 -64.5 -12z
" />
    <glyph glyph-name="Euro" unicode="&#x20ac;" horiz-adv-x="725" 
d="M556 410c18.667 0 25.9941 -7.99805 21.9941 -23.998l-6 -18c-3.33301 -9.33301 -6.66602 -15.166 -9.99902 -17.499s-9.66602 -3.5 -18.999 -3.5h-246c-0.666992 -6.66699 -1 -13 -1 -19v-19v-15c0 -4.66699 0.333008 -9.66699 1 -15h221c18.667 0 26 -8 22 -24l-6 -18
c-3.33301 -9.33301 -6.66602 -15.166 -9.99902 -17.499s-9.66602 -3.5 -18.999 -3.5h-201c10 -51.333 30 -91 60 -119s72 -42 126 -42c24 0 47.833 3.83301 71.5 11.5s48.834 19.167 75.501 34.5c6.66699 2.66699 11.667 0.666992 15 -6l13 -23
c2.66699 -4.66699 3.5 -8.33398 2.5 -11.001s-2.83301 -5.33398 -5.5 -8.00098c-9.33301 -10 -21 -19 -35 -27s-29 -15 -45 -21s-32.333 -10.5 -49 -13.5s-32 -4.5 -46 -4.5c-76 0 -134.833 20 -176.5 60s-68.167 96.333 -79.5 169h-58c-7.33301 0 -13.333 1.66699 -18 5
s-6 9 -4 17l6 21c2 7.33301 4.66699 12.5 8 15.5s10 4.5 20 4.5h40v30v19c0 6 0.333008 12.333 1 19h-53c-7.33301 0 -13.333 1.66699 -18 5s-6 9 -4 17l6 21c2 7.33301 4.66699 12.5 8 15.5s10 4.5 20 4.5h50c15.333 68.667 45.5 123 90.5 163s101.833 60 170.5 60
c18 0 37 -1.5 57 -4.5s38.5 -7.5 55.5 -13.5s31 -13.667 42 -23s16.5 -20 16.5 -32c-0.666992 -4.66699 -1.83398 -8.83398 -3.50098 -12.501s-3.83398 -7.5 -6.50098 -11.5c-2.66699 -3.33301 -5.16699 -5.33301 -7.5 -6s-5.16602 -0.333984 -8.49902 0.999023
c-49.333 22.667 -97.666 34 -144.999 34c-51.333 0 -92.666 -13.5 -123.999 -40.5s-53 -65.167 -65 -114.5h249z" />
    <glyph glyph-name="afii61352" unicode="&#x2116;" horiz-adv-x="1018" 
d="M439 226l71 -115l-10 114v381c0 9.33301 2.5 15.166 7.5 17.499s12.167 3.5 21.5 3.5h13c9.33301 0 16.5 -1.16699 21.5 -3.5s7.5 -8.16602 7.5 -17.499v-584c0 -9.33301 -2.5 -15.333 -7.5 -18s-12.167 -4 -21.5 -4h-23c-7.33301 -0 -13.5 2.33301 -18.5 7
s-9.5 9.66699 -13.5 15l-262 387l-64 106l8 -101v-392c0 -9.33301 -2.5 -15.333 -7.5 -18s-12.5 -4 -22.5 -4h-13c-9.33301 -0 -16.5 1.33301 -21.5 4s-7.5 8.66699 -7.5 18v584c0 9.33301 2.5 15.166 7.5 17.499s12.167 3.5 21.5 3.5h23c6.66699 0 12.667 -2.16699 18 -6.5
s10 -9.16602 14 -14.499zM684 0c-8 0 -13.167 2.16699 -15.5 6.5s-3.5 10.166 -3.5 17.499v29c0 8 1.16699 13.833 3.5 17.5s7.5 5.5 15.5 5.5h237c8 0 13.167 -1.83301 15.5 -5.5s3.5 -9.5 3.5 -17.5v-29c0 -7.33301 -1.16699 -13.166 -3.5 -17.499s-7.5 -6.5 -15.5 -6.5
h-237zM876 286c0 34 -7.66797 58.833 -23.001 74.5s-32.666 23.5 -51.999 23.5c-18.667 0 -35.667 -7.83301 -51 -23.5s-23 -40.5 -23 -74.5c0 -16 2.33301 -29.667 7 -41s10.5 -20.5 17.5 -27.5s15 -12.167 24 -15.5s18.167 -5 27.5 -5c12 0 22.667 2.66699 32 8
s17 12.166 23 20.499s10.5 17.833 13.5 28.5s4.5 21.334 4.5 32.001zM800.999 141c-25.333 0 -47.1689 4.16699 -65.502 12.5s-33.5 19.333 -45.5 33s-20.833 29.334 -26.5 47.001s-8.5 36.167 -8.5 55.5c0 18.667 2.66699 37 8 55s14 34 26 48s27.167 25.333 45.5 34
s40.5 13 66.5 13s48.333 -4.33301 67 -13s33.834 -20 45.501 -34s20.334 -30 26.001 -48s8.5 -36.333 8.5 -55c0 -19.333 -2.83301 -37.833 -8.5 -55.5s-14.5 -33.334 -26.5 -47.001s-27.167 -24.667 -45.5 -33s-40.5 -12.5 -66.5 -12.5z" />
    <glyph glyph-name="trademark" unicode="&#x2122;" horiz-adv-x="756" 
d="M143 598h-78c-10 0 -16.333 2.16699 -19 6.5s-4 10.5 -4 18.5v7c0 9.33301 1.33301 16.166 4 20.499s9 6.5 19 6.5h219c10 0 16.333 -2.16699 19 -6.5s4 -11.166 4 -20.499v-7c0 -8 -1.33301 -14.167 -4 -18.5s-9 -6.5 -19 -6.5h-78v-253c0 -10.667 -2 -17.167 -6 -19.5
s-10.667 -3.5 -20 -3.5h-10c-8 0 -14.5 1.16699 -19.5 3.5s-7.5 8.83301 -7.5 19.5v253zM621 501l3.99805 60h-1l-18 -60l-57 -156c-4.66699 -13.333 -13.667 -20 -27 -20h-15c-13.333 0 -22.333 6.66699 -27 20l-58 156l-17 60h-1l4 -60l-5 -157
c0 -9.33301 -2.16699 -15.333 -6.5 -18s-11.166 -4 -20.499 -4h-8c-9.33301 0 -16 1.33301 -20 4s-6 8.66699 -6 18l10 291c0.666992 7.33301 3.5 12.833 8.5 16.5s11.5 5.5 19.5 5.5h24c7.33301 0 13.333 -2.16699 18 -6.5s8.33398 -9.83301 11.001 -16.5
c15.333 -40 29.166 -77.833 41.499 -113.5s26.166 -73.5 41.499 -113.5l40 113l41 114c2.66699 6.66699 6.33398 12.167 11.001 16.5s10.667 6.5 18 6.5h22c8 0 14.5 -1.83301 19.5 -5.5s7.83301 -9.16699 8.5 -16.5l12 -291c0 -9.33301 -2.16699 -15.333 -6.5 -18
s-11.166 -4 -20.499 -4h-8c-9.33301 0 -16 1.33301 -20 4s-6 8.66699 -6 18z" />
    <glyph glyph-name="onethird" unicode="&#x2153;" horiz-adv-x="902" 
d="M261 3c-3.33301 -5.33301 -7.5 -8.83301 -12.5 -10.5s-11.167 -0.166992 -18.5 4.5l-19 12c-5.33301 3.33301 -9.16602 7.16602 -11.499 11.499s-1.16602 9.83301 3.50098 16.5l406 582c3.33301 5.33301 7.5 8.83301 12.5 10.5s11.167 0.166992 18.5 -4.5l20 -12
c5.33301 -3.33301 9.16602 -7.16602 11.499 -11.499s1.16602 -9.83301 -3.50098 -16.5zM702 -12c-10.667 0 -22.667 0.833984 -36 2.50098s-25.833 4.83398 -37.5 9.50098s-21.5 11 -29.5 19s-12 18.333 -12 31c0 8 1.33301 14.667 4 20c3.33301 6.66699 8.66602 8 15.999 4
c14.667 -7.33301 29.834 -13.333 45.501 -18s30.834 -7 45.501 -7c18.667 0 35.167 4.16699 49.5 12.5s21.5 23.166 21.5 44.499c0 12.667 -2.83301 22.834 -8.5 30.501s-12.667 13.5 -21 17.5s-17.666 6.5 -27.999 7.5s-20.5 1.5 -30.5 1.5h-12
c-13.333 0 -20 5.66699 -20 17v8c0 4.66699 0.666992 8.16699 2 10.5s4.33301 6.16602 9 11.499l76 89h-122c-9.33301 0 -15.166 1.66699 -17.499 5s-3.5 9.66602 -3.5 18.999v16c0 8.66699 1.16699 14.667 3.5 18s8.16602 5 17.499 5h192
c9.33301 0 15.166 -1.66699 17.499 -5s3.5 -9.33301 3.5 -18v-9c0 -4.66699 -1 -8.66699 -3 -12s-5.66699 -8 -11 -14l-80 -91c35.333 -4 61.666 -16 78.999 -36s26 -43.333 26 -70c0 -36 -10.5 -64.833 -31.5 -86.5s-55.833 -32.5 -104.5 -32.5zM254 309.001
c0 -9.33301 -2 -15.332 -6 -17.999s-10.667 -4 -20 -4h-16c-9.33301 0 -16 1.33301 -20 4s-6 8.66699 -6 18v239l-49 -30c-9.33301 -5.33301 -17 -4 -23 4l-13 19c-6 10 -4.66699 18.333 4 25l82 52c8.66699 5.33301 17.667 8 27 8h14c9.33301 0 16 -1.33301 20 -4
s6 -8.33398 6 -17.001v-296z" />
    <glyph glyph-name="arrowleft" unicode="&#x2190;" horiz-adv-x="891" 
d="M278 510c8.66699 9.33301 18.001 10 28.001 2l19 -17c5.33301 -4.66699 8.66602 -9.16699 9.99902 -13.5s-1 -9.83301 -7 -16.5l-163 -181h622c11.333 0 18.5 -2.5 21.5 -7.5s4.5 -12.167 4.5 -21.5v-14c0 -9.33301 -1.5 -16.833 -4.5 -22.5s-10.167 -8.5 -21.5 -8.5
h-622l166 -175c6 -6.66699 8.33301 -12.167 7 -16.5s-4.66602 -8.83301 -9.99902 -13.5l-19 -17c-10 -8 -19.333 -7.33301 -28 2l-223 246c-2 2.66699 -3.33301 6 -4 10s0.666016 8 3.99902 12z" />
    <glyph glyph-name="arrowup" unicode="&#x2191;" horiz-adv-x="650" 
d="M588 534c9.33301 -8.66699 10 -18.001 2 -28.001l-17 -18c-4.66699 -5.33301 -9.16699 -8.66602 -13.5 -9.99902s-9.83301 1 -16.5 7l-181 163v-622c0 -11.333 -2.5 -18.5 -7.5 -21.5s-12.167 -4.5 -21.5 -4.5h-14c-9.33301 0 -16.833 1.5 -22.5 4.5
s-8.5 10.167 -8.5 21.5v622l-181 -163c-6.66699 -6 -12.167 -8.33301 -16.5 -7s-8.83301 4.66602 -13.5 9.99902l-17 19c-8 10 -7.33301 19.333 2 28l252 220c2.66699 2 6 3.33301 10 4s8 -0.666016 12 -3.99902z" />
    <glyph glyph-name="arrowright" unicode="&#x2192;" horiz-adv-x="891" 
d="M833 258c3.33301 -4 4.66699 -8 4 -12s-2 -7.33301 -4 -10l-223 -246c-8.66699 -9.33301 -18 -10 -28 -2l-19 17c-5.33301 4.66699 -8.66602 9.16699 -9.99902 13.5s1 9.83301 7 16.5l166 175h-622c-11.333 0 -18.5 2.83301 -21.5 8.5s-4.5 13.167 -4.5 22.5v14
c0 9.33301 1.5 16.5 4.5 21.5s10.167 7.5 21.5 7.5h622l-163 181c-6 6.66699 -8.33301 12.167 -7 16.5s4.66602 8.83301 9.99902 13.5l19 17c10 8 19.333 7.33301 28 -2z" />
    <glyph glyph-name="arrowdown" unicode="&#x2193;" horiz-adv-x="650" 
d="M62 221c-9.33301 8.66699 -10 18.001 -2 28.001l17 18c4.66699 5.33301 9.16699 8.66602 13.5 9.99902s9.83301 -1 16.5 -7l181 -163v622c0 11.333 2.5 18.5 7.5 21.5s12.167 4.5 21.5 4.5h14c9.33301 0 16.833 -1.5 22.5 -4.5s8.5 -10.167 8.5 -21.5v-622l181 163
c6.66699 6 12.167 8.33301 16.5 7s8.83301 -4.66602 13.5 -9.99902l17 -19c8 -10 7.33301 -19.333 -2 -28l-252 -220c-2.66699 -2 -6 -3.33301 -10 -4s-8 0.666016 -12 3.99902z" />
    <glyph glyph-name="minus" unicode="&#x2212;" horiz-adv-x="533" 
d="M457 333c9.33301 0 15.333 -2.16699 18 -6.5s4 -11.166 4 -20.499v-13c0 -8.66699 -1.33301 -15.334 -4 -20.001s-8.66699 -7 -18 -7h-381c-9.33301 0 -15.333 2.16699 -18 6.5s-4 11.166 -4 20.499v13c0 8.66699 1.33301 15.334 4 20.001s8.66699 7 18 7h381z" />
    <glyph glyph-name="radical" unicode="&#x221a;" horiz-adv-x="649" 
d="M381 21c-3.33301 -8 -7.50098 -13.5 -12.501 -16.5s-11.5 -4.5 -19.5 -4.5h-39c-8 0 -14.5 1.5 -19.5 4.5s-9.16699 8.5 -12.5 16.5l-143 362h-82c-10 0 -16.333 2 -19 6s-4 9.66699 -4 17v18c0 7.33301 1.33301 13 4 17s9 6 19 6h116c14 0 23.333 -6 28 -18l95 -249
l15 -40.5l12 -33.5l11 -32h4l9 31c3.33301 9.33301 6.83301 20.333 10.5 33s7.83398 26 12.501 40l174 479c4.66699 12 14 18 28 18h30c18 0 25 -6 21 -18z" />
    <glyph glyph-name="infinity" unicode="&#x221e;" horiz-adv-x="751" 
d="M344 244c-16.667 18.667 -35.834 35.167 -57.501 49.5s-46.5 21.833 -74.5 22.5c-27.333 0 -47.166 -7.66699 -59.499 -23s-18.5 -31.666 -18.5 -48.999c0 -8.66699 1.5 -17.334 4.5 -26.001s7.83301 -16.5 14.5 -23.5s15 -12.667 25 -17s21.667 -6.5 35 -6.5
c27.333 0 51.5 7.33301 72.5 22s40.5 31.667 58.5 51zM221 380c20 0 38.668 -3.33301 56.001 -10s32.666 -14.834 45.999 -24.501s25 -19.667 35 -30s17.667 -19.166 23 -26.499c5.33301 6.66699 12.833 15.167 22.5 25.5s21.334 20.333 35.001 30
s29.334 17.834 47.001 24.501s36.834 10 57.501 10s40.334 -2.66699 59.001 -8s35 -13.666 49 -24.999s25.167 -25.666 33.5 -42.999s12.5 -37.666 12.5 -60.999c0 -22.667 -4.16699 -42.5 -12.5 -59.5s-19.5 -31 -33.5 -42s-30.333 -19.333 -49 -25
s-38.334 -8.5 -59.001 -8.5s-39.667 3.5 -57 10.5s-32.833 15.167 -46.5 24.5s-25.334 19.166 -35.001 29.499s-17.5 19.166 -23.5 26.499c-4.66699 -6.66699 -11.667 -15.167 -21 -25.5s-20.833 -20.333 -34.5 -30s-29.334 -18 -47.001 -25s-36.834 -10.5 -57.501 -10.5
s-40.334 2.83301 -59.001 8.5s-35 14 -49 25s-25.167 25 -33.5 42s-12.5 36.833 -12.5 59.5c0 23.333 4.16699 43.666 12.5 60.999s19.5 31.666 33.5 42.999s30.333 19.833 49 25.5s38.334 8.5 59.001 8.5zM419.001 244c18 -19.333 37.499 -36.333 58.499 -51
s45.167 -22 72.5 -22c13.333 0 25 2.16699 35 6.5s18.167 10 24.5 17s11.166 14.833 14.499 23.5s5 17.334 5 26.001c0 17.333 -6.16699 33.666 -18.5 48.999s-32.166 23 -59.499 23c-28 0 -52.667 -7.5 -74 -22.5s-40.666 -31.5 -57.999 -49.5z" />
    <glyph glyph-name="approxequal" unicode="&#x2248;" horiz-adv-x="644" 
d="M572 367c7.33301 -6 10.502 -11.667 9.50195 -17s-3.16699 -10.666 -6.5 -15.999c-17.333 -24 -37.333 -42.667 -60 -56s-47.667 -20 -75 -20c-19.333 0 -38.166 3.16699 -56.499 9.5s-36.5 13.166 -54.5 20.499s-36 14.166 -54 20.499s-36 9.5 -54 9.5
c-16 0 -31.5 -3.33301 -46.5 -10s-27.833 -17.667 -38.5 -33c-8.66699 -12.667 -18 -14 -28 -4l-21 21c-4.66699 4.66699 -7.33398 9.83398 -8.00098 15.501s0.666016 11.167 3.99902 16.5c14.667 22 33.5 39.167 56.5 51.5s46.5 18.5 70.5 18.5
c18.667 0 38 -3.33301 58 -10s40 -14 60 -22s39.5 -15.333 58.5 -22s37.167 -10 54.5 -10c16.667 0 31.667 4 45 12s26.666 20.667 39.999 38c8 10 16 12 24 6zM572.002 202c7.33301 -6 10.502 -11.667 9.50195 -17s-3.16699 -10.666 -6.5 -15.999
c-17.333 -24 -37.333 -42.667 -60 -56s-47.667 -20 -75 -20c-19.333 0 -38.166 3.16699 -56.499 9.5s-36.5 13.166 -54.5 20.499s-36 14.166 -54 20.499s-36 9.5 -54 9.5c-16 0 -31.5 -3.33301 -46.5 -10s-27.833 -17.667 -38.5 -33c-8.66699 -12.667 -18 -14 -28 -4l-21 21
c-4.66699 4.66699 -7.33398 9.83398 -8.00098 15.501s0.666016 11.167 3.99902 16.5c14.667 22 33.5 39.167 56.5 51.5s46.5 18.5 70.5 18.5c18.667 0 38 -3.33301 58 -10s40 -14 60 -22s39.5 -15.333 58.5 -22s37.167 -10 54.5 -10c16.667 0 31.667 4 45 12
s26.666 20.667 39.999 38c8 10 16 12 24 6z" />
    <glyph glyph-name="notequal" unicode="&#x2260;" horiz-adv-x="564" 
d="M338 350l-46 -95h180c9.33301 0 15.333 -2.16699 18 -6.5s4 -11.166 4 -20.499v-10c0 -8.66699 -1.33301 -15.334 -4 -20.001s-8.66699 -7 -18 -7h-211l-58 -120c-3.33301 -6.66699 -6.66602 -11.334 -9.99902 -14.001s-8.66602 -4 -15.999 -4h-28
c-15.333 0 -19.666 7 -12.999 21l57 117h-102c-9.33301 0 -15.333 2.16699 -18 6.5s-4 11.166 -4 20.499v10c0 8.66699 1.33301 15.334 4 20.001s8.66699 7 18 7h133l46 95h-179c-9.33301 0 -15.333 2.16699 -18 6.5s-4 11.166 -4 20.499v10
c0 8.66699 1.33301 15.334 4 20.001s8.66699 7 18 7h210l52 106c3.33301 6.66699 6.66602 11.334 9.99902 14.001s8.66602 4 15.999 4h28c15.333 0 19.666 -7 12.999 -21l-51 -103h103c9.33301 0 15.333 -2.16699 18 -6.5s4 -11.166 4 -20.499v-10
c0 -8.66699 -1.33301 -15.334 -4 -20.001s-8.66699 -7 -18 -7h-134z" />
    <glyph glyph-name="lessequal" unicode="&#x2264;" horiz-adv-x="492" 
d="M389 156c9.33301 0 15.333 -2.16699 18 -6.5s4 -11.166 4 -20.499v-13c0 -8.66699 -1.33301 -15.334 -4 -20.001s-8.66699 -7 -18 -7h-290c-9.33301 0 -15.333 2.16699 -18 6.5s-4 11.166 -4 20.499v13c0 8.66699 1.33301 15.334 4 20.001s8.66699 7 18 7h290zM70 370
c0 14 8.33301 24.665 25 31.998l288 119c8 3.33301 14.667 4.33301 20 3s8 -6.66602 8 -15.999v-25c0 -10.667 -1.33301 -18.5 -4 -23.5s-7.33398 -8.83301 -14.001 -11.5l-194 -75l-62 -24l62 -24l194 -75c6.66699 -2.66699 11.334 -6.5 14.001 -11.5s4 -12.833 4 -23.5
v-25c0 -9.33301 -2.66699 -14.666 -8 -15.999s-12 -0.333008 -20 3l-288 119c-16.667 7.33301 -25 18 -25 32v42z" />
    <glyph glyph-name="greaterequal" unicode="&#x2265;" horiz-adv-x="492" 
d="M393 156c9.33301 0 15.333 -2.33301 18 -7s4 -11.334 4 -20.001v-13c0 -9.33301 -1.33301 -16.166 -4 -20.499s-8.66699 -6.5 -18 -6.5h-290c-9.33301 0 -15.333 2.33301 -18 7s-4 11.334 -4 20.001v13c0 9.33301 1.33301 16.166 4 20.499s8.66699 6.5 18 6.5h290z
M422 328c0 -14 -8.33301 -24.665 -25 -31.998l-288 -119c-8 -3.33301 -14.667 -4.33301 -20 -3s-8 6.66602 -8 15.999v25c0 10.667 1.33301 18.5 4 23.5s7.33398 8.83301 14.001 11.5l194 75l62 24l-62 24l-194 75c-6.66699 2.66699 -11.334 6.5 -14.001 11.5
s-4 12.833 -4 23.5v25c0 9.33301 2.66699 14.666 8 15.999s12 0.333008 20 -3l288 -119c16.667 -7.33301 25 -18 25 -32v-42z" />
    <glyph glyph-name=".null" horiz-adv-x="0" 
 />
    <glyph glyph-name="nonmarkingreturn" horiz-adv-x="236" 
 />
    <glyph glyph-name="hyphen.alt" horiz-adv-x="459" 
d="M361 373c9.33301 0 15.333 -2.16699 18 -6.5s4 -11.166 4 -20.499v-20c0 -8.66699 -1.33301 -15.334 -4 -20.001s-8.66699 -7 -18 -7h-263c-9.33301 0 -15.333 2.16699 -18 6.5s-4 11.166 -4 20.499v20c0 8.66699 1.33301 15.334 4 20.001s8.66699 7 18 7h263z" />
    <glyph glyph-name="endash.alt" horiz-adv-x="654" 
d="M556 373c9.33301 0 15.333 -2.16699 18 -6.5s4 -10.833 4 -19.5v-20c0 -8.66699 -1.33301 -15.167 -4 -19.5s-8.66699 -6.5 -18 -6.5h-459c-9.33301 0 -15.333 2.16699 -18 6.5s-4 10.833 -4 19.5v20c0 8.66699 1.33301 15.167 4 19.5s8.66699 6.5 18 6.5h459z" />
    <glyph glyph-name="emdash.alt" horiz-adv-x="858" 
d="M758 292c9.33301 0 15.333 -2.16699 18 -6.5s4 -10.833 4 -19.5v-18c0 -8.66699 -1.33301 -15.167 -4 -19.5s-8.66699 -6.5 -18 -6.5h-659c-9.33301 0 -15.333 2.16699 -18 6.5s-4 10.833 -4 19.5v18c0 8.66699 1.33301 15.167 4 19.5s8.66699 6.5 18 6.5h659z" />
    <glyph glyph-name="guillemotleft.alt" horiz-adv-x="494" 
d="M437 194c6 -7.33301 5.66406 -14.332 -1.00293 -20.999l-30 -26c-2.66699 -2.66699 -5.66699 -4 -9 -4s-6.66602 1.66699 -9.99902 5l-153 177c-6 7.33301 -6 14.666 0 21.999l143 166c2.66699 3.33301 5.83398 5 9.50098 5s6.83398 -1.33301 9.50098 -4l30 -26
c6.66699 -6.66699 7 -13.667 1 -21l-115 -131zM247.997 179.001c6 -7.33301 5.66895 -14.3311 -0.998047 -20.998l-30 -26c-2.66699 -2.66699 -5.83398 -4 -9.50098 -4s-6.83398 1.66699 -9.50098 5l-163 190c-6 7.33301 -6 14.666 0 21.999l163 190
c6 7.33301 12.333 7.66602 19 0.999023l30 -26c6.66699 -6.66699 7 -13.667 1 -21l-135 -155z" />
    <glyph glyph-name="guillemotright.alt" horiz-adv-x="494" 
d="M183 336l-115.003 130.999c-6 7.33301 -5.66699 14.333 1 21l30 26c2.66699 2.66699 5.83398 4 9.50098 4s6.83398 -1.66699 9.50098 -5l143 -166c6 -7.33301 6 -14.666 0 -21.999l-153 -177c-3.33301 -3.33301 -6.66602 -5 -9.99902 -5s-6.33301 1.33301 -9 4l-30 26
c-6.66699 6.66699 -7 13.667 -1 21zM381.997 333.999l-134.998 154.998c-6 7.33301 -5.66699 14.333 1 21l30 26c6.66699 6.66699 13 6.33398 19 -0.999023l163 -190c6 -7.33301 6 -14.666 0 -21.999l-163 -190c-2.66699 -3.33301 -5.83398 -5 -9.50098 -5
s-6.83398 1.33301 -9.50098 4l-30 26c-6.66699 6.66699 -7 13.667 -1 21z" />
    <glyph glyph-name="zero.alt" 
d="M249 -13c-48 0 -87.167 9.66699 -117.5 29s-54.166 44.5 -71.499 75.5s-29.166 66.167 -35.499 105.5s-9.5 79 -9.5 119c0 40.667 3.66699 80.167 11 118.5s20 72.333 38 102s42.333 53.334 73 71.001s69.334 26.5 116.001 26.5c48 0 87.167 -9.66699 117.5 -29
s54.166 -44.5 71.499 -75.5s29.166 -66.167 35.499 -105.5s9.5 -79 9.5 -119c0 -41.333 -3.66699 -81 -11 -119s-20 -71.833 -38 -101.5s-42.333 -53.334 -73 -71.001s-69.334 -26.5 -116.001 -26.5zM251 58c34 0 61.333 7.5 82 22.5s36.834 34.833 48.501 59.5
s19.334 52.667 23.001 84s5.5 63.333 5.5 96c0 31.333 -2.33301 61.666 -7 90.999s-13 55.333 -25 78s-28.167 40.834 -48.5 54.501s-46.5 20.5 -78.5 20.5c-34 0 -61.333 -7.5 -82 -22.5s-36.834 -34.833 -48.501 -59.5s-19.334 -52.667 -23.001 -84s-5.5 -63.333 -5.5 -96
c0 -31.333 2.33301 -61.666 7 -90.999s13 -55.333 25 -78s28.167 -40.834 48.5 -54.501s46.5 -20.5 78.5 -20.5z" />
    <glyph glyph-name="one.alt" 
d="M312 626c10 0 17.5 -1.33301 22.5 -4s7.5 -8.66699 7.5 -18v-582c0 -9.33301 -2.5 -15.333 -7.5 -18s-12.167 -4 -21.5 -4h-17c-10 -0 -17.5 1.33301 -22.5 4s-7.5 8.66699 -7.5 18v507l-101 -73c-12 -8 -21.667 -7 -29 3l-13 19c-4.66699 7.33301 -7.16699 13 -7.5 17
s3.16699 8.66699 10.5 14l139 107c8.66699 6.66699 18.667 10 30 10h17z" />
    <glyph glyph-name="two.alt" 
d="M65 550c0 12.667 5.66797 24.3369 17.001 35.0039s25.5 19.5 42.5 26.5s35.333 12.5 55 16.5s37.834 6 54.501 6c28.667 0 55 -3.5 79 -10.5s45 -18 63 -33s32.167 -34.333 42.5 -58s16.166 -52.167 17.499 -85.5c0.666992 -36 -8 -68.333 -26 -97
s-40 -54.834 -66 -78.501s-53.833 -45.334 -83.5 -65.001s-55.5 -38.167 -77.5 -55.5c-11.333 -9.33301 -21.333 -20.5 -30 -33.5s-14.334 -27.5 -17.001 -43.5h286c9.33301 0 15.333 -2.33301 18 -7s4 -11.667 4 -21v-17c0 -10 -1.33301 -17.333 -4 -22s-8.66699 -7 -18 -7
h-342c-6 0 -10.667 1.33301 -14 4s-5.83301 6.16699 -7.5 10.5s-2.66699 9 -3 14s-0.5 9.83301 -0.5 14.5c0 36 7.5 66.833 22.5 92.5s33.5 48.167 55.5 67.5s46.167 37.166 72.5 53.499s50.5 33.5 72.5 51.5s40.5 38.167 55.5 60.5s22.5 49.166 22.5 80.499
c0 15.333 -2 29.833 -6 43.5s-10.5 25.5 -19.5 35.5s-21.167 18 -36.5 24s-34 9 -56 9c-26.667 0 -53.167 -4.66699 -79.5 -14s-49.166 -19.666 -68.499 -30.999c-2.66699 -1.33301 -4.83398 -1.66602 -6.50098 -0.999023s-3.16699 1.66699 -4.5 3
c-3.33301 3.33301 -6.5 8.16602 -9.5 14.499s-4.5 12.166 -4.5 17.499z" />
    <glyph glyph-name="three.alt" 
d="M408 627c9.33301 0 15.334 -2.33203 18.001 -6.99902s4 -11.667 4 -21v-9c0 -5.33301 -1.33301 -10.166 -4 -14.499s-7 -10.166 -13 -17.499l-164 -198c34 0 63.333 -4.66699 88 -14s45 -22 61 -38s27.833 -34.833 35.5 -56.5s11.5 -44.834 11.5 -69.501
c0 -28 -4.5 -53.833 -13.5 -77.5s-22.5 -44.334 -40.5 -62.001s-40.833 -31.334 -68.5 -41.001s-60.167 -14.5 -97.5 -14.5c-12.667 0 -28.667 1.33301 -48 4s-38.166 7.16699 -56.499 13.5s-34 15 -47 26s-19.5 24.5 -19.5 40.5c0 7.33301 1.5 14.5 4.5 21.5
s7.16699 10.5 12.5 10.5c2 0 4 -0.333008 6 -1s4.33301 -1.66699 7 -3c20.667 -11.333 44.167 -20.666 70.5 -27.999s52.166 -11 77.499 -11s46.666 3.33301 63.999 10s31.333 15.5 42 26.5s18.334 23.833 23.001 38.5s7 30 7 46c0 26 -5 47 -15 63s-23.333 28.667 -40 38
s-35.834 15.666 -57.501 18.999s-44.5 5 -68.5 5h-8c-12 0 -18 6 -18 18v11c0 10 3.66699 19.667 11 29l148 188h-230c-9.33301 0 -15.333 2.33301 -18 7s-4 12 -4 22v18c0 9.33301 1.33301 16.333 4 21s8.66699 7 18 7h318z" />
    <glyph glyph-name="four.alt" 
d="M332 562l-240 -350h240v350zM408 212l56.001 -0.000976562c9.33301 0 15.333 -2 18 -6s4 -10.667 4 -20v-16c0 -9.33301 -1.33301 -16.166 -4 -20.499s-8.66699 -6.5 -18 -6.5h-56v-121c0 -9.33301 -2.5 -15.333 -7.5 -18s-12.167 -4 -21.5 -4h-17
c-10 -0 -17.5 1.33301 -22.5 4s-7.5 8.66699 -7.5 18v121h-284c-21.333 0 -32 9.66699 -32 29v20c0 19.333 7.33301 39.333 22 60l239 349c7.33301 10 15.5 16.667 24.5 20s19.167 5 30.5 5h43c11.333 0 19.666 -1.83301 24.999 -5.5s8 -11.167 8 -22.5v-386z" />
    <glyph glyph-name="five.alt" 
d="M229 -13c-11.333 0 -26.666 0.999023 -45.999 2.99902s-38.5 6.33301 -57.5 13s-35.333 16 -49 28s-20.5 27.667 -20.5 47c0 12 3.33301 21.667 10 29c3.33301 3.33301 7 4 11 2c23.333 -14 47.5 -25.833 72.5 -35.5s50.5 -14.5 76.5 -14.5c18.667 0 36.5 2.5 53.5 7.5
s32 13.333 45 25s23.333 26.667 31 45s11.5 40.5 11.5 66.5c0 37.333 -11.5 67.5 -34.5 90.5s-55.167 34.5 -96.5 34.5c-20 0 -40 -3 -60 -9s-38 -12.667 -54 -20c-8.66699 -4.66699 -16 -5.66699 -22 -3l-16 7c-5.33301 2.66699 -9.33301 5.5 -12 8.5
s-3.33398 9.83301 -2.00098 20.5l30 267c1.33301 12 3.5 19.667 6.5 23s8.16699 5 15.5 5h290c9.33301 0 15.333 -2.33301 18 -7s4 -11.667 4 -21v-18c0 -10 -1.33301 -17.333 -4 -22s-8.66699 -7 -18 -7h-247l-21 -184c35.333 17.333 71 26 107 26
c32.667 0 61.167 -5.5 85.5 -16.5s44.5 -25.5 60.5 -43.5s27.833 -38.667 35.5 -62s11.5 -47.666 11.5 -72.999c0 -39.333 -6.33301 -72.5 -19 -99.5s-29.167 -48.833 -49.5 -65.5s-43.333 -28.667 -69 -36s-51.5 -11 -77.5 -11z" />
    <glyph glyph-name="six.alt" 
d="M397 634c5.33301 0 9.50195 -1.66602 12.502 -4.99902s4.5 -7 4.5 -11v-38c0 -4 -1.33301 -7.5 -4 -10.5s-6 -4.5 -10 -4.5c-31.333 0 -62.333 -4.5 -93 -13.5s-58.834 -23.167 -84.501 -42.5s-47.834 -44 -66.501 -74s-31.334 -66 -38.001 -108h2
c17.333 25.333 40.833 44.166 70.5 56.499s59.5 18.5 89.5 18.5c29.333 0 55.333 -5.5 78 -16.5s41.834 -25.833 57.501 -44.5s27.5 -40.167 35.5 -64.5s12 -49.5 12 -75.5c0 -30 -4.83301 -58 -14.5 -84s-23.834 -48.667 -42.501 -68s-41.167 -34.5 -67.5 -45.5
s-55.833 -16.5 -88.5 -16.5c-33.333 0 -63.166 6.16699 -89.499 18.5s-48.5 29.833 -66.5 52.5s-31.833 50.334 -41.5 83.001s-14.5 69 -14.5 109c0 70.667 10.667 130.5 32 179.5s49.166 88.667 83.499 119s72.833 52.166 115.5 65.499s85.334 20 128.001 20z
M117.002 230.001c0 -54 11.666 -97.167 34.999 -129.5s58 -48.5 104 -48.5c42.667 0 75.334 13.5 98.001 40.5s34 62.5 34 106.5c-1.33301 45.333 -13 79.5 -35 102.5s-51 34.5 -87 34.5c-30 0 -58.667 -9.33301 -86 -28s-48.333 -44.667 -63 -78z" />
    <glyph glyph-name="seven.alt" 
d="M419 626c9.33301 0 15.333 -2.33301 18 -7s4 -11.667 4 -21v-35c0 -9.33301 -2 -18.333 -6 -27l-248 -523c-4.66699 -8.66699 -11.334 -13 -20.001 -13h-55c-11.333 -0 -14.666 5.33301 -9.99902 16l261 536h-283c-9.33301 0 -15.333 2.33301 -18 7s-4 12 -4 22v17
c0 9.33301 1.33301 16.333 4 21s8.66699 7 18 7h339z" />
    <glyph glyph-name="eight.alt" 
d="M316 325c20 -11.333 38.667 -23.501 56 -36.501s32.5 -27 45.5 -42s23.167 -31.167 30.5 -48.5s11 -36.333 11 -57c0 -26 -5.66699 -48.5 -17 -67.5s-26.333 -35 -45 -48s-40 -22.667 -64 -29s-48.333 -9.5 -73 -9.5c-27.333 0 -54 3 -80 9s-49.333 15.5 -70 28.5
s-37.167 29.833 -49.5 50.5s-18.5 45.334 -18.5 74.001c0 38.667 11.333 73 34 103s55 55 97 75c-33.333 19.333 -60.333 41.333 -81 66s-31 54.667 -31 90c0 20 4.33301 39.167 13 57.5s21.334 34.333 38.001 48s37.167 24.5 61.5 32.5s52.166 12 83.499 12
c27.333 -0.666992 52.5 -4.83398 75.5 -12.501s42.833 -18.167 59.5 -31.5s29.667 -29.166 39 -47.499s14 -37.833 14 -58.5c0 -68 -43 -120.667 -129 -158zM383 142.999c0 16.667 -3.83301 31.832 -11.5 45.499s-18.167 26.5 -31.5 38.5s-29 23.333 -47 34l-57 33
c-36 -16.667 -64 -37.5 -84 -62.5s-30 -52.167 -30 -81.5c0 -16.667 3.83301 -31.167 11.5 -43.5s17.5 -22.666 29.5 -30.999s25.667 -14.5 41 -18.5s31 -6 47 -6s32 2 48 6s30.167 10 42.5 18s22.333 17.667 30 29s11.5 24.333 11.5 39zM254 569.997
c-13.333 0 -26.666 -1.49902 -39.999 -4.49902s-25.666 -8 -36.999 -15s-20.5 -16 -27.5 -27s-10.5 -24.5 -10.5 -40.5c0 -15.333 3.5 -29.333 10.5 -42s16.167 -24.334 27.5 -35.001s24.166 -20.167 38.499 -28.5s28.833 -16.166 43.5 -23.499
c37.333 18.667 65.166 38.167 83.499 58.5s27.5 43.166 27.5 68.499c0 26.667 -10.333 48.167 -31 64.5s-49 24.5 -85 24.5z" />
    <glyph glyph-name="nine.alt" 
d="M107 -13c-5.33301 0 -9.33496 1.66602 -12.002 4.99902s-4 7 -4 11v38c0 4 1.33301 7.5 4 10.5s5.66699 4.5 9 4.5c30.667 0 60.834 4.5 90.501 13.5s57 23.167 82 42.5s46.5 44 64.5 74s30.333 66 37 108h-2c-16.667 -25.333 -39.5 -44.166 -68.5 -56.499
s-57.833 -18.5 -86.5 -18.5s-54.167 5.5 -76.5 16.5s-41 25.833 -56 44.5s-26.333 40.167 -34 64.5s-11.5 49.5 -11.5 75.5c0 30 4.83301 58 14.5 84s23.334 48.667 41.001 68s39.334 34.5 65.001 45.5s54.5 16.5 86.5 16.5s60.833 -6.16699 86.5 -18.5
s47.5 -29.833 65.5 -52.5s31.833 -50.334 41.5 -83.001s14.5 -69 14.5 -109c0 -71.333 -10.5 -131.333 -31.5 -180s-48.333 -88.167 -82 -118.5s-71.334 -52.166 -113.001 -65.499s-83.167 -20 -124.5 -20zM378.998 390.999c0 54 -11.334 97.167 -34.001 129.5
s-56.334 48.5 -101.001 48.5c-41.333 0 -72.666 -13.5 -93.999 -40.5s-32 -62.5 -32 -106.5c1.33301 -45.333 12.5 -79.5 33.5 -102.5s48.833 -34.5 83.5 -34.5c28.667 0 56.334 9.33301 83.001 28s47 44.667 61 78z" />
    <glyph glyph-name="dollar.alt" 
d="M281 -84c0 -9.33301 -2.50391 -15.332 -7.50391 -17.999s-12.833 -4 -23.5 -4h-8c-10 0 -17.667 1.33301 -23 4s-8 8.66699 -8 18v70c-16 2 -33 5.16699 -51 9.5s-34.5 10.166 -49.5 17.499s-27.5 16.333 -37.5 27s-15 23.334 -15 38.001c0 6 1.5 12 4.5 18
s7.16699 10.667 12.5 14c4 2 7.66699 2 11 0c26 -16.667 53.333 -30 82 -40s57.667 -15 87 -15c13.333 0 26.833 1.5 40.5 4.5s26 8 37 15s20 16.5 27 28.5s10.5 26.667 10.5 44c0 25.333 -7.83301 45.666 -23.5 60.999s-35.167 28.666 -58.5 39.999
s-48.833 21.833 -76.5 31.5s-53.167 21.334 -76.5 35.001s-42.833 30.667 -58.5 51s-23.5 46.833 -23.5 79.5c0.666992 26 5.33398 49 14.001 69s20.167 37 34.5 51s30.833 25.167 49.5 33.5s38.667 14.166 60 17.499v64c0 9.33301 2.5 15.333 7.5 18s12.833 4 23.5 4h8
c10 0 17.667 -1.33301 23 -4s8 -8.66699 8 -18v-63c16 -1.33301 32 -4 48 -8s30.5 -9.33301 43.5 -16s23.5 -14.5 31.5 -23.5s12 -19.167 12 -30.5c0 -12 -3.66699 -22.333 -11 -31c-4.66699 -4.66699 -9.33398 -5.66699 -14.001 -3c-22.667 14.667 -45.667 26 -69 34
s-47.333 12 -72 12c-14.667 0 -29.167 -2 -43.5 -6s-27.333 -10 -39 -18s-21 -18.167 -28 -30.5s-10.5 -26.833 -10.5 -43.5c0 -21.333 7.83301 -39 23.5 -53s35.334 -26.5 59.001 -37.5s49.334 -22 77.001 -33s53.334 -24.167 77.001 -39.5s43.334 -34.166 59.001 -56.499
s23.5 -50.5 23.5 -84.5c0 -23.333 -4.16699 -44.333 -12.5 -63s-20 -35 -35 -49s-32.667 -25.5 -53 -34.5s-42.5 -14.833 -66.5 -17.5v-69z" />
    <glyph glyph-name="Euro.alt" 
d="M398 410c18.667 0 25.9941 -7.99805 21.9941 -23.998l-6 -18c-3.33301 -9.33301 -6.66602 -15.166 -9.99902 -17.499s-9.66602 -3.5 -18.999 -3.5h-246c-0.666992 -6.66699 -1 -13 -1 -19v-19v-15c0 -4.66699 0.333008 -9.66699 1 -15h221c18.667 0 26 -8 22 -24l-6 -18
c-3.33301 -9.33301 -6.66602 -15.166 -9.99902 -17.499s-9.66602 -3.5 -18.999 -3.5h-201c10 -51.333 30 -91 60 -119s72 -42 126 -42c24 0 47.833 3.83301 71.5 11.5s48.834 19.167 75.501 34.5c6.66699 2.66699 11.667 0.666992 15 -6l13 -23
c2.66699 -4.66699 3.5 -8.33398 2.5 -11.001s-2.83301 -5.33398 -5.5 -8.00098c-9.33301 -10 -21 -19 -35 -27s-29 -15 -45 -21s-32.333 -10.5 -49 -13.5s-32 -4.5 -46 -4.5c-76 0 -134.833 20 -176.5 60s-68.167 96.333 -79.5 169h-58c-7.33301 0 -13.333 1.66699 -18 5
s-6 9 -4 17l6 21c2 7.33301 4.66699 12.5 8 15.5s10 4.5 20 4.5h40v30v19c0 6 0.333008 12.333 1 19h-53c-7.33301 0 -13.333 1.66699 -18 5s-6 9 -4 17l6 21c2 7.33301 4.66699 12.5 8 15.5s10 4.5 20 4.5h50c15.333 68.667 45.5 123 90.5 163s101.833 60 170.5 60
c18 0 37 -1.5 57 -4.5s38.5 -7.5 55.5 -13.5s31 -13.667 42 -23s16.5 -20 16.5 -32c-0.666992 -4.66699 -1.83398 -8.83398 -3.50098 -12.501s-3.83398 -7.5 -6.50098 -11.5c-2.66699 -3.33301 -5.16699 -5.33301 -7.5 -6s-5.16602 -0.333984 -8.49902 0.999023
c-49.333 22.667 -97.666 34 -144.999 34c-51.333 0 -92.666 -13.5 -123.999 -40.5s-53 -65.167 -65 -114.5h249z" />
    <glyph glyph-name="currency.alt" 
d="M342 165c9.33301 0 15.335 -2 18.002 -6s4 -10.333 4 -19v-13c0 -8 -1.33301 -14.167 -4 -18.5s-8.66699 -6.5 -18 -6.5h-185v-81c0 -9.33301 -2.16699 -15.166 -6.5 -17.499s-11.166 -3.5 -20.499 -3.5h-21c-8.66699 0 -15.334 1.16699 -20.001 3.5
s-7 8.16602 -7 17.499v81h-46c-9.33301 0 -15.333 2 -18 6s-4 10.333 -4 19v13c0 8 1.33301 14.167 4 18.5s8.66699 6.5 18 6.5h46v64h-46c-9.33301 0 -15.333 2 -18 6s-4 10.333 -4 19v13c0 8 1.33301 14.167 4 18.5s8.66699 6.5 18 6.5h46v308
c0 9.33301 2.33301 15.166 7 17.499s11.334 3.5 20.001 3.5h150c44.667 0 81.667 -5.66699 111 -17s52.666 -26.5 69.999 -45.5s29.666 -40.5 36.999 -64.5s11 -48.333 11 -73c0 -27.333 -4.83301 -52.666 -14.5 -75.999s-23.834 -43.5 -42.501 -60.5s-42 -30.5 -70 -40.5
s-60 -15 -96 -15h-108v-64h185zM261.002 292c52 0 90.5 11.668 115.5 35.001s38.167 55.666 39.5 96.999c0 42.667 -12.667 76 -38 100s-64.333 36 -117 36h-104v-268h104z" />
    <glyph glyph-name="cent.alt" 
d="M244 535c0 9.33301 2.00098 15.165 6.00098 17.498s10 3.5 18 3.5h23c7.33301 0 13.166 -1.16699 17.499 -3.5s6.5 -8.16602 6.5 -17.499v-64c15.333 -1.33301 31.166 -3.66602 47.499 -6.99902s31 -7.66602 44 -12.999s23.667 -12 32 -20s12.5 -17.333 12.5 -28
c0 -4 -0.833008 -8.16699 -2.5 -12.5s-3.83398 -8.83301 -6.50098 -13.5c-2.66699 -3.33301 -5.16699 -5.33301 -7.5 -6s-5.16602 -0.333984 -8.49902 0.999023c-16.667 7.33301 -35 13.833 -55 19.5s-40.667 9.5 -62 11.5v-350c36.667 3.33301 69.667 14.333 99 33
c3.33301 2 7.83301 4.16699 13.5 6.5s11.167 0.166016 16.5 -6.50098l15 -19c8 -10 6.33301 -19.333 -5 -28c-19.333 -14.667 -40.5 -26.167 -63.5 -34.5s-46.167 -14.166 -69.5 -17.499v-76c0 -9.33301 -2 -15.166 -6 -17.499s-10 -3.5 -18 -3.5h-23
c-7.33301 0 -13.166 1.16699 -17.499 3.5s-6.5 8.16602 -6.5 17.499v76c-65.333 7.33301 -115 32 -149 74s-51 98 -51 168c0 70.667 17.5 126.5 52.5 167.5s84.167 65.5 147.5 73.5v65zM121.001 228.999c0 -48 11.167 -87.333 33.5 -118s55.166 -49.667 98.499 -57v348
c-45.333 -6.66699 -78.666 -25.167 -99.999 -55.5s-32 -69.5 -32 -117.5z" />
    <glyph glyph-name="asterisk.001" horiz-adv-x="464" 
d="M174 459c-5.33301 -11.333 -13.668 -17.666 -25.001 -18.999s-21.666 1.33398 -30.999 8.00098s-15.333 15.5 -18 26.5s0.666016 21.167 9.99902 30.5l92 92l-130 21c-12 2 -20.5 8.5 -25.5 19.5s-5.16699 22.167 -0.5 33.5c3.33301 10 10.333 17.333 21 22
s21 4.33398 31 -0.999023l117 -60l-21 130c-1.33301 11.333 1.33398 21 8.00098 29s16.667 12 30 12s23.166 -4 29.499 -12s8.83301 -17.667 7.5 -29l-20 -130l117 60c10 5.33301 20.333 5.66602 31 0.999023s17.667 -12 21 -22c4.66699 -11.333 4.5 -22.5 -0.5 -33.5
s-13.5 -17.5 -25.5 -19.5l-130 -21l92 -92c9.33301 -9.33301 12.666 -19.5 9.99902 -30.5s-8.66699 -19.833 -18 -26.5s-19.666 -9.33398 -30.999 -8.00098s-19.666 7.66602 -24.999 18.999l-58 116z" />
    </font>
</defs>
</svg>
